SplineFontDB: 3.0
FontName: NovaRound-BookOblique
FullName: Nova Round Book Oblique
FamilyName: Nova Round
Weight: Book
Copyright: Copyright (c) 2020-2024 by Wojciech Kalinowski "wmk69" with Reserved Font Name "NovaRound-BookOblique".\nThis Font Software is licensed under the SIL Open Font License, Version 1.1.
Version: 3.1.0; 2021-05-23
ItalicAngle: -12
UnderlinePosition: -80
UnderlineWidth: 200
Ascent: 1638
Descent: 410
InvalidEm: 0
LayerCount: 2
Layer: 0 1 "Warstwa t+AUIA-a" 1
Layer: 1 1 "Plan pierwszy" 0
XUID: [1021 783 23647091 8360855]
StyleMap: 0x0001
FSType: 0
OS2Version: 3
OS2_WeightWidthSlopeOnly: 0
OS2_UseTypoMetrics: 1
CreationTime: 1260698820
ModificationTime: 1621761987
PfmFamily: 33
TTFWeight: 400
TTFWidth: 5
LineGap: 200
VLineGap: 0
Panose: 2 12 5 4 2 5 3 13 2 4
OS2TypoAscent: 2000
OS2TypoAOffset: 0
OS2TypoDescent: -500
OS2TypoDOffset: 0
OS2TypoLinegap: 200
OS2WinAscent: 2000
OS2WinAOffset: 0
OS2WinDescent: 500
OS2WinDOffset: 0
HheadAscent: 2000
HheadAOffset: 0
HheadDescent: -500
HheadDOffset: 0
OS2SubXSize: 1434
OS2SubYSize: 1331
OS2SubXOff: 0
OS2SubYOff: 287
OS2SupXSize: 1434
OS2SupYSize: 1331
OS2SupXOff: 0
OS2SupYOff: 977
OS2StrikeYSize: 102
OS2StrikeYPos: 512
OS2CapHeight: 1530
OS2XHeight: 1120
OS2Vendor: '    '
OS2CodePages: 20000093.00000000
OS2UnicodeRanges: 8000002f.4000204b.00000000.00000000
Lookup: 258 0 0 "'kern' Horizontal Kerning lookup 0" { "'kern' Horizontal Kerning lookup 0-1 subtable" [307,0,4] } ['kern' ('DFLT' <'dflt' > 'grek' <'dflt' > 'latn' <'dflt' > ) ]
MarkAttachClasses: 1
DEI: 91125
KernClass2: 65 55 "'kern' Horizontal Kerning lookup 0-1 subtable"
 134 A M N Agrave Aacute Acircumflex Atilde Adieresis Aring Ntilde Amacron Abreve Aogonek Nacute Ncommaaccent Ncaron Eng Aringacute uni1E40
 28 B germandbls uni1E02 uni1E9E
 47 C Ccedilla Cacute Ccircumflex Cdotaccent Ccaron
 122 D O Q Eth Ograve Oacute Ocircumflex Otilde Odieresis Oslash Dcaron Dcroat Omacron Obreve Ohungarumlaut Oslashacute uni1E0A

StartChar: .notdef
Encoding: 65536 -1 0
Width: 994
Flags: W
HStem: 0 68<274 748> 1442 68<567 1041>
VStem: 150 694<0 694> 471 694<816 1510>
DStem2: 150 0 259.546 0 0.207912 0.978148<92.2951 1497.19> 733.546 0 844 0 0.207912 0.978148<69.5192 1474.41>
LayerCount: 2
Fore
SplineSet
150 0 m 1,0,-1
 471 1510 l 1,1,-1
 1165 1510 l 1,2,-1
 844 0 l 1,3,-1
 150 0 l 1,0,-1
274 68 m 1,4,-1
 748 68 l 1,5,-1
 1041 1442 l 1,6,-1
 567 1442 l 1,7,-1
 274 68 l 1,4,-1
EndSplineSet
Validated: 1
EndChar

StartChar: exclam
Encoding: 33 33 4
Width: 600
GlyphClass: 2
Flags: W
HStem: -20 245<246.711 397.42> 1510 20G<668.556 725>
VStem: 199 246<27.5918 176.764>
DStem2: 195.726 -20 395.596 -20 0.207912 0.978148<562.949 1492.61>
LayerCount: 2
Fore
SplineSet
296 -20 m 128,-1,1
 246 -20 246 -20 218 16 c 0,2,3
 199 41 199 41 199 75 c 0,4,5
 199 88 199 88 202 102 c 0,6,7
 213 152 213 152 255.5 188.5 c 128,-1,8
 298 225 298 225 348 225 c 0,9,10
 400 225 400 225 426 189 c 0,11,12
 445 163 445 163 445 130 c 0,13,14
 445 116 445 116 442 102 c 0,15,16
 431 52 431 52 388.5 16 c 128,-1,0
 346 -20 346 -20 296 -20 c 128,-1,1
715 1530 m 1,17,-1
 725 1530 l 1,18,-1
 504 490 l 1,19,-1
 295 400 l 1,20,-1
 285 400 l 1,21,-1
 506 1440 l 1,22,-1
 715 1530 l 1,17,-1
EndSplineSet
Validated: 1
EndChar

StartChar: quotedbl
Encoding: 34 34 5
Width: 453
GlyphClass: 2
Flags: W
HStem: 1140 440
VStem: 292 447
DStem2: 292 1140 411.947 1140 0.207912 0.978148<78.1001 396.778> 525 1140 644.947 1140 0.207912 0.978148<78.1001 396.778>
LayerCount: 2
Fore
SplineSet
729 1580 m 1,0,-1
 739 1580 l 1,1,-1
 656 1192 l 1,2,-1
 535 1140 l 1,3,-1
 525 1140 l 1,4,-1
 608 1528 l 1,5,-1
 729 1580 l 1,0,-1
496 1580 m 1,6,-1
 506 1580 l 1,7,-1
 423 1192 l 1,8,-1
 302 1140 l 1,9,-1
 292 1140 l 1,10,-1
 375 1528 l 1,11,-1
 496 1580 l 1,6,-1
EndSplineSet
Validated: 1
EndChar

StartChar: numbersign
Encoding: 35 35 6
Width: 1368
GlyphClass: 2
Flags: W
HStem: 520 120<338 559 704 911 1056 1277> 872 120<413 633 779 985 1131 1351>
DStem2: 495 222 614.947 222 0.207912 0.978148<78.1001 304.794 452.319 664.488 812.221 1038.71> 847 222 966.947 222 0.207912 0.978148<78.1001 304.794 452.319 664.488 812.221 1038.71>
LayerCount: 2
Fore
SplineSet
832 1290 m 1,0,-1
 842 1290 l 1,1,-1
 779 992 l 1,2,-1
 1011 992 l 1,3,-1
 1063 1238 l 1,4,-1
 1184 1290 l 1,5,-1
 1194 1290 l 1,6,-1
 1131 992 l 1,7,-1
 1429 992 l 1,8,-1
 1427 982 l 1,9,-1
 1351 872 l 1,10,-1
 1105 872 l 1,11,-1
 1056 640 l 1,12,-1
 1354 640 l 1,13,-1
 1352 630 l 1,14,-1
 1277 520 l 1,15,-1
 1031 520 l 1,16,-1
 978 274 l 1,17,-1
 857 222 l 1,18,-1
 847 222 l 1,19,-1
 911 520 l 1,20,-1
 679 520 l 1,21,-1
 626 274 l 1,22,-1
 505 222 l 1,23,-1
 495 222 l 1,24,-1
 559 520 l 1,25,-1
 261 520 l 1,26,-1
 263 530 l 1,27,-1
 338 640 l 1,28,-1
 584 640 l 1,29,-1
 633 872 l 1,30,-1
 335 872 l 1,31,-1
 337 882 l 1,32,-1
 413 992 l 1,33,-1
 659 992 l 1,34,-1
 711 1238 l 1,35,-1
 832 1290 l 1,0,-1
985 872 m 1,36,-1
 753 872 l 1,37,-1
 704 640 l 1,38,-1
 936 640 l 1,39,-1
 985 872 l 1,36,-1
EndSplineSet
Validated: 1
EndChar

StartChar: dollar
Encoding: 36 36 7
Width: 1140
GlyphClass: 2
Flags: W
HStem: -17 179<426.626 512>
VStem: 147 190<250.08 367> 387 199<994.157 1238.27> 962 205<368.853 654.619> 1022 188<1233 1304.4>
DStem2: 490 -120 590.073 -120 0.207912 0.978148<63.7446 105.323 313.224 895.737 1094.21 1498.83 1701.63 1746.36>
LayerCount: 2
Fore
SplineSet
512 -17 m 1,0,1
 342 0 342 0 242 121 c 0,2,3
 149 233 149 233 147 367 c 1,4,-1
 334 448 l 1,5,-1
 344 448 l 1,6,7
 337 412 337 412 337 381 c 0,8,9
 337 298 337 298 388 240 c 0,10,11
 450 172 450 172 550 162 c 1,12,-1
 677 756 l 1,13,14
 536 783 536 783 453 871 c 0,15,16
 387 941 387 941 387 1061 c 0,17,18
 387 1089 387 1089 391 1120 c 0,19,20
 414 1314 414 1314 561 1424 c 0,21,22
 690 1521 690 1521 841 1529 c 1,23,-1
 854 1588 l 1,24,-1
 952 1630 l 1,25,-1
 962 1630 l 1,26,-1
 940 1524 l 1,27,28
 1057 1504 1057 1504 1130 1417 c 0,29,30
 1208 1324 1208 1324 1210 1233 c 1,31,-1
 1026 1153 l 1,32,-1
 1018 1153 l 1,33,34
 1022 1176 1022 1176 1022 1197 c 0,35,36
 1022 1255 1022 1255 988 1295 c 0,37,38
 954 1334 954 1334 901 1345 c 1,39,-1
 813 930 l 1,40,41
 1013 902 1013 902 1101 781 c 0,42,43
 1167 690 1167 690 1167 560 c 0,44,45
 1167 520 1167 520 1161 477 c 0,46,47
 1131 264 1131 264 958 122 c 0,48,49
 800 -6 800 -6 612 -19 c 1,50,-1
 599 -78 l 1,51,-1
 500 -120 l 1,52,-1
 490 -120 l 1,53,-1
 512 -17 l 1,0,1
717 947 m 1,54,-1
 802 1346 l 1,55,56
 737 1336 737 1336 688 1298 c 0,57,58
 610 1238 610 1238 591 1145 c 0,59,60
 586 1121 586 1121 586 1099 c 0,61,62
 586 986 586 986 717 947 c 1,54,-1
773 740 m 1,63,-1
 651 166 l 1,64,65
 746 183 746 183 824 251 c 0,66,67
 930 342 930 342 954 465 c 0,68,69
 962 506 962 506 962 542 c 0,70,71
 962 612 962 612 927 656 c 0,72,73
 878 717 878 717 773 740 c 1,63,-1
EndSplineSet
Validated: 1
EndChar

StartChar: percent
Encoding: 37 37 8
Width: 1547
GlyphClass: 2
Flags: W
HStem: -20 125<1008.69 1221.36> 471 125<1068.2 1281.33> 914 125<578.693 791.365> 1405 125<638.202 851.332>
VStem: 399 146<1094.19 1308.57> 829 146<160.19 374.567> 885 146<1135.43 1349.81> 1315 146<201.433 415.81>
DStem2: 358 47 491 -20 0.566694 0.823928<20.1671 1799.35>
LayerCount: 2
Fore
SplineSet
1106 105 m 128,-1,1
 1174 105 1174 105 1234 159 c 128,-1,2
 1294 213 1294 213 1310 288 c 16,3,4
 1315 311 1315 311 1315 331 c 0,5,6
 1315 379 1315 379 1289 417 c 0,7,8
 1252 471 1252 471 1184 471 c 128,-1,9
 1116 471 1116 471 1056 417 c 128,-1,10
 996 363 996 363 980 288 c 16,11,12
 975 265 975 265 975 245 c 0,13,14
 975 197 975 197 1001 159 c 0,15,0
 1038 105 1038 105 1106 105 c 128,-1,1
1094 -20 m 128,-1,17
 967 -20 967 -20 890 70 c 0,18,19
 829 142 829 142 829 238 c 0,20,21
 829 264 829 264 832 288 c 8,22,23
 852 415 852 415 960 505.5 c 128,-1,24
 1068 596 1068 596 1195 596 c 0,25,26
 1324 596 1324 596 1400 506 c 0,27,28
 1461 434 1461 434 1461 338 c 0,29,30
 1461 313 1461 313 1458 288 c 8,31,32
 1438 161 1438 161 1329.5 70.5 c 128,-1,16
 1221 -20 1221 -20 1094 -20 c 128,-1,17
481 -20 m 1,33,-1
 358 47 l 1,34,-1
 1377 1530 l 1,35,-1
 1387 1530 l 1,36,-1
 1511 1463 l 1,37,-1
 491 -20 l 1,38,-1
 481 -20 l 1,33,-1
754 1405 m 128,-1,40
 686 1405 686 1405 626 1351 c 128,-1,41
 566 1297 566 1297 550 1222 c 16,42,43
 545 1199 545 1199 545 1179 c 0,44,45
 545 1131 545 1131 571 1093 c 0,46,47
 608 1039 608 1039 676 1039 c 128,-1,48
 744 1039 744 1039 804 1093 c 128,-1,49
 864 1147 864 1147 880 1222 c 16,50,51
 885 1245 885 1245 885 1265 c 0,52,53
 885 1313 885 1313 859 1351 c 0,54,39
 822 1405 822 1405 754 1405 c 128,-1,40
765 1530 m 0,55,56
 894 1530 894 1530 970 1440 c 0,57,58
 1031 1368 1031 1368 1031 1272 c 0,59,60
 1031 1247 1031 1247 1028 1222 c 8,61,62
 1008 1095 1008 1095 899.5 1004.5 c 128,-1,63
 791 914 791 914 664 914 c 128,-1,64
 537 914 537 914 460 1004 c 0,65,66
 399 1076 399 1076 399 1172 c 0,67,68
 399 1198 399 1198 402 1222 c 8,69,70
 422 1349 422 1349 530 1439.5 c 128,-1,71
 638 1530 638 1530 765 1530 c 0,55,56
EndSplineSet
Validated: 1
EndChar

StartChar: ampersand
Encoding: 38 38 9
Width: 1624
GlyphClass: 2
Flags: W
HStem: -20 173<535.366 926.364> 755 164<719.462 815> 1370 160<798.615 1075.43>
VStem: 242 199<247.557 554.991> 480 184<974.375 1237.25> 1131 179<1221 1313.75>
DStem2: 949 919 815 755 0.517402 -0.855742<47.932 543.31 769.367 979.459>
LayerCount: 2
Fore
SplineSet
669 -20 m 0,0,1
 458 -20 458 -20 338 115 c 0,2,3
 242 223 242 223 242 385 c 0,4,5
 242 418 242 418 246 453 c 0,6,7
 270 666 270 666 456 793 c 0,8,9
 497 821 497 821 576 852 c 1,10,11
 480 947 480 947 480 1091 c 0,12,13
 480 1115 480 1115 483 1141 c 0,14,15
 501 1310 501 1310 642 1418 c 0,16,17
 788 1530 788 1530 958 1530 c 0,18,19
 1137 1530 1137 1530 1234 1418 c 0,20,21
 1310 1329 1310 1329 1310 1221 c 1,22,-1
 1135 1145 l 1,23,-1
 1125 1145 l 1,24,25
 1131 1173 1131 1173 1131 1198 c 0,26,27
 1131 1262 1131 1262 1094 1306 c 0,28,29
 1042 1370 1042 1370 945 1370 c 0,30,31
 850 1370 850 1370 770.5 1306 c 128,-1,32
 691 1242 691 1242 670 1144 c 0,33,34
 664 1116 664 1116 664 1091 c 0,35,36
 664 1028 664 1028 702 982 c 0,37,38
 754 919 754 919 849 919 c 2,39,-1
 949 919 l 1,40,-1
 1230 454 l 1,41,42
 1371 613 1371 613 1423 827 c 1,43,-1
 1637 919 l 1,44,-1
 1647 919 l 1,45,46
 1573 577 1573 577 1322 301 c 1,47,-1
 1472 54 l 1,48,-1
 1299 -20 l 1,49,-1
 1289 -20 l 1,50,-1
 1179 159 l 1,51,52
 945 -20 945 -20 669 -20 c 0,0,1
1093 300 m 1,53,-1
 815 755 l 1,54,55
 689 755 689 755 582 670 c 0,56,57
 477 584 477 584 448 454 c 0,58,59
 441 423 441 423 441 385 c 0,60,61
 441 300 441 300 492 238 c 0,62,63
 562 153 562 153 691 153 c 0,64,65
 923 153 923 153 1093 300 c 1,53,-1
EndSplineSet
Validated: 1
EndChar

StartChar: quotesingle
Encoding: 39 39 10
Width: 220
GlyphClass: 2
Flags: W
HStem: 1140 440
VStem: 292 214
DStem2: 292 1140 411.947 1140 0.207912 0.978148<78.1001 396.778>
LayerCount: 2
Fore
SplineSet
496 1580 m 1,0,-1
 506 1580 l 1,1,-1
 423 1192 l 1,2,-1
 302 1140 l 1,3,-1
 292 1140 l 1,4,-1
 375 1528 l 1,5,-1
 496 1580 l 1,0,-1
EndSplineSet
Validated: 1
EndChar

StartChar: parenleft
Encoding: 40 40 11
Width: 756
GlyphClass: 2
Flags: W
HStem: -240 180<538.421 655> 1570 180<867.388 1040>
VStem: 242 199<31.304 293.412>
DStem2: 148.997 -240 348.524 -240 0.207912 0.978148<455.853 1762.35>
LayerCount: 2
Fore
SplineSet
655 -240 m 1,0,1
 445 -240 445 -240 327 -99 c 0,2,3
 242 3 242 3 242 142 c 0,4,5
 242 195 242 195 254 254 c 2,6,-1
 467 1256 l 2,7,8
 516 1487 516 1487 670 1609 c 0,9,10
 848 1750 848 1750 1078 1750 c 1,11,-1
 1040 1570 l 1,12,13
 914 1570 914 1570 806.5 1489.5 c 128,-1,14
 699 1409 699 1409 672 1282 c 18,15,-1
 448 228 l 2,16,17
 441 194 441 194 441 163 c 0,18,19
 441 79 441 79 494 20 c 0,20,21
 567 -60 567 -60 693 -60 c 1,22,-1
 655 -240 l 1,0,1
EndSplineSet
Validated: 1
EndChar

StartChar: parenright
Encoding: 41 41 12
Width: 756
GlyphClass: 2
Flags: W
HStem: -240 180<37 209.612> 1570 180<422 538.579>
VStem: 635 200<1116.2 1478.8>
DStem2: 304.524 -240 504.997 -240 0.207912 0.978148<309.892 1621.03>
LayerCount: 2
Fore
SplineSet
-1 -240 m 1,0,1
 37 -60 l 1,2,3
 163 -60 163 -60 270 20 c 0,4,5
 377 101 377 101 404 228 c 18,6,-1
 628 1282 l 2,7,8
 635 1316 635 1316 635 1348 c 0,9,10
 634 1432 634 1432 582 1490 c 0,11,12
 510 1570 510 1570 384 1570 c 1,13,-1
 422 1750 l 1,14,15
 632 1750 632 1750 750 1609 c 0,16,17
 835 1507 835 1507 835 1368 c 0,18,19
 835 1315 835 1315 823 1256 c 2,20,-1
 610 254 l 2,21,22
 561 23 561 23 407 -99 c 0,23,24
 229 -240 229 -240 -1 -240 c 1,0,1
EndSplineSet
Validated: 1
EndChar

StartChar: asterisk
Encoding: 42 42 13
Width: 748
GlyphClass: 2
Flags: W
HStem: 900 680
DStem2: 288 1122 377 1044 0.889118 0.457677<43.4327 243.802 485.703 686.073> 460 1436 339 1358 0.834738 -0.550647<0 156.342 356.679 512.186> 505 900 624.947 900 0.207912 0.978148<78.1001 241.238 478.999 642.137>
LayerCount: 2
Fore
SplineSet
760 1580 m 1,0,-1
 770 1580 l 1,1,-1
 720 1344 l 1,2,-1
 898 1436 l 1,3,-1
 984 1367 l 1,4,-1
 987 1358 l 1,5,-1
 758 1240 l 1,6,-1
 936 1122 l 1,7,-1
 930 1113 l 1,8,-1
 815 1044 l 1,9,-1
 675 1136 l 1,10,-1
 636 952 l 1,11,-1
 515 900 l 1,12,-1
 505 900 l 1,13,-1
 555 1136 l 1,14,-1
 377 1044 l 1,15,-1
 292 1113 l 1,16,-1
 288 1122 l 1,17,-1
 518 1240 l 1,18,-1
 339 1358 l 1,19,-1
 346 1367 l 1,20,-1
 460 1436 l 1,21,-1
 600 1344 l 1,22,-1
 639 1528 l 1,23,-1
 760 1580 l 1,0,-1
EndSplineSet
Validated: 1
EndChar

StartChar: plus
Encoding: 43 43 14
Width: 1200
GlyphClass: 2
Flags: W
HStem: 680 150<392 670 851 1129>
DStem2: 590 305 739.971 305 0.207912 0.978148<98.6553 383.438 567.792 852.575>
LayerCount: 2
Fore
SplineSet
767 1139 m 1,0,-1
 921 1205 l 1,1,-1
 931 1205 l 1,2,-1
 851 830 l 1,3,-1
 1226 830 l 1,4,-1
 1224 820 l 1,5,-1
 1129 680 l 1,6,-1
 820 680 l 1,7,-1
 754 371 l 1,8,-1
 600 305 l 1,9,-1
 590 305 l 1,10,-1
 670 680 l 1,11,-1
 295 680 l 1,12,-1
 297 690 l 1,13,-1
 392 830 l 1,14,-1
 701 830 l 1,15,-1
 767 1139 l 1,0,-1
EndSplineSet
Validated: 1
EndChar

StartChar: comma
Encoding: 44 44 15
Width: 389
GlyphClass: 2
Flags: W
HStem: -276 554
VStem: 187 166<-64.7295 154.218>
LayerCount: 2
Fore
SplineSet
279 278 m 1,0,-1
 289 278 l 1,1,2
 353 198 353 198 353 101 c 0,3,4
 353 68 353 68 346 34 c 0,5,6
 304 -163 304 -163 55 -276 c 1,7,-1
 50 -269 l 1,8,9
 155 -139 155 -139 182 -10 c 0,10,11
 187 14 187 14 187 37 c 0,12,13
 187 134 187 134 92 198 c 1,14,-1
 279 278 l 1,0,-1
EndSplineSet
Validated: 1
EndChar

StartChar: hyphen
Encoding: 45 45 16
Width: 1200
GlyphClass: 2
Flags: W
HStem: 680 150<392 1129>
LayerCount: 2
Fore
SplineSet
392 830 m 5,0,-1
 1226 830 l 5,1,-1
 1224 820 l 5,2,-1
 1129 680 l 5,3,-1
 295 680 l 5,4,-1
 297 690 l 5,5,-1
 392 830 l 5,0,-1
EndSplineSet
Validated: 1
EndChar

StartChar: period
Encoding: 46 46 17
Width: 340
GlyphClass: 2
Flags: W
HStem: -20 245<116.901 267.42>
VStem: 69 246<27.5918 176.764>
LayerCount: 2
Fore
SplineSet
166 -20 m 0,0,1
 114 -20 114 -20 88 16 c 0,2,3
 69 42 69 42 69 75 c 0,4,5
 69 88 69 88 72 102 c 0,6,7
 83 152 83 152 125.5 188.5 c 128,-1,8
 168 225 168 225 218 225 c 128,-1,9
 268 225 268 225 296 189 c 0,10,11
 315 165 315 165 315 130 c 0,12,13
 315 116 315 116 312 102 c 0,14,15
 301 52 301 52 258.5 16 c 128,-1,16
 216 -20 216 -20 166 -20 c 0,0,1
EndSplineSet
Validated: 1
EndChar

StartChar: slash
Encoding: 47 47 18
Width: 1039
GlyphClass: 2
Flags: W
DStem2: -18 -133 114 -200 0.565598 0.824681<19.4053 2233.67>
LayerCount: 2
Fore
SplineSet
104 -200 m 1,0,-1
 -18 -133 l 1,1,-1
 1244 1710 l 1,2,-1
 1254 1710 l 1,3,-1
 1378 1643 l 1,4,-1
 114 -200 l 1,5,-1
 104 -200 l 1,0,-1
EndSplineSet
Validated: 1
EndChar

StartChar: zero
Encoding: 48 48 19
Width: 1330
GlyphClass: 2
Flags: W
HStem: -20 180<540.244 872.88> 1350 180<778.893 1111.3>
VStem: 249 199<249.781 621.984> 1203 199<888.016 1260.22>
DStem2: 155.997 -20 355.524 -20 0.207912 0.978148<454.905 1316.03> 965.524 -20 1166 -20 0.207912 0.978148<307.953 1171.34>
LayerCount: 2
Fore
SplineSet
700 160 m 0,0,1
 826 160 826 160 932 240.5 c 128,-1,2
 1038 321 1038 321 1065 448 c 18,3,-1
 1196 1062 l 2,4,5
 1203 1097 1203 1097 1203 1128 c 0,6,7
 1203 1212 1203 1212 1151 1270 c 0,8,9
 1079 1350 1079 1350 952.5 1350 c 128,-1,10
 826 1350 826 1350 719.5 1269.5 c 128,-1,11
 613 1189 613 1189 586 1062 c 18,12,-1
 455 448 l 2,13,14
 448 414 448 414 448 382 c 0,15,16
 448 298 448 298 500 240 c 0,17,18
 572 160 572 160 700 160 c 0,0,1
681.5 -20 m 128,-1,20
 471 -20 471 -20 344 121 c 0,21,22
 250 225 250 225 249 368 c 0,23,24
 249 418 249 418 261 474 c 2,25,-1
 380 1036 l 2,26,27
 428 1267 428 1267 582 1389 c 0,28,29
 760 1530 760 1530 970.5 1530 c 128,-1,30
 1181 1530 1181 1530 1308 1389 c 0,31,32
 1402 1285 1402 1285 1402 1142 c 0,33,34
 1402 1091 1402 1091 1390 1036 c 2,35,-1
 1271 474 l 2,36,37
 1222 243 1222 243 1069 121 c 0,38,19
 892 -20 892 -20 681.5 -20 c 128,-1,20
EndSplineSet
Validated: 1
EndChar

StartChar: one
Encoding: 49 49 20
Width: 714
GlyphClass: 2
Flags: W
HStem: -20 21G<260 316.444> 1510 20G<732.816 789>
VStem: 260 529
DStem2: 260 -20 459.87 -20 0.207912 0.978148<133.566 1300.34>
LayerCount: 2
Fore
SplineSet
260 -20 m 1,0,-1
 530 1252 l 1,1,-1
 262 1138 l 1,2,-1
 301 1323 l 1,3,-1
 779 1530 l 1,4,-1
 789 1530 l 1,5,-1
 479 70 l 1,6,-1
 270 -20 l 1,7,-1
 260 -20 l 1,0,-1
EndSplineSet
Validated: 1
EndChar

StartChar: two
Encoding: 50 50 21
Width: 1273
GlyphClass: 2
Flags: W
HStem: 0 180<499 1063> 1350 180<747.458 1079.1>
VStem: 347 201<915.312 1154.06> 1165 206<954.46 1265.41>
LayerCount: 2
Fore
SplineSet
120 0 m 1,0,-1
 122 10 l 1,1,-1
 238 180 l 1,2,-1
 838 649 l 2,3,4
 1120 870 1120 870 1155 1039 c 0,5,6
 1165 1084 1165 1084 1165 1124 c 0,7,8
 1165 1196 1165 1196 1133 1247 c 0,9,10
 1070 1350 1070 1350 922 1350 c 0,11,12
 778 1350 778 1350 665 1249 c 0,13,14
 578 1171 578 1171 553 1047 c 0,15,16
 548 1022 548 1022 548 998 c 0,17,18
 548 956 548 956 563 914 c 1,19,-1
 378 833 l 1,20,-1
 368 833 l 1,21,22
 347 893 347 893 347 965 c 0,23,24
 347 1015 347 1015 357 1070 c 0,25,26
 391 1256 391 1256 539 1385 c 0,27,28
 707 1530 707 1530 940 1530 c 0,29,30
 1157 1530 1157 1530 1284 1385 c 0,31,32
 1371 1286 1371 1286 1371 1136 c 0,33,34
 1371 1092 1371 1092 1363 1043 c 0,35,36
 1323 785 1323 785 978 532 c 2,37,-1
 499 180 l 1,38,-1
 1181 180 l 1,39,-1
 1179 170 l 1,40,-1
 1063 0 l 1,41,-1
 120 0 l 1,0,-1
EndSplineSet
Validated: 1
EndChar

StartChar: three
Encoding: 51 51 22
Width: 1223
GlyphClass: 2
Flags: W
HStem: -20 180<476.84 808.28> 1330 180<614 975>
VStem: 193 193<251.509 405.938> 1011 199<368.95 682.677>
DStem2: 588 791 896 928 0.603937 0.797032<295.206 663.324>
LayerCount: 2
Fore
SplineSet
615 -20 m 0,0,1
 373 -20 373 -20 271 125 c 0,2,3
 193 235 193 235 193 369 c 0,4,5
 193 383 193 383 194 397 c 1,6,-1
 386 480 l 1,7,-1
 396 480 l 1,8,9
 386 435 386 435 386 395 c 0,10,11
 386 319 386 319 422 263 c 0,12,13
 487 160 487 160 633 160 c 0,14,15
 780 160 780 160 888 263 c 0,16,17
 977 348 977 348 1003 470 c 0,18,19
 1011 509 1011 509 1011 543 c 0,20,21
 1011 606 1011 606 984 657 c 0,22,23
 928 761 928 761 761 761 c 0,24,25
 689 761 689 761 618 741 c 1,26,-1
 588 791 l 1,27,-1
 975 1330 l 1,28,-1
 496 1330 l 1,29,-1
 498 1340 l 1,30,-1
 614 1510 l 1,31,-1
 1337 1510 l 1,32,-1
 896 928 l 1,33,34
 1033 917 1033 917 1123 805 c 0,35,36
 1210 696 1210 696 1210 544 c 0,37,38
 1210 511 1210 511 1206 476 c 0,39,40
 1182 270 1182 270 1016 125 c 128,-1,41
 850 -20 850 -20 615 -20 c 0,0,1
EndSplineSet
Validated: 1
EndChar

StartChar: four
Encoding: 52 52 23
Width: 1232
GlyphClass: 2
Flags: W
HStem: -20 21G<778 834.444> 340 180<457 854 1093 1124> 1510 20G<1250.56 1307>
DStem2: 84 350 457 520 0.677495 0.735527<377.745 1219.32> 778 -20 977.87 -20 0.207912 0.978148<133.566 367.934 593.692 1186.98>
LayerCount: 2
Fore
SplineSet
457 520 m 1,0,-1
 893 520 l 1,1,-1
 1025 1141 l 1,2,-1
 457 520 l 1,0,-1
778 -20 m 1,3,-1
 854 340 l 1,4,-1
 82 340 l 1,5,-1
 84 350 l 1,6,-1
 1088 1440 l 1,7,-1
 1297 1530 l 1,8,-1
 1307 1530 l 1,9,-1
 1093 520 l 1,10,-1
 1243 520 l 1,11,-1
 1240 510 l 1,12,-1
 1124 340 l 1,13,-1
 1054 340 l 1,14,-1
 997 70 l 1,15,-1
 788 -20 l 1,16,-1
 778 -20 l 1,3,-1
EndSplineSet
Validated: 1
EndChar

StartChar: five
Encoding: 53 53 24
Width: 1223
GlyphClass: 2
Flags: W
HStem: -20 180<477.844 807.377> 771 180<594.893 923.806> 1330 180<769 1229>
VStem: 193 193<250.527 397> 1012 196<368.146 687.378>
DStem2: 338 808 563 889 0.410473 0.911873<166.218 652.911>
LayerCount: 2
Fore
SplineSet
615 -20 m 0,0,1
 365 -20 365 -20 261 125 c 0,2,3
 193 221 193 221 193 358 c 0,4,5
 193 377 193 377 194 397 c 1,6,-1
 386 480 l 1,7,-1
 396 480 l 1,8,9
 386 435 386 435 386 395 c 0,10,11
 386 319 386 319 422 263 c 0,12,13
 487 160 487 160 633 160 c 0,14,15
 776 160 776 160 888 263 c 0,16,17
 976 344 976 344 1003 470 c 0,18,19
 1012 513 1012 513 1012 550 c 0,20,21
 1012 623 1012 623 977 675 c 0,22,23
 911 771 911 771 763 771 c 0,24,25
 643 771 643 771 525 707 c 1,26,-1
 338 808 l 1,27,-1
 654 1510 l 1,28,-1
 1347 1510 l 1,29,-1
 1345 1500 l 1,30,-1
 1229 1330 l 1,31,-1
 769 1330 l 1,32,-1
 563 889 l 1,33,34
 662 951 662 951 786 951 c 0,35,36
 991 951 991 951 1114 815 c 0,37,38
 1208 711 1208 711 1208 549 c 0,39,40
 1208 512 1208 512 1203 472 c 0,41,42
 1180 268 1180 268 1016 125 c 0,43,44
 850 -20 850 -20 615 -20 c 0,0,1
EndSplineSet
Validated: 1
EndChar

StartChar: six
Encoding: 54 54 25
Width: 1300
GlyphClass: 2
Flags: W
HStem: -20 180<550.171 865.181> 788 180<664.06 980.061> 1350 180<778.085 1111.51>
VStem: 249 205<254.076 572.074> 1077 212<372.438 688.52> 1203 190<1143 1260.78>
DStem2: 155.997 -20 357.997 -20 0.207912 0.978148<470.948 731.953 922.794 1318.26>
LayerCount: 2
Fore
SplineSet
698 160 m 0,0,1
 823 160 823 160 932 250 c 0,2,3
 1040 339 1040 339 1069 474 c 16,4,5
 1077 512 1077 512 1077 547 c 0,6,7
 1077 634 1077 634 1027 698 c 0,8,9
 957 788 957 788 832 788 c 128,-1,10
 707 788 707 788 599 699 c 0,11,12
 492 611 492 611 463 474 c 0,13,14
 454 433 454 433 454 397 c 0,15,16
 454 310 454 310 503 248 c 0,17,18
 572 160 572 160 698 160 c 0,0,1
969 1530 m 0,19,20
 1185 1530 1185 1530 1302 1389 c 0,21,22
 1392 1279 1392 1279 1393 1143 c 1,23,-1
 1206 1062 l 1,24,-1
 1196 1062 l 1,25,26
 1203 1096 1203 1096 1203 1128 c 0,27,28
 1203 1212 1203 1212 1151 1270 c 0,29,30
 1079 1350 1079 1350 952 1350 c 128,-1,31
 825 1350 825 1350 719 1269.5 c 128,-1,32
 613 1189 613 1189 586 1062 c 2,33,-1
 539 842 l 1,34,35
 671 968 671 968 850 968 c 0,36,37
 1061 968 1061 968 1189 827 c 0,38,39
 1289 716 1289 716 1289 562 c 0,40,41
 1289 520 1289 520 1281 474 c 8,42,43
 1246 262 1246 262 1068.5 121 c 128,-1,44
 891 -20 891 -20 680.5 -20 c 128,-1,45
 470 -20 470 -20 343 121 c 0,46,47
 249 225 249 225 249 368 c 0,48,49
 249 419 249 419 261 474 c 2,50,-1
 380 1036 l 2,51,52
 429 1267 429 1267 582 1389 c 0,53,54
 759 1530 759 1530 969 1530 c 0,19,20
EndSplineSet
Validated: 1
EndChar

StartChar: seven
Encoding: 55 55 26
Width: 967
GlyphClass: 2
Flags: W
HStem: -20 21G<158 214.202> 1330 180<411 943>
DStem2: 158 -20 466 109 0.503214 0.864162<266.467 1561.64>
LayerCount: 2
Fore
SplineSet
158 -20 m 1,0,-1
 943 1330 l 1,1,-1
 293 1330 l 1,2,-1
 295 1340 l 1,3,-1
 411 1510 l 1,4,-1
 1278 1510 l 1,5,-1
 1276 1500 l 1,6,-1
 466 109 l 1,7,-1
 168 -20 l 1,8,-1
 158 -20 l 1,0,-1
EndSplineSet
Validated: 1
EndChar

StartChar: eight
Encoding: 56 56 27
Width: 1210
GlyphClass: 2
Flags: W
HStem: -20 173<486.02 810.134> 755 164<669.462 918.116> 1370 160<748.115 1024.12>
VStem: 188 203<247.604 555.272> 430 184<975.594 1238.46> 1012 213<358 661.666> 1081 185<1050.18 1313.66>
LayerCount: 2
Fore
SplineSet
895 1370 m 0,0,1
 800 1370 800 1370 720.5 1306 c 128,-1,2
 641 1242 641 1242 620 1144 c 16,3,4
 614 1116 614 1116 614 1091 c 0,5,6
 614 1028 614 1028 652 982 c 0,7,8
 703 919 703 919 799 919 c 0,9,10
 897 919 897 919 974 982 c 0,11,12
 1058 1049 1058 1049 1076 1145 c 0,13,14
 1081 1172 1081 1172 1081 1197 c 0,15,16
 1081 1261 1081 1261 1044 1306 c 0,17,18
 992 1370 992 1370 895 1370 c 0,0,1
765 755 m 0,19,20
 639 755 639 755 532 670 c 0,21,22
 425 584 425 584 398 454 c 0,23,24
 391 420 391 420 391 385 c 0,25,26
 391 300 391 300 442 238 c 0,27,28
 512 153 512 153 638.5 153 c 128,-1,29
 765 153 765 153 871 238 c 0,30,31
 976 324 976 324 1004 454 c 16,32,33
 1012 491 1012 491 1012 524 c 0,34,35
 1012 608 1012 608 962 670 c 0,36,37
 892 755 892 755 765 755 c 0,19,20
621 -20 m 128,-1,39
 411 -20 411 -20 282 115 c 0,40,41
 188 213 188 213 188 374 c 0,42,43
 188 411 188 411 193 452 c 0,44,45
 220 669 220 669 401 793 c 0,46,47
 448 825 448 825 526 852 c 1,48,49
 430 934 430 934 430 1083 c 0,50,51
 430 1109 430 1109 433 1138 c 0,52,53
 451 1308 451 1308 592 1418 c 0,54,55
 736 1530 736 1530 908 1530 c 0,56,57
 1090 1530 1090 1530 1190 1418 c 0,58,59
 1266 1334 1266 1334 1266 1208 c 0,60,61
 1266 1175 1266 1175 1261 1139 c 0,62,63
 1233 954 1233 954 1047 852 c 1,64,65
 1097 830 1097 830 1132 793 c 0,66,67
 1225 693 1225 693 1225 546 c 0,68,69
 1225 499 1225 499 1218 457 c 0,70,71
 1184 250 1184 250 1007.5 115 c 128,-1,38
 831 -20 831 -20 621 -20 c 128,-1,39
EndSplineSet
Validated: 1
EndChar

StartChar: nine
Encoding: 57 57 28
Width: 1300
GlyphClass: 2
Flags: W
HStem: -20 180<509.487 842.915> 542 180<640.939 956.94> 1350 180<755.819 1070.83>
VStem: 228 190<249.221 367> 332 212<821.48 1137.56> 1167 205<937.926 1255.92>
DStem2: 935.524 -20 1136 -20 0.207912 0.978148<307.953 703.42 897.932 1155.27>
LayerCount: 2
Fore
SplineSet
923 1350 m 0,0,1
 798 1350 798 1350 689 1260 c 0,2,3
 581 1171 581 1171 552 1036 c 16,4,5
 544 998 544 998 544 963 c 0,6,7
 544 876 544 876 594 812 c 0,8,9
 664 722 664 722 789 722 c 128,-1,10
 914 722 914 722 1022 811 c 0,11,12
 1129 899 1129 899 1158 1036 c 0,13,14
 1167 1077 1167 1077 1167 1113 c 0,15,16
 1167 1200 1167 1200 1118 1262 c 0,17,18
 1049 1350 1049 1350 923 1350 c 0,0,1
652 -20 m 0,19,20
 436 -20 436 -20 319 121 c 0,21,22
 229 231 229 231 228 367 c 1,23,-1
 415 448 l 1,24,-1
 425 448 l 1,25,26
 418 414 418 414 418 382 c 0,27,28
 418 298 418 298 470 240 c 0,29,30
 542 160 542 160 669 160 c 128,-1,31
 796 160 796 160 902 240.5 c 128,-1,32
 1008 321 1008 321 1035 448 c 2,33,-1
 1082 668 l 1,34,35
 950 542 950 542 771 542 c 0,36,37
 560 542 560 542 432 683 c 0,38,39
 332 794 332 794 332 948 c 0,40,41
 332 990 332 990 340 1036 c 8,42,43
 375 1248 375 1248 552.5 1389 c 128,-1,44
 730 1530 730 1530 940.5 1530 c 128,-1,45
 1151 1530 1151 1530 1278 1389 c 0,46,47
 1372 1285 1372 1285 1372 1142 c 0,48,49
 1372 1091 1372 1091 1360 1036 c 2,50,-1
 1241 474 l 2,51,52
 1192 243 1192 243 1039 121 c 0,53,54
 862 -20 862 -20 652 -20 c 0,19,20
EndSplineSet
Validated: 1
EndChar

StartChar: colon
Encoding: 58 58 29
Width: 340
GlyphClass: 2
Flags: W
HStem: -20 245<116.711 267.42> 632 245<254.711 405.42>
VStem: 69 246<27.5918 176.764> 207 246<679.592 828.764>
LayerCount: 2
Fore
SplineSet
356 877 m 0,0,1
 408 877 408 877 434 841 c 0,2,3
 453 816 453 816 453 782 c 0,4,5
 453 768 453 768 450 754 c 0,6,7
 439 704 439 704 396.5 668 c 128,-1,8
 354 632 354 632 304 632 c 128,-1,9
 254 632 254 632 226 668 c 0,10,11
 207 693 207 693 207 727 c 0,12,13
 207 740 207 740 210 754 c 0,14,15
 221 804 221 804 263.5 840.5 c 128,-1,16
 306 877 306 877 356 877 c 0,0,1
166 -20 m 128,-1,18
 116 -20 116 -20 88 16 c 0,19,20
 69 41 69 41 69 75 c 0,21,22
 69 88 69 88 72 102 c 0,23,24
 83 152 83 152 125.5 188.5 c 128,-1,25
 168 225 168 225 218 225 c 0,26,27
 270 225 270 225 296 189 c 0,28,29
 315 163 315 163 315 130 c 0,30,31
 315 116 315 116 312 102 c 0,32,33
 301 52 301 52 258.5 16 c 128,-1,17
 216 -20 216 -20 166 -20 c 128,-1,18
EndSplineSet
Validated: 1
EndChar

StartChar: semicolon
Encoding: 59 59 30
Width: 389
GlyphClass: 2
Flags: W
HStem: 632 245<274.711 425.42>
VStem: 187 166<-64.7295 154.218> 227 246<679.592 828.764>
LayerCount: 2
Fore
SplineSet
376 877 m 0,0,1
 428 877 428 877 454 841 c 0,2,3
 473 816 473 816 473 782 c 0,4,5
 473 768 473 768 470 754 c 0,6,7
 459 704 459 704 416.5 668 c 128,-1,8
 374 632 374 632 324 632 c 128,-1,9
 274 632 274 632 246 668 c 0,10,11
 227 693 227 693 227 727 c 0,12,13
 227 740 227 740 230 754 c 0,14,15
 241 804 241 804 283.5 840.5 c 128,-1,16
 326 877 326 877 376 877 c 0,0,1
279 278 m 1,17,-1
 289 278 l 1,18,19
 353 198 353 198 353 101 c 0,20,21
 353 68 353 68 346 34 c 0,22,23
 304 -163 304 -163 55 -276 c 1,24,-1
 50 -269 l 1,25,26
 155 -139 155 -139 182 -10 c 0,27,28
 187 14 187 14 187 37 c 0,29,30
 187 134 187 134 92 198 c 1,31,-1
 279 278 l 1,17,-1
EndSplineSet
Validated: 1
EndChar

StartChar: less
Encoding: 60 60 31
Width: 1315
GlyphClass: 2
Flags: W
DStem2: 589 736 295 680 0.933865 -0.357626<0 637.463> 392 830 589 736 0.945717 0.324992<155.757 940.972>
LayerCount: 2
Fore
SplineSet
295 680 m 1,0,-1
 297 690 l 1,1,-1
 392 830 l 1,2,-1
 1297 1141 l 1,3,-1
 1335 1000 l 1,4,-1
 1332 990 l 1,5,-1
 589 736 l 1,6,-1
 1222 505 l 1,7,-1
 1220 495 l 1,8,-1
 1128 361 l 1,9,-1
 295 680 l 1,0,-1
EndSplineSet
Validated: 1
EndChar

StartChar: equal
Encoding: 61 61 32
Width: 1200
GlyphClass: 2
Flags: W
HStem: 480 150<350 1086> 880 150<435 1171>
LayerCount: 2
Fore
SplineSet
435 1030 m 1,0,-1
 1269 1030 l 1,1,-1
 1267 1020 l 1,2,-1
 1171 880 l 1,3,-1
 337 880 l 1,4,-1
 339 890 l 1,5,-1
 435 1030 l 1,0,-1
350 630 m 1,6,-1
 1184 630 l 1,7,-1
 1182 620 l 1,8,-1
 1086 480 l 1,9,-1
 252 480 l 1,10,-1
 254 490 l 1,11,-1
 350 630 l 1,6,-1
EndSplineSet
Validated: 1
EndChar

StartChar: greater
Encoding: 62 62 33
Width: 1315
GlyphClass: 2
Flags: W
DStem2: 304 520 339 369 0.945717 0.324992<0 785.216> 508 1149 414 1005 0.933865 -0.357626<0 637.463>
LayerCount: 2
Fore
SplineSet
1341 830 m 1,0,-1
 1339 820 l 1,1,-1
 1244 680 l 1,2,-1
 339 369 l 1,3,-1
 301 510 l 1,4,-1
 304 520 l 1,5,-1
 1047 774 l 1,6,-1
 414 1005 l 1,7,-1
 416 1015 l 1,8,-1
 508 1149 l 1,9,-1
 1341 830 l 1,0,-1
EndSplineSet
Validated: 1
EndChar

StartChar: question
Encoding: 63 63 34
Width: 1300
GlyphClass: 2
Flags: W
HStem: -20 245<571.58 722.42> 1350 180<767.458 1098.65>
VStem: 367 201<901.555 1155.19> 524 246<27.5918 176.764> 1184 202<967.331 1265.68>
LayerCount: 2
Fore
SplineSet
1386 1166 m 0,0,1
 1386 1089 1386 1089 1371 1027 c 0,2,3
 1306 753 1306 753 947 591 c 0,4,5
 847 546 847 546 828 454 c 1,6,-1
 615 361 l 1,7,-1
 605 361 l 1,8,9
 664 652 664 652 892 751 c 0,10,11
 1120 851 1120 851 1174 1057 c 0,12,13
 1184 1095 1184 1095 1184 1134 c 0,14,15
 1184 1198 1184 1198 1153 1247 c 0,16,17
 1088 1350 1088 1350 942 1350 c 0,18,19
 798 1350 798 1350 685 1249 c 0,20,21
 598 1171 598 1171 573 1047 c 0,22,23
 568 1022 568 1022 568 998 c 0,24,25
 568 956 568 956 583 914 c 1,26,-1
 398 833 l 1,27,-1
 388 833 l 1,28,29
 367 893 367 893 367 965 c 0,30,31
 367 1015 367 1015 377 1070 c 0,32,33
 411 1256 411 1256 559 1385 c 0,34,35
 727 1530 727 1530 960 1530 c 0,36,37
 1177 1530 1177 1530 1304 1385 c 0,38,39
 1386 1291 1386 1291 1386 1166 c 0,0,1
621 -20 m 0,40,41
 572 -20 572 -20 544 16 c 0,42,43
 524 42 524 42 524 75 c 0,44,45
 524 88 524 88 527 102 c 0,46,47
 538 152 538 152 580.5 188.5 c 128,-1,48
 623 225 623 225 673 225 c 0,49,50
 722 225 722 225 750 189 c 0,51,52
 770 163 770 163 770 130 c 0,53,54
 770 116 770 116 767 102 c 0,55,56
 756 52 756 52 713.5 16 c 128,-1,57
 671 -20 671 -20 621 -20 c 0,40,41
EndSplineSet
Validated: 1
EndChar

StartChar: at
Encoding: 64 64 35
Width: 1380
GlyphClass: 2
Flags: W
HStem: -430 160<473.905 594> -20 158<823.031 1006> 514 155<871.39 1129> 960 160<706.824 1063.92>
VStem: 183 180<-166.891 220.312> 586 179<192.66 416.035> 1166 177<669.888 861.69>
DStem2: 88.7217 -430 268.973 -430 0.207912 0.978148<455.225 1315.65> 928.268 -430 1108.72 -430 0.207912 0.978148<572.913 965.106 1122.96 1185.12>
LayerCount: 2
Fore
SplineSet
1006 -20 m 1,0,-1
 945 -20 l 2,1,2
 767 -20 767 -20 671 70 c 0,3,4
 586 151 586 151 586 278 c 0,5,6
 586 303 586 303 589 330 c 0,7,8
 607 475 607 475 745 573 c 0,9,10
 881 669 881 669 1076 669 c 2,11,-1
 1159 669 l 1,12,13
 1166 702 1166 702 1166 732 c 0,14,15
 1166 808 1166 808 1120 865 c 0,16,17
 1044 960 1044 960 893 960 c 0,18,19
 750 960 750 960 640 873 c 0,20,21
 527 785 527 785 496 640 c 2,22,-1
 371 50 l 2,23,24
 363 11 363 11 363 -24 c 0,25,26
 363 -109 363 -109 411 -171 c 0,27,28
 489 -270 489 -270 628 -270 c 2,29,-1
 699 -270 l 1,30,-1
 696 -280 l 1,31,-1
 594 -430 l 1,32,33
 376 -430 376 -430 264 -285 c 0,34,35
 183 -178 183 -178 183 -41 c 0,36,37
 183 12 183 12 195 70 c 2,38,-1
 312 620 l 2,39,40
 363 858 363 858 502 975 c 0,41,42
 675 1120 675 1120 908 1120 c 0,43,44
 1146 1120 1146 1120 1257 975 c 0,45,46
 1343 863 1343 863 1343 724 c 0,47,48
 1343 674 1343 674 1332 620 c 2,49,-1
 1215 70 l 1,50,-1
 1006 -20 l 1,0,-1
1129 514 m 1,51,52
 958 514 958 514 874 471 c 128,-1,53
 790 428 790 428 769 327 c 0,54,55
 765 306 765 306 765 288 c 0,56,57
 765 237 765 237 797 202 c 0,58,59
 854 138 854 138 1049 138 c 1,60,-1
 1129 514 l 1,51,52
EndSplineSet
Validated: 1
EndChar

StartChar: A
Encoding: 65 65 36
Width: 1370
GlyphClass: 2
Flags: W
HStem: -20 21G<176 232.444 986 1042.44> 665 180<560 1131> 1350 180<798.893 1131.3>
VStem: 1223 199<1003.3 1259.66>
DStem2: 176 -20 375.87 -20 0.207912 0.978148<133.566 741.761 925.936 1316.03> 986 -20 1185.87 -20 0.207912 0.978148<133.566 700.178 884.353 1171.24>
LayerCount: 2
Fore
SplineSet
176 -20 m 1,0,-1
 400 1036 l 2,1,2
 448 1267 448 1267 602 1389 c 0,3,4
 780 1530 780 1530 990.5 1530 c 128,-1,5
 1201 1530 1201 1530 1328 1389 c 0,6,7
 1422 1285 1422 1285 1422 1142 c 0,8,9
 1422 1091 1422 1091 1410 1036 c 2,10,-1
 1205 70 l 1,11,-1
 996 -20 l 1,12,-1
 986 -20 l 1,13,-1
 1131 665 l 1,14,-1
 521 665 l 1,15,-1
 395 70 l 1,16,-1
 186 -20 l 1,17,-1
 176 -20 l 1,0,-1
1170 845 m 1,18,-1
 1216 1062 l 2,19,20
 1223 1097 1223 1097 1223 1128 c 0,21,22
 1223 1212 1223 1212 1171 1270 c 0,23,24
 1099 1350 1099 1350 972.5 1350 c 128,-1,25
 846 1350 846 1350 739.5 1269.5 c 128,-1,26
 633 1189 633 1189 606 1062 c 2,27,-1
 560 845 l 1,28,-1
 1170 845 l 1,18,-1
EndSplineSet
Validated: 1
EndChar

StartChar: B
Encoding: 66 66 37
Width: 1250
GlyphClass: 2
Flags: W
HStem: 0 180<438 887.306> 746 180<597 994.02> 1330 180<683 1079.58>
VStem: 1076 201<362.238 665.549> 1125 202<1035.5 1280.85>
DStem2: 200 0 399.74 0 0.207912 0.978148<225.55 804.338 988.306 1401.36>
LayerCount: 2
Fore
SplineSet
597 926 m 1,0,-1
 862 926 l 2,1,2
 954 926 954 926 1023 977 c 0,3,4
 1100 1034 1100 1034 1120 1127 c 0,5,6
 1125 1153 1125 1153 1125 1176 c 0,7,8
 1125 1237 1125 1237 1087 1279 c 0,9,10
 1040 1330 1040 1330 948 1330 c 2,11,-1
 683 1330 l 1,12,-1
 597 926 l 1,0,-1
438 180 m 1,13,-1
 703 180 l 2,14,15
 859 180 859 180 963 275 c 0,16,17
 1044 348 1044 348 1068 463 c 0,18,19
 1076 500 1076 500 1076 533 c 0,20,21
 1076 600 1076 600 1043 651 c 0,22,23
 982 746 982 746 824 746 c 2,24,-1
 559 746 l 1,25,-1
 438 180 l 1,13,-1
200 0 m 1,26,-1
 506 1440 l 1,27,-1
 669 1510 l 1,28,-1
 966 1510 l 2,29,30
 1130 1510 1130 1510 1227 1418 c 0,31,32
 1327 1324 1327 1324 1327 1197 c 0,33,34
 1327 1170 1327 1170 1322 1141 c 0,35,36
 1288 938 1288 938 1103 838 c 1,37,38
 1156 814 1156 814 1189 777 c 0,39,40
 1277 679 1277 679 1277 543 c 0,41,42
 1277 490 1277 490 1264 430 c 0,43,44
 1222 244 1222 244 1091 137 c 0,45,46
 925 0 925 0 685 0 c 2,47,-1
 200 0 l 1,26,-1
EndSplineSet
Validated: 1
EndChar

StartChar: C
Encoding: 67 67 38
Width: 1250
GlyphClass: 2
Flags: W
HStem: -20 180<540.212 877.625> 1350 180<778.893 1110.66>
VStem: 249 199<250.34 511.785> 1203 190<1143 1259.42>
DStem2: 155.997 -20 355.524 -20 0.207912 0.978148<454.905 1316.03>
LayerCount: 2
Fore
SplineSet
681.5 -20 m 128,-1,1
 471 -20 471 -20 344 121 c 0,2,3
 250 225 250 225 249 368 c 0,4,5
 249 418 249 418 261 474 c 2,6,-1
 380 1036 l 2,7,8
 428 1267 428 1267 582 1389 c 0,9,10
 760 1530 760 1530 970.5 1530 c 128,-1,11
 1181 1530 1181 1530 1298 1389 c 0,12,13
 1392 1276 1392 1276 1393 1143 c 1,14,-1
 1206 1062 l 1,15,-1
 1196 1062 l 1,16,17
 1203 1097 1203 1097 1203 1128 c 0,18,19
 1203 1212 1203 1212 1151 1270 c 0,20,21
 1079 1350 1079 1350 952.5 1350 c 128,-1,22
 826 1350 826 1350 719.5 1269.5 c 128,-1,23
 613 1189 613 1189 586 1062 c 18,24,-1
 455 448 l 2,25,26
 448 414 448 414 448 382 c 0,27,28
 448 298 448 298 500 240 c 0,29,30
 572 160 572 160 699 160 c 128,-1,31
 826 160 826 160 932 240 c 0,32,33
 1007 297 1007 297 1044 380 c 1,34,-1
 1261 474 l 1,35,-1
 1271 474 l 1,36,37
 1222 243 1222 243 1069 121 c 0,38,0
 892 -20 892 -20 681.5 -20 c 128,-1,1
EndSplineSet
Validated: 1
EndChar

StartChar: D
Encoding: 68 68 39
Width: 1350
GlyphClass: 2
Flags: W
HStem: 0 180<438 895.122> 1330 180<683 1125.52>
VStem: 1218 198<870.391 1239.32>
DStem2: 200 0 399.74 0 0.207912 0.978148<225.55 1401.36> 989.524 0 1190 0 0.207912 0.978148<309.484 1130.34>
LayerCount: 2
Fore
SplineSet
438 180 m 1,0,-1
 723 180 l 2,1,2
 848 180 848 180 955 260 c 128,-1,3
 1062 340 1062 340 1089 468 c 18,4,-1
 1211 1042 l 2,5,6
 1218 1077 1218 1077 1218 1108 c 0,7,8
 1218 1192 1218 1192 1166 1250 c 0,9,10
 1094 1330 1094 1330 968 1330 c 2,11,-1
 683 1330 l 1,12,-1
 438 180 l 1,0,-1
200 0 m 1,13,-1
 506 1440 l 1,14,-1
 669 1510 l 1,15,-1
 986 1510 l 2,16,17
 1197 1510 1197 1510 1314 1369 c 0,18,19
 1416 1247 1416 1247 1416 1105 c 0,20,21
 1416 1061 1416 1061 1406 1016 c 2,22,-1
 1295 494 l 2,23,24
 1246 265 1246 265 1092 141 c 0,25,26
 916 0 916 0 705 0 c 2,27,-1
 200 0 l 1,13,-1
EndSplineSet
Validated: 1
EndChar

StartChar: E
Encoding: 69 69 40
Width: 1060
GlyphClass: 2
Flags: W
HStem: 0 180<438 930> 665 180<580 1021> 1330 180<683 1163>
DStem2: 200 0 399.74 0 0.207912 0.978148<225.55 721.366 905.541 1401.36>
CounterMasks: 1 e0
LayerCount: 2
Fore
SplineSet
200 0 m 1,0,-1
 506 1440 l 1,1,-1
 669 1510 l 1,2,-1
 1281 1510 l 1,3,-1
 1279 1500 l 1,4,-1
 1163 1330 l 1,5,-1
 683 1330 l 1,6,-1
 580 845 l 1,7,-1
 1140 845 l 1,8,-1
 1137 835 l 1,9,-1
 1021 665 l 1,10,-1
 541 665 l 1,11,-1
 438 180 l 1,12,-1
 1048 180 l 1,13,-1
 1046 170 l 1,14,-1
 930 0 l 1,15,-1
 200 0 l 1,0,-1
EndSplineSet
Validated: 1
EndChar

StartChar: F
Encoding: 70 70 41
Width: 1010
GlyphClass: 2
Flags: W
HStem: -20 21G<196 252.444> 665 180<580 1021> 1330 180<683 1163>
DStem2: 196 -20 395.87 -20 0.207912 0.978148<133.566 741.761 925.936 1421.75>
LayerCount: 2
Fore
SplineSet
196 -20 m 1,0,-1
 506 1440 l 1,1,-1
 669 1510 l 1,2,-1
 1281 1510 l 1,3,-1
 1279 1500 l 1,4,-1
 1163 1330 l 1,5,-1
 683 1330 l 1,6,-1
 580 845 l 1,7,-1
 1140 845 l 1,8,-1
 1137 835 l 1,9,-1
 1021 665 l 1,10,-1
 541 665 l 1,11,-1
 415 70 l 1,12,-1
 206 -20 l 1,13,-1
 196 -20 l 1,0,-1
EndSplineSet
Validated: 1
EndChar

StartChar: G
Encoding: 71 71 42
Width: 1330
GlyphClass: 2
Flags: W
HStem: -20 180<540.545 872.915> 665 180<882 1111> 1350 180<778.893 1110.66>
VStem: 249 199<250.34 511.785> 1203 190<1143 1258.93>
DStem2: 155.997 -20 355.524 -20 0.207912 0.978148<454.905 1316.03> 965.524 -20 1166 -20 0.207912 0.978148<307.953 700.277>
CounterMasks: 1 e0
LayerCount: 2
Fore
SplineSet
682 -20 m 128,-1,1
 472 -20 472 -20 344 121 c 0,2,3
 250 225 250 225 249 368 c 0,4,5
 249 418 249 418 261 474 c 2,6,-1
 380 1036 l 2,7,8
 428 1267 428 1267 582 1389 c 0,9,10
 760 1530 760 1530 970.5 1530 c 128,-1,11
 1181 1530 1181 1530 1298 1389 c 0,12,13
 1392 1275 1392 1275 1393 1143 c 1,14,-1
 1206 1062 l 1,15,-1
 1196 1062 l 1,16,17
 1203 1097 1203 1097 1203 1128 c 0,18,19
 1203 1212 1203 1212 1151 1270 c 0,20,21
 1079 1350 1079 1350 952.5 1350 c 128,-1,22
 826 1350 826 1350 719.5 1269.5 c 128,-1,23
 613 1189 613 1189 586 1062 c 18,24,-1
 455 448 l 2,25,26
 448 414 448 414 448 382 c 0,27,28
 448 298 448 298 500 240 c 0,29,30
 572 160 572 160 699 160 c 128,-1,31
 826 160 826 160 932 240.5 c 128,-1,32
 1038 321 1038 321 1065 448 c 18,33,-1
 1111 665 l 1,34,-1
 763 665 l 1,35,-1
 765 675 l 1,36,-1
 882 845 l 1,37,-1
 1350 845 l 1,38,-1
 1271 474 l 2,39,40
 1222 243 1222 243 1069 121 c 0,41,0
 892 -20 892 -20 682 -20 c 128,-1,1
EndSplineSet
Validated: 1
EndChar

StartChar: H
Encoding: 72 72 43
Width: 1400
GlyphClass: 2
Flags: W
HStem: -20 21G<196 252.444 996 1052.44> 665 180<580 1141> 1510 20G<668.556 725 1468.56 1525>
DStem2: 196 -20 395.87 -20 0.207912 0.978148<133.566 741.761 925.936 1492.55> 996 -20 1195.87 -20 0.207912 0.978148<133.566 700.178 884.353 1492.55>
LayerCount: 2
Fore
SplineSet
196 -20 m 1,0,-1
 506 1440 l 1,1,-1
 715 1530 l 1,2,-1
 725 1530 l 1,3,-1
 580 845 l 1,4,-1
 1180 845 l 1,5,-1
 1306 1440 l 1,6,-1
 1515 1530 l 1,7,-1
 1525 1530 l 1,8,-1
 1215 70 l 1,9,-1
 1006 -20 l 1,10,-1
 996 -20 l 1,11,-1
 1141 665 l 1,12,-1
 541 665 l 1,13,-1
 415 70 l 1,14,-1
 206 -20 l 1,15,-1
 196 -20 l 1,0,-1
EndSplineSet
Validated: 1
EndChar

StartChar: I
Encoding: 73 73 44
Width: 600
GlyphClass: 2
Flags: W
HStem: -20 21G<196 252.444> 1510 20G<668.556 725>
VStem: 196 529
DStem2: 196 -20 395.87 -20 0.207912 0.978148<133.566 1492.55>
LayerCount: 2
Fore
SplineSet
196 -20 m 1,0,-1
 506 1440 l 1,1,-1
 715 1530 l 1,2,-1
 725 1530 l 1,3,-1
 415 70 l 1,4,-1
 206 -20 l 1,5,-1
 196 -20 l 1,0,-1
EndSplineSet
Validated: 1
EndChar

StartChar: J
Encoding: 74 74 45
Width: 1150
GlyphClass: 2
Flags: W
HStem: -20 180<378.16 700.226> 1330 180<526 1073>
VStem: 97 190<251.071 367>
DStem2: 785.524 -20 985.997 -20 0.207912 0.978148<307.735 1380.27>
LayerCount: 2
Fore
SplineSet
514.5 -20 m 128,-1,1
 309 -20 309 -20 192 121 c 0,2,3
 98 235 98 235 97 367 c 1,4,-1
 284 448 l 1,5,-1
 294 448 l 1,6,7
 287 413 287 413 287 382 c 0,8,9
 287 298 287 298 339 240 c 0,10,11
 411 160 411 160 532.5 160 c 128,-1,12
 654 160 654 160 756 240.5 c 128,-1,13
 858 321 858 321 885 448 c 18,14,-1
 1073 1330 l 1,15,-1
 408 1330 l 1,16,-1
 410 1340 l 1,17,-1
 526 1510 l 1,18,-1
 1311 1510 l 1,19,-1
 1091 474 l 2,20,21
 1042 242 1042 242 893 121 c 0,22,0
 720 -20 720 -20 514.5 -20 c 128,-1,1
EndSplineSet
Validated: 1
EndChar

StartChar: K
Encoding: 75 75 46
Width: 1350
GlyphClass: 2
Flags: W
HStem: -20 21G<196 252.444 986 1042.44> 1510 20G<668.556 725 1299.17 1374.16>
VStem: 1122 197<522.12 782.071>
DStem2: 196 -20 395.87 -20 0.207912 0.978148<133.566 835.684 1081.06 1492.55> 611 997 653.5 793.5 0.801746 0.597665<0 101.693 300.48 891.804> 986 -20 1185.87 -20 0.207912 0.978148<133.566 684.642>
LayerCount: 2
Fore
SplineSet
196 -20 m 1,0,-1
 506 1440 l 1,1,-1
 715 1530 l 1,2,-1
 725 1530 l 1,3,-1
 611 997 l 9,4,-1
 1326 1530 l 1,5,-1
 1336 1530 l 1,6,-1
 1502 1443 l 1,7,-1
 950 1045 l 1,8,9
 1121 1035 1121 1035 1220 915 c 0,10,11
 1319 796 1319 796 1319 654 c 0,12,13
 1319 608 1319 608 1309 560 c 2,14,-1
 1205 70 l 1,15,-1
 996 -20 l 1,16,-1
 986 -20 l 1,17,-1
 1115 586 l 2,18,19
 1122 621 1122 621 1122 652 c 0,20,21
 1122 736 1122 736 1070 794 c 0,22,23
 998 874 998 874 876.5 874 c 128,-1,24
 755 874 755 874 653.5 793.5 c 128,-1,25
 552 713 552 713 525 586 c 2,26,-1
 415 70 l 1,27,-1
 206 -20 l 1,28,-1
 196 -20 l 1,0,-1
EndSplineSet
Validated: 1
EndChar

StartChar: L
Encoding: 76 76 47
Width: 1020
GlyphClass: 2
Flags: W
HStem: 0 180<438 930> 1510 20G<668.556 725>
DStem2: 200 0 399.74 0 0.207912 0.978148<225.55 1472.15>
LayerCount: 2
Fore
SplineSet
200 0 m 1,0,-1
 506 1440 l 1,1,-1
 715 1530 l 1,2,-1
 725 1530 l 1,3,-1
 438 180 l 1,4,-1
 1048 180 l 1,5,-1
 1046 170 l 1,6,-1
 930 0 l 1,7,-1
 200 0 l 1,0,-1
EndSplineSet
Validated: 1
EndChar

StartChar: M
Encoding: 77 77 48
Width: 2180
GlyphClass: 2
Flags: W
HStem: -20 21G<176 232.444 986 1042.44 1796 1852.44> 1350 180<798.893 1130.66 1608.08 1941.41>
VStem: 2033 199<996.55 1259.66>
DStem2: 176 -20 375.87 -20 0.207912 0.978148<133.566 1316.03> 986 -20 1185.87 -20 0.207912 0.978148<133.566 1171.24> 1796 -20 1995.87 -20 0.207912 0.978148<133.566 1171.24>
LayerCount: 2
Fore
SplineSet
176 -20 m 1,0,-1
 400 1036 l 2,1,2
 448 1267 448 1267 602 1389 c 0,3,4
 780 1530 780 1530 990.5 1530 c 128,-1,5
 1201 1530 1201 1530 1318 1389 c 0,6,7
 1339 1364 1339 1364 1354 1337 c 1,8,9
 1378 1361 1378 1361 1413 1389 c 0,10,11
 1586 1530 1586 1530 1801 1530 c 0,12,13
 2011 1530 2011 1530 2138 1389 c 0,14,15
 2232 1285 2232 1285 2232 1142 c 0,16,17
 2232 1091 2232 1091 2220 1036 c 2,18,-1
 2015 70 l 1,19,-1
 1806 -20 l 1,20,-1
 1796 -20 l 1,21,-1
 2026 1062 l 2,22,23
 2033 1097 2033 1097 2033 1128 c 0,24,25
 2033 1212 2033 1212 1981 1270 c 0,26,27
 1909 1350 1909 1350 1782.5 1350 c 128,-1,28
 1656 1350 1656 1350 1549.5 1269.5 c 128,-1,29
 1443 1189 1443 1189 1416 1062 c 2,30,-1
 1205 70 l 1,31,-1
 996 -20 l 1,32,-1
 986 -20 l 1,33,-1
 1216 1062 l 2,34,35
 1223 1097 1223 1097 1223 1128 c 0,36,37
 1223 1212 1223 1212 1171 1270 c 0,38,39
 1099 1350 1099 1350 972.5 1350 c 128,-1,40
 846 1350 846 1350 739.5 1269.5 c 128,-1,41
 633 1189 633 1189 606 1062 c 2,42,-1
 395 70 l 1,43,-1
 186 -20 l 1,44,-1
 176 -20 l 1,0,-1
EndSplineSet
Validated: 1
EndChar

StartChar: N
Encoding: 78 78 49
Width: 1370
GlyphClass: 2
Flags: W
HStem: -20 21G<176 232.444 986 1042.44> 1350 180<798.893 1131.3>
VStem: 1223 199<996.55 1259.66>
DStem2: 176 -20 375.87 -20 0.207912 0.978148<133.566 1316.03> 986 -20 1185.87 -20 0.207912 0.978148<133.566 1171.24>
LayerCount: 2
Fore
SplineSet
176 -20 m 9,0,-1
 400 1036 l 2,1,2
 448 1267 448 1267 602 1389 c 0,3,4
 780 1530 780 1530 990.5 1530 c 128,-1,5
 1201 1530 1201 1530 1328 1389 c 0,6,7
 1422 1285 1422 1285 1422 1142 c 0,8,9
 1422 1091 1422 1091 1410 1036 c 2,10,-1
 1205 70 l 17,11,-1
 996 -20 l 1,12,-1
 986 -20 l 9,13,-1
 1216 1062 l 2,14,15
 1223 1097 1223 1097 1223 1128 c 0,16,17
 1223 1212 1223 1212 1171 1270 c 0,18,19
 1099 1350 1099 1350 972.5 1350 c 128,-1,20
 846 1350 846 1350 739.5 1269.5 c 128,-1,21
 633 1189 633 1189 606 1062 c 18,22,-1
 395 70 l 17,23,-1
 186 -20 l 1,24,-1
 176 -20 l 9,0,-1
EndSplineSet
Validated: 1
EndChar

StartChar: O
Encoding: 79 79 50
Width: 1330
GlyphClass: 2
Flags: W
HStem: -20 180<540.244 872.88> 1350 180<778.893 1111.3>
VStem: 249 199<249.781 621.984> 1203 199<888.016 1260.22>
DStem2: 155.997 -20 355.524 -20 0.207912 0.978148<454.905 1316.03> 965.524 -20 1166 -20 0.207912 0.978148<307.953 1171.34>
LayerCount: 2
Fore
SplineSet
700 160 m 0,0,1
 826 160 826 160 932 240.5 c 128,-1,2
 1038 321 1038 321 1065 448 c 18,3,-1
 1196 1062 l 2,4,5
 1203 1097 1203 1097 1203 1128 c 0,6,7
 1203 1212 1203 1212 1151 1270 c 0,8,9
 1079 1350 1079 1350 952.5 1350 c 128,-1,10
 826 1350 826 1350 719.5 1269.5 c 128,-1,11
 613 1189 613 1189 586 1062 c 18,12,-1
 455 448 l 2,13,14
 448 414 448 414 448 382 c 0,15,16
 448 298 448 298 500 240 c 0,17,18
 572 160 572 160 700 160 c 0,0,1
681.5 -20 m 128,-1,20
 471 -20 471 -20 344 121 c 0,21,22
 250 225 250 225 249 368 c 0,23,24
 249 418 249 418 261 474 c 2,25,-1
 380 1036 l 2,26,27
 428 1267 428 1267 582 1389 c 0,28,29
 760 1530 760 1530 970.5 1530 c 128,-1,30
 1181 1530 1181 1530 1308 1389 c 0,31,32
 1402 1285 1402 1285 1402 1142 c 0,33,34
 1402 1091 1402 1091 1390 1036 c 2,35,-1
 1271 474 l 2,36,37
 1222 243 1222 243 1069 121 c 0,38,19
 892 -20 892 -20 681.5 -20 c 128,-1,20
EndSplineSet
Validated: 1
EndChar

StartChar: P
Encoding: 80 80 51
Width: 1210
GlyphClass: 2
Flags: W
HStem: -20 21G<196 252.444> 500 180<545 984.614> 1330 180<683 1099.65>
VStem: 1182 196<891.28 1245.66>
DStem2: 196 -20 395.87 -20 0.207912 0.978148<133.566 573.089 757.265 1421.75>
LayerCount: 2
Fore
SplineSet
545 680 m 1,0,-1
 817 680 l 2,1,2
 957 680 957 680 1056 776 c 0,3,4
 1146 863 1146 863 1174 1004 c 0,5,6
 1182 1044 1182 1044 1182 1080 c 0,7,8
 1182 1173 1182 1173 1147 1232 c 0,9,10
 1090 1330 1090 1330 955 1330 c 2,11,-1
 683 1330 l 1,12,-1
 545 680 l 1,0,-1
196 -20 m 1,13,-1
 506 1440 l 1,14,-1
 669 1510 l 1,15,-1
 967 1510 l 2,16,17
 1188 1510 1188 1510 1294 1364 c 0,18,19
 1377 1250 1377 1250 1378 1079 c 0,20,21
 1378 1042 1378 1042 1374 1004 c 0,22,23
 1350 781 1350 781 1187 644 c 0,24,25
 1017 500 1017 500 792 500 c 2,26,-1
 506 500 l 1,27,-1
 415 70 l 1,28,-1
 206 -20 l 1,29,-1
 196 -20 l 1,13,-1
EndSplineSet
Validated: 1
EndChar

StartChar: Q
Encoding: 81 81 52
Width: 1330
GlyphClass: 2
Flags: W
HStem: -20 180<541.878 797.059> 1350 180<778.893 1111.3>
VStem: 251 197<252.629 511.785> 1203 199<998.215 1259.66>
DStem2: 151.746 -40 351.272 -40 0.207912 0.978148<476.3 1336.48> 865 540 661 457 0.436318 -0.899793<0 277.743 467.804 538.023> 961.272 -40 1161.75 -40 0.207912 0.978148<339.683 1191.79>
LayerCount: 2
Fore
SplineSet
682 -20 m 0,0,1
 472 -20 472 -20 354 121 c 0,2,3
 251 244 251 244 251 385 c 0,4,5
 251 428 251 428 261 474 c 2,6,-1
 380 1036 l 2,7,8
 428 1267 428 1267 582 1389 c 0,9,10
 760 1530 760 1530 970.5 1530 c 128,-1,11
 1181 1530 1181 1530 1308 1389 c 0,12,13
 1402 1285 1402 1285 1402 1142 c 0,14,15
 1402 1091 1402 1091 1390 1036 c 2,16,-1
 1271 474 l 2,17,18
 1228 271 1228 271 1063 132 c 1,19,-1
 1106 43 l 1,20,-1
 912 -40 l 1,21,-1
 902 -40 l 1,22,-1
 874 19 l 1,23,24
 773 -20 773 -20 682 -20 c 0,0,1
661 457 m 1,25,-1
 855 540 l 1,26,-1
 865 540 l 1,27,-1
 986 290 l 1,28,29
 1046 357 1046 357 1065 448 c 2,30,-1
 1196 1062 l 2,31,32
 1203 1097 1203 1097 1203 1128 c 0,33,34
 1203 1212 1203 1212 1151 1270 c 0,35,36
 1079 1350 1079 1350 952.5 1350 c 128,-1,37
 826 1350 826 1350 719.5 1269.5 c 128,-1,38
 613 1189 613 1189 586 1062 c 2,39,-1
 455 448 l 2,40,41
 448 414 448 414 448 383 c 0,42,43
 448 299 448 299 501 240 c 0,44,45
 574 160 574 160 700 160 c 0,46,47
 751 160 751 160 799 173 c 1,48,-1
 661 457 l 1,25,-1
EndSplineSet
Validated: 1
EndChar

StartChar: R
Encoding: 82 82 53
Width: 1294
GlyphClass: 2
Flags: W
HStem: -20 21G<196 252.444 1018.5 1087.97> 500 180<545 756> 1330 180<683 1099.65>
VStem: 1182 196<891.865 1245.66>
DStem2: 196 -20 395.87 -20 0.207912 0.978148<133.566 573.089 757.265 1421.75> 974 526 756 500 0.464834 -0.885398<0 508.993>
LayerCount: 2
Fore
SplineSet
545 680 m 1,0,-1
 817 680 l 2,1,2
 957 680 957 680 1056 776 c 0,3,4
 1146 863 1146 863 1174 1004 c 0,5,6
 1182 1044 1182 1044 1182 1080 c 0,7,8
 1182 1173 1182 1173 1147 1232 c 0,9,10
 1090 1330 1090 1330 955 1330 c 2,11,-1
 683 1330 l 1,12,-1
 545 680 l 1,0,-1
206 -20 m 1,13,-1
 196 -20 l 1,14,-1
 506 1440 l 1,15,-1
 669 1510 l 1,16,-1
 967 1510 l 2,17,18
 1188 1510 1188 1510 1294 1364 c 0,19,20
 1377 1250 1377 1250 1378 1079 c 0,21,22
 1378 1042 1378 1042 1374 1004 c 0,23,24
 1350 784 1350 784 1187 644 c 0,25,26
 1090 561 1090 561 974 526 c 1,27,-1
 1230 58 l 1,28,-1
 1039 -20 l 1,29,-1
 1029 -20 l 1,30,-1
 756 500 l 1,31,-1
 506 500 l 1,32,-1
 415 70 l 1,33,-1
 206 -20 l 1,13,-1
EndSplineSet
Validated: 1
EndChar

StartChar: T
Encoding: 84 84 54
Width: 1070
GlyphClass: 2
Flags: W
HStem: -20 21G<431 487.444> 1330 180<411 718 918 1263>
DStem2: 431 -20 630.87 -20 0.207912 0.978148<133.566 1380.17>
LayerCount: 2
Fore
SplineSet
431 -20 m 1,0,-1
 718 1330 l 1,1,-1
 293 1330 l 1,2,-1
 295 1340 l 1,3,-1
 411 1510 l 1,4,-1
 1381 1510 l 1,5,-1
 1379 1500 l 1,6,-1
 1263 1330 l 1,7,-1
 918 1330 l 1,8,-1
 650 70 l 1,9,-1
 441 -20 l 1,10,-1
 431 -20 l 1,0,-1
EndSplineSet
Validated: 1
EndChar

StartChar: U
Encoding: 85 85 55
Width: 1370
GlyphClass: 2
Flags: W
HStem: -20 180<559.594 894.72> 1510 20G<648.556 705 1458.56 1515>
VStem: 269 199<250.34 513.45>
DStem2: 175.997 -20 375.524 -20 0.207912 0.978148<454.875 1492.55> 985.524 -20 1186 -20 0.207912 0.978148<310.185 1492.65>
LayerCount: 2
Fore
SplineSet
700 -20 m 128,-1,1
 490 -20 490 -20 363 121 c 0,2,3
 269 225 269 225 269 368 c 0,4,5
 269 419 269 419 281 474 c 2,6,-1
 486 1440 l 17,7,-1
 695 1530 l 1,8,-1
 705 1530 l 9,9,-1
 475 448 l 2,10,11
 468 413 468 413 468 382 c 0,12,13
 468 298 468 298 520 240 c 0,14,15
 592 160 592 160 718.5 160 c 128,-1,16
 845 160 845 160 951.5 240.5 c 128,-1,17
 1058 321 1058 321 1085 448 c 18,18,-1
 1296 1440 l 17,19,-1
 1505 1530 l 1,20,-1
 1515 1530 l 9,21,-1
 1291 474 l 2,22,23
 1242 243 1242 243 1088 121 c 0,24,0
 910 -20 910 -20 700 -20 c 128,-1,1
EndSplineSet
Validated: 1
EndChar

StartChar: V
Encoding: 86 86 56
Width: 1233
GlyphClass: 2
Flags: W
HStem: -20 21G<522.154 581.4> 1510 20G<439.784 498.885 1374.21 1434.11>
DStem2: 496 1530 315 1456 0.140858 -0.99003<47.7669 1225.56> 671 317 709 55 0.508791 0.86089<0 1408.05>
LayerCount: 2
Fore
SplineSet
525 -20 m 1,0,-1
 315 1456 l 1,1,-1
 486 1530 l 1,2,-1
 496 1530 l 1,3,-1
 671 317 l 1,4,-1
 1386 1530 l 1,5,-1
 1396 1530 l 1,6,-1
 1537 1456 l 1,7,-1
 709 55 l 1,8,-1
 535 -20 l 1,9,-1
 525 -20 l 1,0,-1
EndSplineSet
Validated: 1
EndChar

StartChar: W
Encoding: 87 87 57
Width: 2180
GlyphClass: 2
Flags: W
HStem: -20 180<559.594 892.922 1370.24 1704.72> 1510 20G<648.556 705 1458.56 1515 2268.56 2325>
VStem: 269 199<250.34 513.45>
DStem2: 175.997 -20 375.524 -20 0.207912 0.978148<454.875 1492.55> 985.524 -20 1185.52 -20 0.207912 0.978148<454.974 1492.65> 1795.52 -20 1996 -20 0.207912 0.978148<310.185 1492.65>
LayerCount: 2
Fore
SplineSet
700 -20 m 0,0,1
 490 -20 490 -20 363 121 c 0,2,3
 269 225 269 225 269 368 c 0,4,5
 269 419 269 419 281 474 c 2,6,-1
 486 1440 l 1,7,-1
 695 1530 l 1,8,-1
 705 1530 l 1,9,-1
 475 448 l 2,10,11
 468 413 468 413 468 382 c 0,12,13
 468 298 468 298 520 240 c 0,14,15
 592 160 592 160 718.5 160 c 128,-1,16
 845 160 845 160 951.5 240.5 c 128,-1,17
 1058 321 1058 321 1085 448 c 2,18,-1
 1296 1440 l 1,19,-1
 1505 1530 l 1,20,-1
 1515 1530 l 1,21,-1
 1285 448 l 2,22,23
 1278 413 1278 413 1278 382 c 0,24,25
 1278 298 1278 298 1330 240 c 0,26,27
 1402 160 1402 160 1528.5 160 c 128,-1,28
 1655 160 1655 160 1761.5 240.5 c 128,-1,29
 1868 321 1868 321 1895 448 c 2,30,-1
 2106 1440 l 1,31,-1
 2315 1530 l 1,32,-1
 2325 1530 l 1,33,-1
 2101 474 l 2,34,35
 2052 243 2052 243 1898 121 c 0,36,37
 1720 -20 1720 -20 1510 -20 c 128,-1,38
 1300 -20 1300 -20 1183 121 c 0,39,40
 1162 146 1162 146 1147 173 c 1,41,42
 1119 146 1119 146 1088 121 c 0,43,44
 915 -20 915 -20 700 -20 c 0,0,1
EndSplineSet
Validated: 1
EndChar

StartChar: X
Encoding: 88 88 58
Width: 1164
GlyphClass: 2
Flags: W
HStem: -20 21G<155.622 220.705 953.73 1018.57> 1510 20G<467.143 532.257 1263.39 1328.13>
DStem2: 52 54 204 -20 0.639569 0.768733<40.3283 831.211 1129.67 1920.04> 524 1530 350 1460 0.382131 -0.924108<0 657.773 942.892 1599.74>
LayerCount: 2
Fore
SplineSet
204 -20 m 1,0,-1
 194 -20 l 1,1,-1
 52 54 l 1,2,-1
 640 759 l 1,3,-1
 350 1460 l 1,4,-1
 514 1530 l 1,5,-1
 524 1530 l 1,6,-1
 775 922 l 1,7,-1
 1280 1530 l 1,8,-1
 1290 1530 l 1,9,-1
 1433 1455 l 1,10,-1
 846 749 l 1,11,-1
 1135 50 l 1,12,-1
 972 -20 l 1,13,-1
 962 -20 l 1,14,-1
 711 587 l 1,15,-1
 204 -20 l 1,0,-1
EndSplineSet
Validated: 1
EndChar

StartChar: Y
Encoding: 89 89 59
Width: 1230
GlyphClass: 2
Flags: W
HStem: -20 21G<511 567.444> 1510 20G<588.556 645 1378.56 1435>
VStem: 306 198<699.365 962.258>
DStem2: 115.347 -20 315.873 -20 0.207912 0.978148<915.136 1492.68> 511 -20 710.87 -20 0.207912 0.978148<133.566 475.083> 905.873 -20 1105.35 -20 0.207912 0.978148<770.238 1492.57>
LayerCount: 2
Fore
SplineSet
521 -20 m 1,0,-1
 511 -20 l 1,1,-1
 608 439 l 1,2,3
 486 477 486 477 408 571 c 0,4,5
 306 695 306 695 306 836 c 0,6,7
 306 879 306 879 316 924 c 2,8,-1
 426 1440 l 1,9,-1
 635 1530 l 1,10,-1
 645 1530 l 1,11,-1
 511 898 l 2,12,13
 504 863 504 863 504 832 c 0,14,15
 504 749 504 749 556 690 c 0,16,17
 628 610 628 610 744.5 610 c 128,-1,18
 861 610 861 610 967.5 690.5 c 128,-1,19
 1074 771 1074 771 1101 898 c 2,20,-1
 1216 1440 l 1,21,-1
 1425 1530 l 1,22,-1
 1435 1530 l 1,23,-1
 1306 924 l 2,24,25
 1257 695 1257 695 1103 571 c 0,26,27
 970 463 970 463 808 438 c 1,28,-1
 730 70 l 1,29,-1
 521 -20 l 1,0,-1
EndSplineSet
Validated: 1
EndChar

StartChar: Z
Encoding: 90 90 60
Width: 1040
GlyphClass: 2
Flags: W
HStem: 0 180<378 920> 1330 180<471 980>
DStem2: 42 10 378 180 0.580479 0.814275<333.468 1619.33>
LayerCount: 2
Fore
SplineSet
40 0 m 1,0,-1
 42 10 l 1,1,-1
 980 1330 l 1,2,-1
 353 1330 l 1,3,-1
 355 1340 l 1,4,-1
 471 1510 l 1,5,-1
 1321 1510 l 1,6,-1
 1319 1500 l 1,7,-1
 378 180 l 1,8,-1
 1038 180 l 1,9,-1
 1036 170 l 1,10,-1
 920 0 l 1,11,-1
 40 0 l 1,0,-1
EndSplineSet
Validated: 1
EndChar

StartChar: bracketleft
Encoding: 91 91 61
Width: 880
GlyphClass: 2
Flags: W
HStem: -240 180<387 699> 1570 180<762 1084>
DStem2: 149 -240 348.74 -240 0.207912 0.978148<225.55 1892.08>
LayerCount: 2
Fore
SplineSet
149 -240 m 1,0,-1
 553 1660 l 1,1,-1
 762 1750 l 1,2,-1
 1202 1750 l 1,3,-1
 1200 1740 l 1,4,-1
 1084 1570 l 1,5,-1
 734 1570 l 1,6,-1
 387 -60 l 1,7,-1
 817 -60 l 1,8,-1
 815 -70 l 1,9,-1
 699 -240 l 1,10,-1
 149 -240 l 1,0,-1
EndSplineSet
Validated: 1
EndChar

StartChar: backslash
Encoding: 92 92 62
Width: 1001
GlyphClass: 2
Flags: W
VStem: 361 600
DStem2: 502 1710 361 1652 0.240562 -0.970634<22.3775 1908.03>
LayerCount: 2
Fore
SplineSet
830 -200 m 1,0,-1
 820 -200 l 1,1,-1
 361 1652 l 1,2,-1
 492 1710 l 1,3,-1
 502 1710 l 1,4,-1
 961 -142 l 1,5,-1
 830 -200 l 1,0,-1
EndSplineSet
Validated: 1
EndChar

StartChar: bracketright
Encoding: 93 93 63
Width: 880
GlyphClass: 2
Flags: W
HStem: -240 180<117 439> 1570 180<502 814>
DStem2: 428.74 -240 628.87 -240 0.207912 0.978148<184.021 1850.55>
LayerCount: 2
Fore
SplineSet
439 -240 m 1,0,-1
 -1 -240 l 1,1,-1
 1 -230 l 1,2,-1
 117 -60 l 1,3,-1
 467 -60 l 1,4,-1
 814 1570 l 1,5,-1
 384 1570 l 1,6,-1
 386 1580 l 1,7,-1
 502 1750 l 1,8,-1
 1052 1750 l 1,9,-1
 648 -150 l 1,10,-1
 439 -240 l 1,0,-1
EndSplineSet
Validated: 1
EndChar

StartChar: asciicircum
Encoding: 94 94 64
Width: 868
GlyphClass: 2
Flags: W
HStem: 1160 410
DStem2: 816 1570 730 1393 0.61072 -0.791846<87.6349 381.454>
LayerCount: 2
Fore
SplineSet
806 1570 m 1,0,-1
 816 1570 l 1,1,-1
 1079 1229 l 1,2,-1
 919 1160 l 1,3,-1
 909 1160 l 1,4,-1
 730 1393 l 1,5,-1
 459 1160 l 1,6,-1
 449 1160 l 1,7,-1
 313 1237 l 1,8,-1
 615 1488 l 1,9,-1
 806 1570 l 1,0,-1
EndSplineSet
Validated: 1
EndChar

StartChar: underscore
Encoding: 95 95 65
Width: 1364
GlyphClass: 2
Flags: W
HStem: -410 120<140 1075>
LayerCount: 2
Fore
SplineSet
63 -410 m 1,0,-1
 65 -400 l 1,1,-1
 140 -290 l 1,2,-1
 1152 -290 l 1,3,-1
 1150 -300 l 1,4,-1
 1075 -410 l 1,5,-1
 63 -410 l 1,0,-1
EndSplineSet
Validated: 1
EndChar

StartChar: grave
Encoding: 96 96 66
Width: 377
GlyphClass: 2
Flags: W
HStem: 1160 367
VStem: 362 223
DStem2: 505 1527 362 1470 0.261536 -0.965194<17.6163 321.098>
LayerCount: 2
Fore
SplineSet
495 1527 m 1,0,-1
 505 1527 l 1,1,-1
 585 1216 l 1,2,-1
 456 1160 l 1,3,-1
 446 1160 l 1,4,-1
 362 1470 l 1,5,-1
 495 1527 l 1,0,-1
EndSplineSet
Validated: 1
EndChar

StartChar: a
Encoding: 97 97 67
Width: 1064
GlyphClass: 2
Flags: W
HStem: -20 147<374.597 662.417> 589 151<451.468 740.103> 940 160<579 801.823>
VStem: 151 163<185.331 452.883> 862 179<652.766 879.255>
DStem2: 699.72 -20 879.783 -20 0.207912 0.978148<215.68 444.569 687.105 801.799>
LayerCount: 2
Fore
SplineSet
508 127 m 128,-1,1
 606 127 606 127 689 190 c 128,-1,2
 772 253 772 253 794 358 c 0,3,4
 800 388 800 388 800 414 c 0,5,6
 800 481 800 481 760 526 c 0,7,8
 704 589 704 589 606 589 c 128,-1,9
 508 589 508 589 425 526 c 128,-1,10
 342 463 342 463 320 358 c 0,11,12
 314 328 314 328 314 302 c 0,13,14
 314 235 314 235 354 190 c 0,15,0
 410 127 410 127 508 127 c 128,-1,1
700 -20 m 1,16,-1
 718 66 l 1,17,18
 626 -20 626 -20 482 -20 c 0,19,20
 298 -20 298 -20 213 92 c 0,21,22
 151 174 151 174 151 286 c 0,23,24
 151 322 151 322 157 360 c 0,25,26
 184 531 184 531 307 632 c 0,27,28
 439 740 439 740 603 740 c 0,29,30
 762 740 762 740 843 652 c 1,31,-1
 856 714 l 2,32,33
 862 741 862 741 862 766 c 0,34,35
 862 830 862 830 822 876 c 0,36,37
 767 940 767 940 669 940 c 2,38,-1
 474 940 l 1,39,-1
 476 950 l 1,40,-1
 579 1100 l 1,41,-1
 683 1100 l 2,42,43
 855 1100 855 1100 961 983 c 0,44,45
 1040 896 1040 896 1041 778 c 0,46,47
 1041 737 1041 737 1031 692 c 2,48,-1
 897 61 l 17,49,-1
 710 -20 l 1,50,-1
 700 -20 l 1,16,-1
EndSplineSet
Validated: 1
EndChar

StartChar: b
Encoding: 98 98 68
Width: 1170
GlyphClass: 2
Flags: W
HStem: -20 160<491.659 776.42> 960 160<646.885 930.791> 1510 20G<628.827 685>
VStem: 252 180<201.427 428.805> 992 177<671.195 898.75>
DStem2: 175.277 -20 355.953 -20 0.207912 0.978148<380.842 958.267 1111.97 1501.92> 825.953 -20 1005.28 -20 0.207912 0.978148<246.919 822.145>
LayerCount: 2
Fore
SplineSet
611 -20 m 128,-1,1
 439 -20 439 -20 332 97 c 0,2,3
 252 184 252 184 252 302 c 0,4,5
 252 343 252 343 262 388 c 2,6,-1
 488 1449 l 1,7,-1
 675 1530 l 1,8,-1
 685 1530 l 1,9,-1
 579 1031 l 1,10,11
 682 1120 682 1120 813 1120 c 0,12,13
 990 1120 990 1120 1086 1003 c 0,14,15
 1169 903 1169 903 1169 786 c 0,16,17
 1169 750 1169 750 1161 712 c 2,18,-1
 1092 388 l 2,19,20
 1051 195 1051 195 929 97 c 0,21,0
 783 -20 783 -20 611 -20 c 128,-1,1
799 960 m 128,-1,23
 701 960 701 960 619 896.5 c 128,-1,24
 537 833 537 833 516 734 c 2,25,-1
 438 366 l 2,26,27
 432 339 432 339 432 314 c 0,28,29
 432 250 432 250 472 204 c 0,30,31
 527 140 527 140 625 140 c 128,-1,32
 723 140 723 140 805 203.5 c 128,-1,33
 887 267 887 267 908 366 c 2,34,-1
 986 734 l 2,35,36
 992 761 992 761 992 786 c 0,37,38
 992 850 992 850 952 896 c 0,39,22
 897 960 897 960 799 960 c 128,-1,23
EndSplineSet
Validated: 1
EndChar

StartChar: c
Encoding: 99 99 69
Width: 1070
GlyphClass: 2
Flags: W
HStem: -20 160<471.659 756.42> 960 160<627.205 910.791>
VStem: 232 180<201.427 428.805> 972 169<806 899.478>
DStem2: 155.277 -20 335.953 -20 0.207912 0.978148<380.842 955.86>
LayerCount: 2
Fore
SplineSet
591 -20 m 128,-1,1
 419 -20 419 -20 312 97 c 0,2,3
 232 184 232 184 232 302 c 0,4,5
 232 343 232 343 242 388 c 2,6,-1
 311 712 l 2,7,8
 352 905 352 905 474 1003 c 0,9,10
 620 1120 620 1120 793 1120 c 0,11,12
 970 1120 970 1120 1066 1003 c 0,13,14
 1140 913 1140 913 1141 806 c 1,15,-1
 976 734 l 1,16,-1
 966 734 l 1,17,18
 972 761 972 761 972 786 c 0,19,20
 972 850 972 850 932 896 c 0,21,22
 877 960 877 960 779 960 c 128,-1,23
 681 960 681 960 599 896.5 c 128,-1,24
 517 833 517 833 496 734 c 2,25,-1
 418 366 l 2,26,27
 412 339 412 339 412 314 c 0,28,29
 412 250 412 250 452 204 c 0,30,31
 507 140 507 140 605 140 c 128,-1,32
 703 140 703 140 785 204 c 0,33,34
 838 245 838 245 866 303 c 1,35,-1
 1062 388 l 1,36,-1
 1072 388 l 1,37,38
 1031 195 1031 195 909 97 c 0,39,0
 763 -20 763 -20 591 -20 c 128,-1,1
EndSplineSet
Validated: 1
EndChar

StartChar: d
Encoding: 100 100 70
Width: 1170
GlyphClass: 2
Flags: W
HStem: -20 160<471.659 756.42> 960 160<627.205 912.404> 1510 20G<1258.83 1315>
VStem: 232 180<201.427 428.805>
DStem2: 155.277 -20 335.953 -20 0.207912 0.978148<380.842 955.86> 805.953 -20 985.277 -20 0.207912 0.978148<246.919 822.145 1074.41 1501.78>
LayerCount: 2
Fore
SplineSet
591 -20 m 128,-1,1
 419 -20 419 -20 312 97 c 0,2,3
 232 184 232 184 232 302 c 0,4,5
 232 343 232 343 242 388 c 2,6,-1
 311 712 l 2,7,8
 352 905 352 905 474 1003 c 0,9,10
 620 1120 620 1120 793 1120 c 0,11,12
 945 1120 945 1120 1029 1031 c 1,13,-1
 1118 1449 l 1,14,-1
 1305 1530 l 1,15,-1
 1315 1530 l 1,16,-1
 1072 388 l 2,17,18
 1031 195 1031 195 909 97 c 0,19,0
 763 -20 763 -20 591 -20 c 128,-1,1
779 960 m 128,-1,21
 681 960 681 960 599 896.5 c 128,-1,22
 517 833 517 833 496 734 c 2,23,-1
 418 366 l 2,24,25
 412 339 412 339 412 314 c 0,26,27
 412 250 412 250 452 204 c 0,28,29
 507 140 507 140 605 140 c 128,-1,30
 703 140 703 140 785 203.5 c 128,-1,31
 867 267 867 267 888 366 c 2,32,-1
 966 734 l 2,33,34
 972 761 972 761 972 786 c 0,35,36
 972 850 972 850 932 896 c 0,37,20
 877 960 877 960 779 960 c 128,-1,21
EndSplineSet
Validated: 1
EndChar

StartChar: e
Encoding: 101 101 71
Width: 1150
GlyphClass: 2
Flags: W
HStem: -20 160<471.016 756.547> 960 160<627.205 910.791>
VStem: 232 180<198.164 342.877> 972 177<726.384 899.344>
DStem2: 155.277 -20 335.77 -20 0.207912 0.978148<577.322 955.86> 448 508 413 334 0.917274 0.398256<0 590.738>
LayerCount: 2
Fore
SplineSet
966 734 m 1,0,1
 972 761 972 761 972 786 c 0,2,3
 972 850 972 850 932 896 c 0,4,5
 877 960 877 960 779 960 c 128,-1,6
 681 960 681 960 599 896.5 c 128,-1,7
 517 833 517 833 496 734 c 2,8,-1
 448 508 l 1,9,-1
 966 734 l 1,0,1
591 -20 m 128,-1,11
 419 -20 419 -20 312 97 c 0,12,13
 232 184 232 184 232 302 c 0,14,15
 232 343 232 343 242 388 c 2,16,-1
 311 712 l 2,17,18
 352 905 352 905 474 1003 c 0,19,20
 620 1120 620 1120 793 1120 c 0,21,22
 970 1120 970 1120 1066 1003 c 0,23,24
 1148 903 1148 903 1149 786 c 0,25,26
 1149 750 1149 750 1141 712 c 2,27,-1
 1127 644 l 1,28,-1
 413 334 l 1,29,30
 412 323 412 323 412 312 c 0,31,32
 412 251 412 251 451 204 c 0,33,34
 505 140 505 140 604 140 c 0,35,36
 704 140 704 140 785 204 c 0,37,38
 838 245 838 245 866 303 c 1,39,-1
 1062 388 l 1,40,-1
 1072 388 l 1,41,42
 1031 195 1031 195 909 97 c 0,43,10
 763 -20 763 -20 591 -20 c 128,-1,11
EndSplineSet
Validated: 1
EndChar

StartChar: f
Encoding: 102 102 72
Width: 780
GlyphClass: 2
Flags: W
HStem: -20 21G<176 232.173> 740 160<551 817> 1350 160<730.66 986>
DStem2: 176 -20 355.783 -20 0.207912 0.978148<120.189 814.29 977.863 1354.52>
LayerCount: 2
Fore
SplineSet
176 -20 m 1,0,-1
 414 1102 l 2,1,2
 455 1295 455 1295 578 1393 c 0,3,4
 724 1510 724 1510 896 1510 c 2,5,-1
 1091 1510 l 1,6,-1
 1089 1500 l 1,7,-1
 986 1350 l 1,8,-1
 882 1350 l 2,9,10
 784 1350 784 1350 702 1286 c 0,11,12
 620 1223 620 1223 599 1124 c 2,13,-1
 551 900 l 1,14,-1
 922 900 l 1,15,-1
 920 890 l 1,16,-1
 817 740 l 1,17,-1
 517 740 l 1,18,-1
 373 61 l 1,19,-1
 186 -20 l 1,20,-1
 176 -20 l 1,0,-1
EndSplineSet
Validated: 1
EndChar

StartChar: g
Encoding: 103 103 73
Width: 1170
GlyphClass: 2
Flags: W
HStem: -410 160<318 673.34> -20 160<471.659 755.807> 960 160<627.08 912.38>
VStem: 232 180<201.427 428.805> 972 178<552.906 899.503>
DStem2: 72.3799 -410 253.056 -410 0.207912 0.978148<779.555 1354.57> 723.185 -410 903.277 -410 0.207912 0.978148<246.905 489.701 643.406 1220.83>
LayerCount: 2
Fore
SplineSet
213 -410 m 1,0,-1
 215 -400 l 1,1,-1
 318 -250 l 1,2,-1
 522 -250 l 2,3,4
 620 -250 620 -250 702 -186 c 0,5,6
 784 -123 784 -123 805 -24 c 2,7,-1
 825 69 l 1,8,9
 724 -20 724 -20 591 -20 c 0,10,11
 419 -20 419 -20 312 97 c 0,12,13
 232 184 232 184 232 302 c 0,14,15
 232 343 232 343 242 388 c 2,16,-1
 311 712 l 2,17,18
 352 905 352 905 474 1003 c 0,19,20
 620 1120 620 1120 792 1120 c 0,21,22
 966 1120 966 1120 1072 1003 c 0,23,24
 1150 917 1150 917 1150 798 c 0,25,26
 1150 757 1150 757 1141 712 c 2,27,-1
 990 -2 l 2,28,29
 948 -195 948 -195 826 -293 c 0,30,31
 680 -410 680 -410 508 -410 c 2,32,-1
 213 -410 l 1,0,-1
966 734 m 2,33,34
 972 761 972 761 972 786 c 0,35,36
 972 850 972 850 932 896 c 0,37,38
 877 960 877 960 779 960 c 128,-1,39
 681 960 681 960 599 896.5 c 128,-1,40
 517 833 517 833 496 734 c 2,41,-1
 418 366 l 2,42,43
 412 339 412 339 412 314 c 0,44,45
 412 250 412 250 452 204 c 0,46,47
 507 140 507 140 605 140 c 128,-1,48
 703 140 703 140 785 203.5 c 128,-1,49
 867 267 867 267 888 366 c 2,50,-1
 966 734 l 2,33,34
EndSplineSet
Validated: 1
EndChar

StartChar: h
Encoding: 104 104 74
Width: 1210
GlyphClass: 2
Flags: W
HStem: -20 21G<196 252.173 846 902.173> 960 160<668.193 950.257> 1510 20G<648.827 705>
VStem: 1012 179<668.883 898.573>
DStem2: 196 -20 375.783 -20 0.207912 0.978148<120.189 958.117 1111.82 1501.77> 846 -20 1025.78 -20 0.207912 0.978148<120.189 822.135>
LayerCount: 2
Fore
SplineSet
196 -20 m 1,0,-1
 508 1449 l 1,1,-1
 695 1530 l 1,2,-1
 705 1530 l 1,3,-1
 599 1031 l 1,4,5
 700 1120 700 1120 833 1120 c 0,6,7
 1006 1120 1006 1120 1112 1003 c 0,8,9
 1191 916 1191 916 1191 798 c 0,10,11
 1191 757 1191 757 1181 712 c 2,12,-1
 1043 61 l 1,13,-1
 856 -20 l 1,14,-1
 846 -20 l 1,15,-1
 1006 734 l 2,16,17
 1012 761 1012 761 1012 786 c 0,18,19
 1012 850 1012 850 972 896 c 0,20,21
 917 960 917 960 819 960 c 128,-1,22
 721 960 721 960 639 896.5 c 128,-1,23
 557 833 557 833 536 734 c 2,24,-1
 393 61 l 1,25,-1
 206 -20 l 1,26,-1
 196 -20 l 1,0,-1
EndSplineSet
Validated: 1
EndChar

StartChar: i
Encoding: 105 105 75
Width: 580
GlyphClass: 2
Flags: W
HStem: -20 21G<196 252.173> 1100 20G<561.827 618> 1220 245<500.027 651.615>
VStem: 453 245<1266.4 1417.97>
DStem2: 196 -20 375.783 -20 0.207912 0.978148<120.189 1082.64>
LayerCount: 2
Fore
SplineSet
601 1465 m 0,0,1
 650 1465 650 1465 678 1429 c 0,2,3
 698 1403 698 1403 698 1369 c 0,4,5
 698 1353 698 1353 696 1342 c 0,6,7
 686 1292 686 1292 642.5 1256 c 128,-1,8
 599 1220 599 1220 549 1220 c 128,-1,9
 499 1220 499 1220 472 1256 c 0,10,11
 453 1282 453 1282 453 1315 c 0,12,13
 453 1329 453 1329 456 1342 c 0,14,15
 466 1392 466 1392 508.5 1428.5 c 128,-1,16
 551 1465 551 1465 601 1465 c 0,0,1
196 -20 m 1,17,-1
 421 1039 l 1,18,-1
 608 1120 l 1,19,-1
 618 1120 l 1,20,-1
 393 61 l 1,21,-1
 206 -20 l 1,22,-1
 196 -20 l 1,17,-1
EndSplineSet
Validated: 1
EndChar

StartChar: j
Encoding: 106 106 76
Width: 580
GlyphClass: 2
Flags: W
HStem: -410 21G<-120 -26> 1100 20G<561.827 618> 1220 245<500.027 651.615>
VStem: 453 245<1266.4 1417.97>
DStem2: 113.006 -410 292.788 -410 0.207912 0.978148<246.942 1481.37>
LayerCount: 2
Fore
SplineSet
601 1465 m 0,0,1
 650 1465 650 1465 678 1429 c 0,2,3
 698 1403 698 1403 698 1369 c 0,4,5
 698 1353 698 1353 696 1342 c 0,6,7
 686 1292 686 1292 642.5 1256 c 128,-1,8
 599 1220 599 1220 549 1220 c 128,-1,9
 499 1220 499 1220 472 1256 c 0,10,11
 453 1282 453 1282 453 1315 c 0,12,13
 453 1329 453 1329 456 1342 c 0,14,15
 466 1392 466 1392 508.5 1428.5 c 128,-1,16
 551 1465 551 1465 601 1465 c 0,0,1
-122 -410 m 1,17,-1
 -120 -400 l 1,18,-1
 -10 -239 l 1,19,20
 43 -224 43 -224 92 -186 c 0,21,22
 174 -122 174 -122 195 -24 c 2,23,-1
 421 1039 l 17,24,-1
 608 1120 l 1,25,-1
 618 1120 l 9,26,-1
 380 -2 l 2,27,28
 338 -195 338 -195 216 -293 c 0,29,30
 70 -410 70 -410 -122 -410 c 1,17,-1
EndSplineSet
Validated: 1
EndChar

StartChar: k
Encoding: 107 107 77
Width: 1170
GlyphClass: 2
Flags: W
HStem: -20 21G<196 252.173 826 882.173> 1100 20G<1028.61 1101.73> 1510 20G<648.827 705>
VStem: 924 176<350.512 578.65>
DStem2: 196 -20 375.783 -20 0.207912 0.978148<120.189 635.068 815.268 1501.77> 537 741 832 779 0.807591 0.589743<260.649 642.652> 826 -20 1005.78 -20 0.207912 0.978148<120.189 495.02>
LayerCount: 2
Fore
SplineSet
196 -20 m 1,0,-1
 508 1449 l 1,1,-1
 695 1530 l 1,2,-1
 705 1530 l 1,3,-1
 537 741 l 1,4,-1
 1056 1120 l 1,5,-1
 1066 1120 l 1,6,-1
 1200 1045 l 1,7,-1
 832 779 l 1,8,9
 954 756 954 756 1018 683 c 0,10,11
 1100 588 1100 588 1100 469 c 0,12,13
 1100 425 1100 425 1093 392 c 2,14,-1
 1023 61 l 1,15,-1
 836 -20 l 1,16,-1
 826 -20 l 1,17,-1
 918 414 l 2,18,19
 924 442 924 442 924 466 c 0,20,21
 924 531 924 531 884 576 c 0,22,23
 829 640 829 640 736 640 c 128,-1,24
 643 640 643 640 566 576 c 0,25,26
 489 513 489 513 468 414 c 2,27,-1
 393 61 l 1,28,-1
 206 -20 l 1,29,-1
 196 -20 l 1,0,-1
EndSplineSet
Validated: 1
EndChar

StartChar: l
Encoding: 108 108 78
Width: 580
GlyphClass: 2
Flags: W
HStem: -20 21G<196 252.173> 1510 20G<648.827 705>
VStem: 196 509
DStem2: 196 -20 375.783 -20 0.207912 0.978148<120.189 1501.77>
LayerCount: 2
Fore
SplineSet
196 -20 m 1,0,-1
 508 1449 l 1,1,-1
 695 1530 l 1,2,-1
 705 1530 l 1,3,-1
 393 61 l 1,4,-1
 206 -20 l 1,5,-1
 196 -20 l 1,0,-1
EndSplineSet
Validated: 1
EndChar

StartChar: m
Encoding: 109 109 79
Width: 1840
GlyphClass: 2
Flags: W
HStem: -20 21G<176 232.173 826 882.173 1476 1532.17> 960 160<647.205 932.373 1297.46 1580.46>
VStem: 1642 179<668.883 898.573>
DStem2: 176 -20 355.783 -20 0.207912 0.978148<120.189 955.71> 826 -20 1005.78 -20 0.207912 0.978148<120.189 822.135> 1476 -20 1655.78 -20 0.207912 0.978148<120.189 822.135>
LayerCount: 2
Fore
SplineSet
176 -20 m 1,0,-1
 331 712 l 2,1,2
 372 905 372 905 494 1003 c 0,3,4
 640 1120 640 1120 813 1120 c 0,5,6
 979 1120 979 1120 1081 1003 c 0,7,8
 1095 987 1095 987 1106 969 c 1,9,10
 1126 986 1126 986 1145 1003 c 0,11,12
 1290 1120 1290 1120 1464 1120 c 0,13,14
 1636 1120 1636 1120 1742 1003 c 0,15,16
 1821 916 1821 916 1821 798 c 0,17,18
 1821 757 1821 757 1811 712 c 2,19,-1
 1673 61 l 1,20,-1
 1486 -20 l 1,21,-1
 1476 -20 l 1,22,-1
 1636 734 l 2,23,24
 1642 761 1642 761 1642 786 c 0,25,26
 1642 850 1642 850 1602 896 c 0,27,28
 1547 960 1547 960 1449 960 c 128,-1,29
 1351 960 1351 960 1269 896.5 c 128,-1,30
 1187 833 1187 833 1166 734 c 2,31,-1
 1023 61 l 1,32,-1
 836 -20 l 1,33,-1
 826 -20 l 1,34,-1
 986 734 l 2,35,36
 992 761 992 761 992 786 c 0,37,38
 992 850 992 850 952 896 c 0,39,40
 897 960 897 960 799 960 c 128,-1,41
 701 960 701 960 619 896.5 c 128,-1,42
 537 833 537 833 516 734 c 2,43,-1
 373 61 l 1,44,-1
 186 -20 l 1,45,-1
 176 -20 l 1,0,-1
EndSplineSet
Validated: 1
EndChar

StartChar: n
Encoding: 110 110 80
Width: 1190
GlyphClass: 2
Flags: W
HStem: -20 21G<176 232.173 826 882.173> 960 160<647.08 932.38>
VStem: 992 179<668.883 898.573>
DStem2: 176 -20 355.783 -20 0.207912 0.978148<120.189 955.71> 826 -20 1005.78 -20 0.207912 0.978148<120.189 822.135>
LayerCount: 2
Fore
SplineSet
176 -20 m 9,0,-1
 331 712 l 2,1,2
 372 905 372 905 494 1003 c 0,3,4
 640 1120 640 1120 812 1120 c 0,5,6
 986 1120 986 1120 1092 1003 c 0,7,8
 1171 916 1171 916 1171 798 c 0,9,10
 1171 757 1171 757 1161 712 c 2,11,-1
 1023 61 l 17,12,-1
 836 -20 l 1,13,-1
 826 -20 l 9,14,-1
 986 734 l 2,15,16
 992 761 992 761 992 786 c 0,17,18
 992 850 992 850 952 896 c 0,19,20
 897 960 897 960 799 960 c 128,-1,21
 701 960 701 960 619 896.5 c 128,-1,22
 537 833 537 833 516 734 c 2,23,-1
 373 61 l 17,24,-1
 186 -20 l 1,25,-1
 176 -20 l 9,0,-1
EndSplineSet
Validated: 1
EndChar

StartChar: o
Encoding: 111 111 81
Width: 1150
GlyphClass: 2
Flags: W
HStem: -20 160<471.659 756.42> 960 160<627.143 912.244>
VStem: 232 180<200.745 550> 972 179<550 899.255>
DStem2: 155.277 -20 335.953 -20 0.207912 0.978148<380.842 955.86> 805.732 -20 985.409 -20 0.207912 0.978148<246.965 822.191>
LayerCount: 2
Fore
SplineSet
605 140 m 128,-1,1
 703 140 703 140 785 203.5 c 128,-1,2
 867 267 867 267 888 366 c 2,3,-1
 966 734 l 2,4,5
 972 761 972 761 972 786 c 0,6,7
 972 850 972 850 932 896 c 0,8,9
 877 960 877 960 779 960 c 128,-1,10
 681 960 681 960 599 896.5 c 128,-1,11
 517 833 517 833 496 734 c 2,12,-1
 418 366 l 2,13,14
 412 339 412 339 412 314 c 0,15,16
 412 250 412 250 452 204 c 0,17,0
 507 140 507 140 605 140 c 128,-1,1
591 -20 m 128,-1,19
 419 -20 419 -20 312 97 c 0,20,21
 232 184 232 184 232 302 c 0,22,23
 232 343 232 343 242 388 c 2,24,-1
 311 712 l 2,25,26
 352 905 352 905 474 1003 c 0,27,28
 620 1120 620 1120 792.5 1120 c 128,-1,29
 965 1120 965 1120 1072 1003 c 0,30,31
 1151 916 1151 916 1151 798 c 0,32,33
 1151 757 1151 757 1141 712 c 2,34,-1
 1072 388 l 2,35,36
 1031 195 1031 195 909 97 c 0,37,18
 763 -20 763 -20 591 -20 c 128,-1,19
EndSplineSet
Validated: 1
EndChar

StartChar: p
Encoding: 112 112 82
Width: 1170
GlyphClass: 2
Flags: W
HStem: -430 21G<89 145.173> -20 160<491.596 776.42> 960 160<647.143 932.244>
VStem: 992 179<671.195 898.573>
DStem2: 89 -430 268.783 -430 0.207912 0.978148<120.189 547.558 799.82 1374.84> 738.805 -430 918.129 -430 0.207912 0.978148<666.078 1241.3>
LayerCount: 2
Fore
SplineSet
89 -430 m 1,0,-1
 331 712 l 2,1,2
 372 905 372 905 494 1003 c 0,3,4
 640 1120 640 1120 812.5 1120 c 128,-1,5
 985 1120 985 1120 1092 1003 c 0,6,7
 1171 916 1171 916 1171 798 c 0,8,9
 1171 757 1171 757 1161 712 c 2,10,-1
 1092 388 l 2,11,12
 1051 195 1051 195 929 97 c 0,13,14
 783 -20 783 -20 611 -20 c 0,15,16
 459 -20 459 -20 375 69 c 1,17,-1
 286 -349 l 1,18,-1
 99 -430 l 1,19,-1
 89 -430 l 1,0,-1
625 140 m 128,-1,21
 723 140 723 140 805 203.5 c 128,-1,22
 887 267 887 267 908 366 c 2,23,-1
 986 734 l 2,24,25
 992 761 992 761 992 786 c 0,26,27
 992 850 992 850 952 896 c 0,28,29
 897 960 897 960 799 960 c 128,-1,30
 701 960 701 960 619 896.5 c 128,-1,31
 537 833 537 833 516 734 c 2,32,-1
 438 366 l 2,33,34
 432 339 432 339 432 314 c 0,35,36
 432 250 432 250 472 204 c 0,37,20
 527 140 527 140 625 140 c 128,-1,21
EndSplineSet
Validated: 1
EndChar

StartChar: q
Encoding: 113 113 83
Width: 1170
GlyphClass: 2
Flags: W
HStem: -430 21G<719 775.173> -20 160<471.659 757.115> 960 160<627.08 912.38>
VStem: 232 180<201.427 428.805> 972 179<556.398 899.255>
DStem2: 68.1287 -430 248.805 -430 0.207912 0.978148<800.002 1375.02> 719 -430 898.783 -430 0.207912 0.978148<120.189 510.134 663.839 1241.26>
LayerCount: 2
Fore
SplineSet
719 -430 m 1,0,-1
 825 69 l 1,1,2
 722 -20 722 -20 591 -20 c 0,3,4
 419 -20 419 -20 312 97 c 0,5,6
 232 184 232 184 232 302 c 0,7,8
 232 343 232 343 242 388 c 2,9,-1
 311 712 l 2,10,11
 352 905 352 905 474 1003 c 0,12,13
 620 1120 620 1120 792 1120 c 0,14,15
 966 1120 966 1120 1072 1003 c 0,16,17
 1151 916 1151 916 1151 798 c 0,18,19
 1151 757 1151 757 1141 712 c 2,20,-1
 916 -349 l 1,21,-1
 729 -430 l 1,22,-1
 719 -430 l 1,0,-1
605 140 m 128,-1,24
 703 140 703 140 785 203.5 c 128,-1,25
 867 267 867 267 888 366 c 2,26,-1
 966 734 l 2,27,28
 972 761 972 761 972 786 c 0,29,30
 972 850 972 850 932 896 c 0,31,32
 877 960 877 960 779 960 c 128,-1,33
 681 960 681 960 599 896.5 c 128,-1,34
 517 833 517 833 496 734 c 2,35,-1
 418 366 l 2,36,37
 412 339 412 339 412 314 c 0,38,39
 412 250 412 250 452 204 c 0,40,23
 507 140 507 140 605 140 c 128,-1,24
EndSplineSet
Validated: 1
EndChar

StartChar: r
Encoding: 114 114 84
Width: 780
GlyphClass: 2
Flags: W
HStem: -20 21G<176 232.173> 940 160<643.66 899>
DStem2: 176 -20 355.783 -20 0.207912 0.978148<120.189 935.315>
LayerCount: 2
Fore
SplineSet
176 -20 m 9,0,-1
 327 692 l 2,1,2
 368 885 368 885 490 983 c 0,3,4
 637 1100 637 1100 809 1100 c 2,5,-1
 1004 1100 l 1,6,-1
 1002 1090 l 1,7,-1
 899 940 l 1,8,-1
 795 940 l 2,9,10
 697 940 697 940 615 876 c 0,11,12
 533 813 533 813 512 714 c 2,13,-1
 373 61 l 17,14,-1
 186 -20 l 1,15,-1
 176 -20 l 9,0,-1
EndSplineSet
Validated: 1
EndChar

StartChar: t
Encoding: 116 116 85
Width: 780
GlyphClass: 2
Flags: W
HStem: -20 21G<296 352.173> 940 160<315 500 714 899> 1510 20G<748.827 805>
DStem2: 296 -20 475.783 -20 0.207912 0.978148<120.189 981.436 1182.43 1501.77>
LayerCount: 2
Fore
SplineSet
296 -20 m 1,0,-1
 500 940 l 1,1,-1
 210 940 l 1,2,-1
 212 950 l 1,3,-1
 315 1100 l 1,4,-1
 534 1100 l 1,5,-1
 608 1449 l 1,6,-1
 795 1530 l 1,7,-1
 805 1530 l 1,8,-1
 714 1100 l 1,9,-1
 1004 1100 l 1,10,-1
 1002 1090 l 1,11,-1
 899 940 l 1,12,-1
 680 940 l 1,13,-1
 493 61 l 1,14,-1
 306 -20 l 1,15,-1
 296 -20 l 1,0,-1
EndSplineSet
Validated: 1
EndChar

StartChar: u
Encoding: 117 117 86
Width: 1190
GlyphClass: 2
Flags: W
HStem: -20 160<491.659 776.42> 1100 20G<541.827 598 1191.83 1248>
VStem: 252 180<201.427 431.117>
DStem2: 175.277 -20 355.953 -20 0.207912 0.978148<380.842 1082.79> 825.903 -20 1005.69 -20 0.207912 0.978148<246.929 1082.66>
LayerCount: 2
Fore
SplineSet
611 -20 m 128,-1,1
 439 -20 439 -20 332 97 c 0,2,3
 252 184 252 184 252 302 c 0,4,5
 252 343 252 343 262 388 c 2,6,-1
 401 1039 l 17,7,-1
 588 1120 l 1,8,-1
 598 1120 l 9,9,-1
 438 366 l 2,10,11
 432 339 432 339 432 314 c 0,12,13
 432 250 432 250 472 204 c 0,14,15
 527 140 527 140 625 140 c 128,-1,16
 723 140 723 140 805 203.5 c 128,-1,17
 887 267 887 267 908 366 c 2,18,-1
 1051 1039 l 17,19,-1
 1238 1120 l 1,20,-1
 1248 1120 l 9,21,-1
 1092 388 l 2,22,23
 1051 195 1051 195 929 97 c 0,24,0
 783 -20 783 -20 611 -20 c 128,-1,1
EndSplineSet
Validated: 1
EndChar

StartChar: v
Encoding: 118 118 87
Width: 952
GlyphClass: 2
Flags: W
HStem: -20 21G<386.015 445.4> 1100 20G<339.824 398.87 1018.19 1077.14>
DStem2: 396 1120 229 1052 0.147619 -0.989044<42.6027 872.839> 520 256 573 55 0.514496 0.857493<0 1003.27>
LayerCount: 2
Fore
SplineSet
389 -20 m 1,0,-1
 229 1052 l 1,1,-1
 386 1120 l 1,2,-1
 396 1120 l 1,3,-1
 520 256 l 1,4,-1
 1030 1120 l 1,5,-1
 1040 1120 l 1,6,-1
 1170 1050 l 1,7,-1
 573 55 l 1,8,-1
 399 -20 l 1,9,-1
 389 -20 l 1,0,-1
EndSplineSet
Validated: 1
EndChar

StartChar: w
Encoding: 119 119 88
Width: 1840
GlyphClass: 2
Flags: W
HStem: -20 160<493.538 776.545 1141.63 1426.42> 1100 20G<541.827 598 1191.83 1248 1841.83 1898>
VStem: 252 180<201.427 431.117>
DStem2: 175.277 -20 355.953 -20 0.207912 0.978148<380.842 1082.79> 825.903 -20 1005.95 -20 0.207912 0.978148<380.712 1082.66> 1475.9 -20 1655.69 -20 0.207912 0.978148<246.929 1082.66>
LayerCount: 2
Fore
SplineSet
610 -20 m 0,0,1
 438 -20 438 -20 332 97 c 0,2,3
 252 184 252 184 252 302 c 0,4,5
 252 343 252 343 262 388 c 2,6,-1
 401 1039 l 1,7,-1
 588 1120 l 1,8,-1
 598 1120 l 1,9,-1
 438 366 l 2,10,11
 432 339 432 339 432 314 c 0,12,13
 432 250 432 250 472 204 c 0,14,15
 527 140 527 140 625 140 c 128,-1,16
 723 140 723 140 805 203.5 c 128,-1,17
 887 267 887 267 908 366 c 2,18,-1
 1051 1039 l 1,19,-1
 1238 1120 l 1,20,-1
 1248 1120 l 1,21,-1
 1088 366 l 2,22,23
 1082 339 1082 339 1082 314 c 0,24,25
 1082 250 1082 250 1122 204 c 0,26,27
 1177 140 1177 140 1275 140 c 128,-1,28
 1373 140 1373 140 1455 203.5 c 128,-1,29
 1537 267 1537 267 1558 366 c 2,30,-1
 1701 1039 l 1,31,-1
 1888 1120 l 1,32,-1
 1898 1120 l 1,33,-1
 1742 388 l 2,34,35
 1701 195 1701 195 1579 97 c 0,36,37
 1433 -20 1433 -20 1261 -20 c 0,38,39
 1095 -20 1095 -20 993 97 c 0,40,41
 979 113 979 113 968 131 c 1,42,43
 948 114 948 114 929 97 c 0,44,45
 784 -20 784 -20 610 -20 c 0,0,1
EndSplineSet
Validated: 1
EndChar

StartChar: x
Encoding: 120 120 89
Width: 893
GlyphClass: 2
Flags: W
HStem: -20 21G<135.412 197.682 697.801 762.349> 1100 20G<365.333 430.19 927.333 989.362>
DStem2: 50 48 181 -20 0.640466 0.767986<31.678 581.212 849.141 1395.86> 422 1120 265 1057 0.378934 -0.925424<0 453.855 706.516 1162.6>
LayerCount: 2
Fore
SplineSet
181 -20 m 1,0,-1
 171 -20 l 1,1,-1
 50 48 l 1,2,-1
 471 553 l 1,3,-1
 265 1057 l 1,4,-1
 412 1120 l 1,5,-1
 422 1120 l 1,6,-1
 594 700 l 1,7,-1
 944 1120 l 1,8,-1
 954 1120 l 1,9,-1
 1076 1051 l 1,10,-1
 656 548 l 1,11,-1
 862 43 l 1,12,-1
 716 -20 l 1,13,-1
 706 -20 l 1,14,-1
 533 402 l 1,15,-1
 181 -20 l 1,0,-1
EndSplineSet
Validated: 1
EndChar

StartChar: y
Encoding: 121 121 90
Width: 1210
GlyphClass: 2
Flags: W
HStem: -410 160<338 693.34> -20 160<491.659 776.248> 1100 20G<541.827 598 1191.83 1248>
VStem: 252 180<201.427 431.117>
DStem2: 92.3799 -410 273.056 -410 0.207912 0.978148<779.555 1481.5> 743.185 -410 923.277 -410 0.207912 0.978148<246.905 489.701 643.406 1481.33>
LayerCount: 2
Fore
SplineSet
233 -410 m 1,0,-1
 235 -400 l 1,1,-1
 338 -250 l 1,2,-1
 542 -250 l 2,3,4
 640 -250 640 -250 722 -186 c 0,5,6
 804 -123 804 -123 825 -24 c 2,7,-1
 845 69 l 1,8,9
 746 -20 746 -20 611 -20 c 0,10,11
 439 -20 439 -20 332 97 c 0,12,13
 252 184 252 184 252 302 c 0,14,15
 252 343 252 343 262 388 c 2,16,-1
 401 1039 l 1,17,-1
 588 1120 l 1,18,-1
 598 1120 l 1,19,-1
 438 366 l 2,20,21
 432 339 432 339 432 314 c 0,22,23
 432 250 432 250 472 204 c 0,24,25
 527 140 527 140 625 140 c 128,-1,26
 723 140 723 140 805 203.5 c 128,-1,27
 887 267 887 267 908 366 c 2,28,-1
 1051 1039 l 1,29,-1
 1238 1120 l 1,30,-1
 1248 1120 l 1,31,-1
 1010 -2 l 2,32,33
 968 -195 968 -195 846 -293 c 0,34,35
 700 -410 700 -410 528 -410 c 2,36,-1
 233 -410 l 1,0,-1
EndSplineSet
Validated: 1
EndChar

StartChar: z
Encoding: 122 122 91
Width: 850
GlyphClass: 2
Flags: W
HStem: 0 160<353 739> 940 160<375 732>
DStem2: 42 10 353 160 0.595847 0.803098<305.773 1158.02>
LayerCount: 2
Fore
SplineSet
40 0 m 1,0,-1
 42 10 l 1,1,-1
 732 940 l 1,2,-1
 270 940 l 1,3,-1
 272 950 l 1,4,-1
 375 1100 l 1,5,-1
 1044 1100 l 1,6,-1
 1042 1090 l 1,7,-1
 353 160 l 1,8,-1
 844 160 l 1,9,-1
 842 150 l 1,10,-1
 739 0 l 1,11,-1
 40 0 l 1,0,-1
EndSplineSet
Validated: 1
EndChar

StartChar: braceleft
Encoding: 123 123 92
Width: 830
GlyphClass: 2
Flags: W
HStem: -240 180<612.421 729> 665 180<310 415> 1570 180<941.388 1114>
VStem: 316 199<31.304 293.412>
DStem2: 222.997 -240 422.524 -240 0.207912 0.978148<455.853 925.143 1109.32 1762.35>
CounterMasks: 1 e0
LayerCount: 2
Fore
SplineSet
729 -240 m 1,0,1
 519 -240 519 -240 401 -99 c 0,2,3
 316 3 316 3 316 142 c 0,4,5
 316 195 316 195 328 254 c 2,6,-1
 415 665 l 1,7,-1
 191 665 l 1,8,-1
 193 675 l 1,9,-1
 310 845 l 1,10,-1
 454 845 l 1,11,-1
 541 1256 l 2,12,13
 590 1487 590 1487 744 1609 c 0,14,15
 922 1750 922 1750 1152 1750 c 1,16,-1
 1114 1570 l 1,17,18
 988 1570 988 1570 881 1490 c 0,19,20
 773 1409 773 1409 746 1282 c 2,21,-1
 522 228 l 2,22,23
 515 194 515 194 515 163 c 0,24,25
 515 78 515 78 568 20 c 0,26,27
 641 -60 641 -60 767 -60 c 1,28,-1
 729 -240 l 1,0,1
EndSplineSet
Validated: 1
EndChar

StartChar: bar
Encoding: 124 124 93
Width: 650
GlyphClass: 2
Flags: W
VStem: 207 556
DStem2: 207 -200 357.971 -200 0.207912 0.978148<98.8632 1885.21>
LayerCount: 2
Fore
SplineSet
207 -200 m 1,0,-1
 599 1644 l 1,1,-1
 753 1710 l 1,2,-1
 763 1710 l 1,3,-1
 372 -134 l 1,4,-1
 217 -200 l 1,5,-1
 207 -200 l 1,0,-1
EndSplineSet
Validated: 1
EndChar

StartChar: braceright
Encoding: 125 125 94
Width: 830
GlyphClass: 2
Flags: W
HStem: -240 180<37 209.612> 665 180<736 841> 1570 180<422 538.579>
VStem: 635 200<1112.8 1478.8>
DStem2: 304.524 -240 504.997 -240 0.207912 0.978148<309.484 966.824 1151 1621.03>
CounterMasks: 1 e0
LayerCount: 2
Fore
SplineSet
-1 -240 m 1,0,-1
 37 -60 l 1,1,2
 163 -60 163 -60 270 20 c 128,-1,3
 377 100 377 100 404 228 c 2,4,-1
 628 1282 l 2,5,6
 635 1316 635 1316 635 1348 c 0,7,8
 634 1432 634 1432 582 1490 c 0,9,10
 510 1570 510 1570 384 1570 c 1,11,-1
 422 1750 l 1,12,13
 632 1750 632 1750 750 1609 c 0,14,15
 835 1507 835 1507 835 1368 c 0,16,17
 835 1315 835 1315 823 1256 c 2,18,-1
 736 845 l 1,19,-1
 960 845 l 1,20,-1
 957 835 l 1,21,-1
 841 665 l 1,22,-1
 697 665 l 1,23,-1
 610 254 l 2,24,25
 561 23 561 23 407 -99 c 0,26,27
 229 -240 229 -240 -1 -240 c 1,0,-1
EndSplineSet
Validated: 1
EndChar

StartChar: asciitilde
Encoding: 126 126 95
Width: 1138
GlyphClass: 2
Flags: W
HStem: 576 147<821.122 958.233> 790 147<501.267 637.917>
LayerCount: 2
Fore
SplineSet
1187 937 m 1,0,1
 1110 576 1110 576 864 576 c 0,2,3
 737 576 737 576 666 703 c 0,4,5
 617 790 617 790 573 790 c 0,6,7
 497 790 497 790 467 656 c 1,8,-1
 282 576 l 1,9,-1
 272 576 l 1,10,11
 349 937 349 937 595 937 c 0,12,13
 722 937 722 937 793 810 c 0,14,15
 842 723 842 723 887 723 c 0,16,17
 963 723 963 723 993 857 c 1,18,-1
 1177 937 l 1,19,-1
 1187 937 l 1,0,1
EndSplineSet
Validated: 1
EndChar

StartChar: exclamdown
Encoding: 161 161 97
Width: 600
GlyphClass: 2
Flags: W
HStem: -430 21G<109 165.444> 875 245<436.711 587.42>
VStem: 389 246<922.592 1071.76>
DStem2: 109 -430 308.87 -430 0.207912 0.978148<133.566 1063.22>
LayerCount: 2
Fore
SplineSet
538 1120 m 0,0,1
 590 1120 590 1120 616 1084 c 0,2,3
 635 1059 635 1059 635 1025 c 0,4,5
 635 1011 635 1011 632 997 c 0,6,7
 621 947 621 947 578.5 911 c 128,-1,8
 536 875 536 875 486 875 c 128,-1,9
 436 875 436 875 408 911 c 0,10,11
 389 936 389 936 389 970 c 0,12,13
 389 983 389 983 392 997 c 0,14,15
 403 1047 403 1047 445.5 1083.5 c 128,-1,16
 488 1120 488 1120 538 1120 c 0,0,1
119 -430 m 1,17,-1
 109 -430 l 1,18,-1
 330 610 l 1,19,-1
 539 700 l 1,20,-1
 549 700 l 1,21,-1
 328 -340 l 1,22,-1
 119 -430 l 1,17,-1
EndSplineSet
Validated: 1
EndChar

StartChar: cent
Encoding: 162 162 98
Width: 1070
GlyphClass: 2
Flags: W
VStem: 232 180<201.427 428.805> 972 169<806 899.478>
DStem2: 134.021 -120 314.698 -120 0.207912 0.978148<483.076 1058.09> 499 -120 599.073 -120 0.207912 0.978148<63.7446 107.28 290.665 1099.12 1283.48 1327.02>
LayerCount: 2
Fore
SplineSet
521 -15 m 1,0,1
 396 4 396 4 312 97 c 0,2,3
 232 184 232 184 232 302 c 0,4,5
 232 343 232 343 242 388 c 2,6,-1
 311 712 l 2,7,8
 352 905 352 905 474 1003 c 0,9,10
 607 1110 607 1110 762 1119 c 1,11,-1
 775 1178 l 1,12,-1
 874 1220 l 1,13,-1
 884 1220 l 1,14,-1
 862 1115 l 1,15,16
 990 1096 990 1096 1066 1003 c 0,17,18
 1140 913 1140 913 1141 806 c 1,19,-1
 976 734 l 1,20,-1
 966 734 l 1,21,22
 972 761 972 761 972 786 c 0,23,24
 972 850 972 850 932 896 c 0,25,26
 892 943 892 943 828 956 c 1,27,-1
 655 144 l 1,28,29
 724 156 724 156 785 204 c 0,30,31
 838 245 838 245 866 303 c 1,32,-1
 1062 388 l 1,33,-1
 1072 388 l 1,34,35
 1031 195 1031 195 909 97 c 0,36,37
 776 -10 776 -10 621 -19 c 1,38,-1
 608 -78 l 1,39,-1
 509 -120 l 1,40,-1
 499 -120 l 1,41,-1
 521 -15 l 1,0,1
555 145 m 1,42,-1
 728 955 l 1,43,44
 659 942 659 942 599 896 c 0,45,46
 517 832 517 832 496 734 c 2,47,-1
 418 366 l 2,48,49
 412 339 412 339 412 314 c 0,50,51
 412 250 412 250 452 204 c 128,-1,52
 492 158 492 158 555 145 c 1,42,-1
EndSplineSet
Validated: 1
EndChar

StartChar: sterling
Encoding: 163 163 99
Width: 1335
GlyphClass: 2
Flags: W
HStem: 0 180<268 338 538 1105> 600 180<397 428 666 963> 1372 158<860.292 1131.75>
VStem: 1181 192<1220 1315.87>
DStem2: 299.74 0 499.74 0 0.207912 0.978148<225.604 613.555 839.105 1372.58>
LayerCount: 2
Fore
SplineSet
150 0 m 1,0,-1
 152 10 l 1,1,-1
 268 180 l 1,2,-1
 338 180 l 1,3,-1
 428 600 l 1,4,-1
 279 600 l 1,5,-1
 281 610 l 1,6,-1
 397 780 l 1,7,-1
 466 780 l 1,8,-1
 542 1137 l 2,9,10
 587 1350 587 1350 709 1434 c 0,11,12
 847 1530 847 1530 1020 1530 c 128,-1,13
 1193 1530 1193 1530 1296 1434 c 0,14,15
 1373 1362 1373 1362 1373 1238 c 0,16,17
 1373 1229 1373 1229 1373 1220 c 1,18,-1
 1182 1137 l 1,19,-1
 1172 1137 l 1,20,21
 1181 1179 1181 1179 1181 1213 c 0,22,23
 1181 1281 1181 1281 1145 1317 c 0,24,25
 1091 1372 1091 1372 1007 1372 c 0,26,27
 912 1372 912 1372 839 1311 c 128,-1,28
 766 1250 766 1250 742 1137 c 2,29,-1
 666 780 l 1,30,-1
 1081 780 l 1,31,-1
 1079 770 l 1,32,-1
 963 600 l 1,33,-1
 628 600 l 1,34,-1
 538 180 l 1,35,-1
 1223 180 l 1,36,-1
 1221 170 l 1,37,-1
 1105 0 l 1,38,-1
 150 0 l 1,0,-1
EndSplineSet
Validated: 1
EndChar

StartChar: currency
Encoding: 164 164 100
Width: 1395
GlyphClass: 2
Flags: W
HStem: 241 163<638.083 943.433> 1106 163<769.133 1073.51>
VStem: 339 196<512.572 856.958> 1178 194<653.599 997.049>
DStem2: 224 346 394 275 0.771708 0.635977<86.036 196.48 1298.26 1428.53>
LayerCount: 2
Fore
SplineSet
931 1106 m 128,-1,1
 801 1106 801 1106 688 1002 c 0,2,3
 574 899 574 899 544 755 c 0,4,5
 535 712 535 712 535 671 c 0,6,7
 535 580 535 580 583 508 c 0,8,9
 652 404 652 404 782 404 c 128,-1,10
 912 404 912 404 1025 507.5 c 128,-1,11
 1138 611 1138 611 1168 755 c 0,12,13
 1177 799 1177 799 1178 839 c 0,14,15
 1178 930 1178 930 1130 1002 c 0,16,0
 1061 1106 1061 1106 931 1106 c 128,-1,1
946 1269 m 0,17,18
 1128 1269 1128 1269 1233 1179 c 1,19,-1
 1326 1255 l 1,20,-1
 1491 1191 l 1,21,-1
 1497 1184 l 1,22,-1
 1333 1049 l 1,23,24
 1372 957 1372 957 1372 857 c 0,25,26
 1372 799 1372 799 1359 739 c 0,27,28
 1326 584 1326 584 1230 463 c 1,29,-1
 1335 330 l 1,30,-1
 1327 323 l 1,31,-1
 1134 259 l 1,32,-1
 1076 332 l 1,33,34
 952 241 952 241 767 241 c 0,35,36
 592 241 592 241 471 338 c 1,37,-1
 394 275 l 1,38,-1
 229 339 l 1,39,-1
 224 346 l 1,40,-1
 375 471 l 1,41,42
 339 552 339 552 339 651 c 0,43,44
 339 696 339 696 346 745 c 0,45,46
 370 902 370 902 486 1050 c 1,47,-1
 382 1184 l 1,48,-1
 390 1191 l 1,49,-1
 582 1255 l 1,50,-1
 642 1180 l 1,51,52
 785 1269 785 1269 946 1269 c 0,17,18
EndSplineSet
Validated: 1
EndChar

StartChar: yen
Encoding: 165 165 101
Width: 1310
GlyphClass: 2
Flags: W
HStem: -20 21G<551 607.444> 114 120<392 579 805 992> 314 120<434 622 847 1035> 1510 20G<628.556 685 1418.56 1475>
VStem: 346 198<699.365 962.258>
DStem2: 155.347 -20 355.873 -20 0.207912 0.978148<915.136 1492.68> 945.873 -20 1145.35 -20 0.207912 0.978148<770.238 1492.57>
LayerCount: 2
Fore
SplineSet
561 -20 m 1,0,-1
 551 -20 l 1,1,-1
 579 114 l 1,2,-1
 314 114 l 1,3,-1
 316 124 l 1,4,-1
 392 234 l 1,5,-1
 605 234 l 1,6,-1
 622 314 l 1,7,-1
 357 314 l 1,8,-1
 359 324 l 1,9,-1
 434 434 l 1,10,-1
 647 434 l 1,11,-1
 648 439 l 1,12,13
 526 477 526 477 448 571 c 0,14,15
 346 695 346 695 346 836 c 0,16,17
 346 879 346 879 356 924 c 2,18,-1
 466 1440 l 1,19,-1
 675 1530 l 1,20,-1
 685 1530 l 1,21,-1
 551 898 l 2,22,23
 544 863 544 863 544 832 c 0,24,25
 544 749 544 749 596 690 c 0,26,27
 668 610 668 610 784.5 610 c 128,-1,28
 901 610 901 610 1007.5 690.5 c 128,-1,29
 1114 771 1114 771 1141 898 c 2,30,-1
 1256 1440 l 1,31,-1
 1465 1530 l 1,32,-1
 1475 1530 l 1,33,-1
 1346 924 l 2,34,35
 1297 695 1297 695 1143 571 c 0,36,37
 1010 463 1010 463 848 438 c 1,38,-1
 847 434 l 1,39,-1
 1112 434 l 1,40,-1
 1110 424 l 1,41,-1
 1035 314 l 1,42,-1
 822 314 l 1,43,-1
 805 234 l 1,44,-1
 1070 234 l 1,45,-1
 1068 224 l 1,46,-1
 992 114 l 1,47,-1
 779 114 l 1,48,-1
 770 70 l 1,49,-1
 561 -20 l 1,0,-1
EndSplineSet
Validated: 1
EndChar

StartChar: brokenbar
Encoding: 166 166 102
Width: 650
GlyphClass: 2
Flags: W
VStem: 207 556
DStem2: 207 -200 357.971 -200 0.207912 0.978148<98.8632 804.731 1171.1 1885.21>
LayerCount: 2
Fore
SplineSet
207 -200 m 1,0,-1
 375 587 l 1,1,-1
 529 653 l 1,2,-1
 539 653 l 1,3,-1
 372 -134 l 1,4,-1
 217 -200 l 1,5,-1
 207 -200 l 1,0,-1
753 1710 m 1,6,-1
 763 1710 l 1,7,-1
 594 915 l 1,8,-1
 440 849 l 1,9,-1
 430 849 l 1,10,-1
 599 1644 l 1,11,-1
 753 1710 l 1,6,-1
EndSplineSet
Validated: 1
EndChar

StartChar: section
Encoding: 167 167 103
Width: 1090
GlyphClass: 2
Flags: W
HStem: -20 150<471.625 698.029> 1380 150<712.971 939.375>
VStem: 305 181<626.05 848.13> 475 176<1133.36 1316.87> 760 176<193.127 376.643> 925 181<661.87 883.95>
LayerCount: 2
Fore
SplineSet
556 -20 m 0,0,1
 414 -20 414 -20 341 64 c 0,2,3
 282 133 282 133 279 213 c 1,4,-1
 445 285 l 1,5,-1
 455 285 l 1,6,7
 450 262 450 262 450 243 c 0,8,9
 450 201 450 201 472 172 c 0,10,11
 504 130 504 130 571 130 c 0,12,13
 643 130 643 130 690 168 c 0,14,15
 744 211 744 211 757 273 c 0,16,17
 760 287 760 287 760 300 c 0,18,19
 760 394 760 394 599 413 c 0,20,21
 433 433 433 433 361 524 c 0,22,23
 305 595 305 595 305 693 c 0,24,25
 305 722 305 722 310 751 c 0,26,27
 337 910 337 910 449 1002 c 1,28,-1
 583 906 l 1,29,30
 513 847 513 847 491 758 c 0,31,32
 486 737 486 737 486 718 c 0,33,34
 486 600 486 600 667 577 c 0,35,36
 800 560 800 560 874 485 c 0,37,38
 936 422 936 422 936 329 c 0,39,40
 936 309 936 309 933 288 c 0,41,42
 912 139 912 139 805 62 c 0,43,44
 692 -20 692 -20 556 -20 c 0,0,1
855 1530 m 0,45,46
 997 1530 997 1530 1070 1446 c 0,47,48
 1129 1377 1129 1377 1132 1297 c 1,49,-1
 966 1225 l 1,50,-1
 956 1225 l 1,51,52
 961 1248 961 1248 961 1267 c 0,53,54
 961 1309 961 1309 939 1338 c 0,55,56
 907 1380 907 1380 840 1380 c 0,57,58
 768 1380 768 1380 721 1342 c 0,59,60
 667 1299 667 1299 654 1237 c 0,61,62
 651 1223 651 1223 651 1210 c 0,63,64
 651 1116 651 1116 812 1097 c 0,65,66
 978 1077 978 1077 1050 986 c 0,67,68
 1106 915 1106 915 1106 817 c 0,69,70
 1106 788 1106 788 1101 759 c 0,71,72
 1074 600 1074 600 962 508 c 1,73,-1
 828 604 l 1,74,75
 898 663 898 663 920 752 c 0,76,77
 925 773 925 773 925 792 c 0,78,79
 925 910 925 910 744 933 c 0,80,81
 611 950 611 950 537 1025 c 0,82,83
 475 1088 475 1088 475 1181 c 0,84,85
 475 1201 475 1201 478 1222 c 0,86,87
 499 1371 499 1371 606 1448 c 0,88,89
 719 1530 719 1530 855 1530 c 0,45,46
EndSplineSet
Validated: 1
EndChar

StartChar: dieresis
Encoding: 168 168 104
Width: 600
GlyphClass: 2
Flags: W
HStem: 1230 227<374.232 520.636 650.141 796.574>
VStem: 333 229<1271.58 1415.8> 610 229<1272.58 1416.8>
LayerCount: 2
Fore
SplineSet
749 1458 m 128,-1,1
 795 1458 795 1458 821 1425 c 0,2,3
 839 1402 839 1402 839 1369 c 0,4,5
 839 1357 839 1357 837 1345 c 0,6,7
 827 1299 827 1299 786.5 1265 c 128,-1,8
 746 1231 746 1231 700 1231 c 0,9,10
 655 1231 655 1231 629 1265 c 0,11,12
 610 1289 610 1289 610 1320 c 0,13,14
 611 1333 611 1333 613 1345 c 0,15,16
 623 1391 623 1391 663 1424.5 c 128,-1,0
 703 1458 703 1458 749 1458 c 128,-1,1
472 1457 m 128,-1,18
 518 1457 518 1457 544 1424 c 0,19,20
 562 1401 562 1401 562 1368 c 0,21,22
 562 1356 562 1356 560 1344 c 0,23,24
 550 1298 550 1298 509.5 1264 c 128,-1,25
 469 1230 469 1230 423 1230 c 0,26,27
 378 1230 378 1230 352 1264 c 0,28,29
 333 1288 333 1288 333 1319 c 0,30,31
 334 1332 334 1332 336 1344 c 0,32,33
 346 1390 346 1390 386 1423.5 c 128,-1,17
 426 1457 426 1457 472 1457 c 128,-1,18
EndSplineSet
Validated: 1
EndChar

StartChar: copyright
Encoding: 169 169 105
Width: 1401
GlyphClass: 2
Flags: W
HStem: 386 52<634.584 955.646> 547 130<761.299 962.151> 1229 131<854.848 1059.02> 1478 52<854.632 1173.39>
VStem: 332 59<686.575 1015.56> 601 140<703.776 992.461> 1078 142<1138 1193.19> 1416 59<900.437 1234>
DStem2: 516.451 386 655.789 386 0.207912 0.978148<426.605 869.253>
LayerCount: 2
Fore
SplineSet
784 386 m 0,0,1
 558 386 558 386 428 549 c 0,2,3
 332 669 332 669 332 841 c 0,4,5
 332 890 332 890 340 943 c 0,6,7
 375 1183 375 1183 585 1362 c 0,8,9
 782 1530 782 1530 1023 1530 c 0,10,11
 1249 1530 1249 1530 1379 1367 c 0,12,13
 1475 1247 1475 1247 1475 1075 c 0,14,15
 1475 1026 1475 1026 1467 973 c 0,16,17
 1432 733 1432 733 1222 554 c 0,18,19
 1024 386 1024 386 784 386 c 0,0,1
987 1360 m 0,20,21
 1108 1360 1108 1360 1168 1285 c 0,22,23
 1220 1221 1220 1221 1220 1138 c 1,24,-1
 1081 1086 l 1,25,-1
 1071 1086 l 1,26,-1
 1075 1106 l 2,27,28
 1078 1120 1078 1120 1078 1133 c 0,29,30
 1078 1168 1078 1168 1056 1194 c 0,31,32
 1026 1229 1026 1229 969 1229 c 0,33,34
 911 1229 911 1229 866 1195 c 128,-1,35
 821 1161 821 1161 809 1106 c 2,36,-1
 744 801 l 2,37,38
 741 787 741 787 741 774 c 0,39,40
 741 737 741 737 764 712 c 0,41,42
 796 677 796 677 851 677 c 0,43,44
 905 677 905 677 946 707 c 0,45,46
 979 731 979 731 1006 781 c 1,47,-1
 1147 833 l 1,48,-1
 1157 833 l 1,49,-1
 1153 813 l 2,50,51
 1128 691 1128 691 1042 623 c 0,52,53
 946 547 946 547 833 547 c 128,-1,54
 720 547 720 547 652 623 c 0,55,56
 601 679 601 679 601 756 c 0,57,58
 601 783 601 783 607 812 c 2,59,-1
 667 1095 l 2,60,61
 693 1220 693 1220 777 1285 c 0,62,63
 875 1360 875 1360 987 1360 c 0,20,21
1013 1478 m 0,64,65
 813 1478 813 1478 633 1330 c 0,66,67
 451 1181 451 1181 403 953 c 0,68,69
 391 897 391 897 391 843 c 0,70,71
 391 704 391 704 472 587 c 0,72,73
 575 438 575 438 794 438 c 0,74,75
 994 438 994 438 1174 586 c 0,76,77
 1356 735 1356 735 1404 963 c 0,78,79
 1416 1022 1416 1022 1416 1077 c 0,80,81
 1416 1216 1416 1216 1338 1329 c 0,82,83
 1235 1478 1235 1478 1013 1478 c 0,64,65
EndSplineSet
Validated: 1
EndChar

StartChar: ordfeminine
Encoding: 170 170 106
Width: 554
GlyphClass: 2
Flags: W
HStem: 790 120<295 620> 959 115<428.752 580.724> 1262 118<443.913 608.636> 1449 121<523 633.308>
VStem: 290 127<1089.84 1236.81> 651 131<1356.23 1432.61>
LayerCount: 2
Fore
SplineSet
536 1262 m 0,0,1
 493 1262 493 1262 462 1237 c 128,-1,2
 431 1212 431 1212 420 1167 c 0,3,4
 417 1155 417 1155 417 1144 c 0,5,6
 417 1118 417 1118 434 1099 c 0,7,8
 456 1074 456 1074 498 1074 c 128,-1,9
 540 1074 540 1074 574 1100 c 0,10,11
 605 1124 605 1124 616 1167 c 0,12,13
 619 1179 619 1179 619 1191 c 0,14,15
 619 1221 619 1221 603 1237 c 0,16,17
 578 1262 578 1262 536 1262 c 0,0,1
573 949 m 1,18,-1
 563 949 l 1,19,-1
 570 983 l 1,20,21
 522 959 522 959 466 959 c 0,22,23
 374 960 374 960 327 1022 c 0,24,25
 290 1071 290 1071 290 1135 c 0,26,27
 290 1153 290 1153 293 1172 c 0,28,29
 306 1260 306 1260 381 1321 c 0,30,31
 453 1380 453 1380 542 1380 c 0,32,33
 612 1380 612 1380 649 1356 c 1,34,35
 651 1367 651 1367 651 1377 c 0,36,37
 651 1406 651 1406 634 1424 c 0,38,39
 612 1449 612 1449 572 1449 c 2,40,-1
 454 1449 l 1,41,-1
 456 1459 l 1,42,-1
 523 1570 l 1,43,-1
 598 1570 l 2,44,45
 691 1570 691 1570 744 1505 c 0,46,47
 782 1458 782 1458 782 1395 c 0,48,49
 782 1371 782 1371 777 1346 c 2,50,-1
 703 997 l 1,51,-1
 573 949 l 1,18,-1
218 790 m 1,52,-1
 220 800 l 1,53,-1
 295 910 l 1,54,-1
 697 910 l 1,55,-1
 695 900 l 1,56,-1
 620 790 l 1,57,-1
 218 790 l 1,52,-1
EndSplineSet
Validated: 1
EndChar

StartChar: guillemotleft
Encoding: 171 171 107
Width: 1100
GlyphClass: 2
Flags: W
DStem2: 486 743 310 755 0.353442 -0.935457<0 395.019> 310 755 486 743 0.625126 0.780524<100.656 566.286> 839 744 662 755 0.353442 -0.935457<0 395.601> 662 755 839 744 0.625126 0.780524<102.061 566.286>
LayerCount: 2
Fore
SplineSet
662 755 m 1,0,-1
 1016 1197 l 1,1,-1
 1026 1197 l 1,2,-1
 1151 1131 l 1,3,-1
 839 744 l 1,4,-1
 979 374 l 1,5,-1
 839 313 l 1,6,-1
 829 313 l 1,7,-1
 662 755 l 1,0,-1
310 755 m 1,8,-1
 664 1197 l 1,9,-1
 674 1197 l 1,10,-1
 799 1131 l 1,11,-1
 486 743 l 1,12,-1
 627 374 l 1,13,-1
 487 313 l 1,14,-1
 477 313 l 1,15,-1
 310 755 l 1,8,-1
EndSplineSet
Validated: 1
EndChar

StartChar: logicalnot
Encoding: 172 172 108
Width: 1200
GlyphClass: 2
Flags: W
HStem: 680 150<392 1009>
VStem: 827 120<418 538>
DStem2: 827 418 947 418 0.567398 0.823444<68.0877 319.009>
LayerCount: 2
Fore
SplineSet
392 830 m 1,0,-1
 1226 830 l 1,1,-1
 1224 820 l 1,2,-1
 947 418 l 1,3,-1
 827 418 l 1,4,-1
 1009 680 l 1,5,-1
 295 680 l 1,6,-1
 297 690 l 1,7,-1
 392 830 l 1,0,-1
EndSplineSet
Validated: 1
EndChar

StartChar: uni00AD
Encoding: 173 173 109
Width: 1200
GlyphClass: 2
Flags: W
HStem: 680 150<392 1129>
LayerCount: 2
Fore
SplineSet
392 830 m 5,0,-1
 1226 830 l 5,1,-1
 1224 820 l 5,2,-1
 1129 680 l 5,3,-1
 295 680 l 5,4,-1
 297 690 l 5,5,-1
 392 830 l 5,0,-1
EndSplineSet
Validated: 1
EndChar

StartChar: registered
Encoding: 174 174 110
Width: 1401
GlyphClass: 2
Flags: W
HStem: 386 52<634.584 955.646> 817 130<805 872> 1219 130<863 1058.18> 1478 52<854.632 1173.39>
VStem: 332 59<686.575 1015.56> 1077 137<1004.14 1177.06> 1416 59<900.437 1234>
DStem2: 545.778 386 685.938 386 0.207912 0.978148<245.877 469.863 602.636 880.751> 1027 849 872 817 0.43921 -0.898384<-1.7414 261.21>
LayerCount: 2
Fore
SplineSet
784 386 m 0,0,1
 558 386 558 386 428 549 c 0,2,3
 332 669 332 669 332 841 c 0,4,5
 332 890 332 890 340 943 c 0,6,7
 375 1183 375 1183 585 1362 c 0,8,9
 782 1530 782 1530 1023 1530 c 0,10,11
 1249 1530 1249 1530 1379 1367 c 0,12,13
 1475 1247 1475 1247 1475 1075 c 0,14,15
 1475 1026 1475 1026 1467 973 c 0,16,17
 1432 733 1432 733 1222 554 c 0,18,19
 1024 386 1024 386 784 386 c 0,0,1
1013 1478 m 0,20,21
 813 1478 813 1478 633 1330 c 0,22,23
 451 1181 451 1181 403 953 c 0,24,25
 391 897 391 897 391 843 c 0,26,27
 391 704 391 704 472 587 c 0,28,29
 575 438 575 438 794 438 c 0,30,31
 994 438 994 438 1174 586 c 0,32,33
 1356 735 1356 735 1404 963 c 0,34,35
 1416 1022 1416 1022 1416 1077 c 0,36,37
 1416 1216 1416 1216 1338 1329 c 0,38,39
 1235 1478 1235 1478 1013 1478 c 0,20,21
819 1349 m 1,40,-1
 993 1349 l 2,41,42
 1108 1349 1108 1349 1168 1271 c 0,43,44
 1214 1212 1214 1212 1214 1128 c 0,45,46
 1214 1106 1214 1106 1211 1082 c 0,47,48
 1195 972 1195 972 1102 895 c 0,49,50
 1076 873 1076 873 1027 849 c 1,51,-1
 1150 600 l 1,52,-1
 1014 547 l 1,53,-1
 1004 547 l 1,54,-1
 872 817 l 1,55,-1
 778 817 l 1,56,-1
 731 598 l 1,57,-1
 590 547 l 1,58,-1
 580 547 l 1,59,-1
 744 1318 l 1,60,-1
 819 1349 l 1,40,-1
805 947 m 1,61,-1
 921 947 l 2,62,63
 975 947 975 947 1019 988 c 128,-1,64
 1063 1029 1063 1029 1074 1083 c 0,65,66
 1077 1099 1077 1099 1077 1113 c 0,67,68
 1077 1148 1077 1148 1059 1178 c 0,69,70
 1033 1219 1033 1219 979 1219 c 2,71,-1
 863 1219 l 1,72,-1
 805 947 l 1,61,-1
EndSplineSet
Validated: 1
EndChar

StartChar: macron
Encoding: 175 175 111
Width: 600
GlyphClass: 2
Flags: W
HStem: 1299 130<411 769>
VStem: 326 528
LayerCount: 2
Fore
SplineSet
411 1429 m 1,0,-1
 854 1429 l 1,1,-1
 852 1419 l 1,2,-1
 769 1299 l 1,3,-1
 326 1299 l 1,4,-1
 328 1309 l 1,5,-1
 411 1429 l 1,0,-1
EndSplineSet
Validated: 1
EndChar

StartChar: degree
Encoding: 176 176 112
Width: 650
GlyphClass: 2
Flags: W
HStem: 1016 112<473.449 674.063> 1458 112<524.361 726.551>
VStem: 314 133<1165.64 1378.56> 753 133<1206.98 1420.36>
LayerCount: 2
Fore
SplineSet
635 1458 m 128,-1,1
 574 1458 574 1458 519.5 1409 c 128,-1,2
 465 1360 465 1360 451 1293 c 16,3,4
 447 1273 447 1273 447 1255 c 0,5,6
 447 1210 447 1210 470 1177 c 0,7,8
 504 1128 504 1128 565 1128 c 128,-1,9
 626 1128 626 1128 680.5 1177 c 128,-1,10
 735 1226 735 1226 749 1293 c 16,11,12
 753 1313 753 1313 753 1331 c 0,13,14
 753 1376 753 1376 730 1409 c 0,15,0
 696 1458 696 1458 635 1458 c 128,-1,1
644 1570 m 128,-1,17
 758 1570 758 1570 828 1488 c 0,18,19
 886 1421 886 1421 886 1335 c 0,20,21
 886 1314 886 1314 883 1292 c 8,22,23
 867 1178 867 1178 768.5 1097 c 128,-1,24
 670 1016 670 1016 556 1016 c 128,-1,25
 442 1016 442 1016 372 1098 c 0,26,27
 314 1165 314 1165 314 1251 c 0,28,29
 314 1271 314 1271 318 1293 c 8,30,31
 334 1407 334 1407 432 1488.5 c 128,-1,16
 530 1570 530 1570 644 1570 c 128,-1,17
EndSplineSet
Validated: 1
EndChar

StartChar: plusminus
Encoding: 177 177 113
Width: 1200
GlyphClass: 2
Flags: W
HStem: 275 150<306 1042> 858 150<430 707 889 1166>
DStem2: 583.788 275 733.76 275 0.207912 0.978148<311.302 595.877 780.439 1065.22>
LayerCount: 2
Fore
SplineSet
306 425 m 1,0,-1
 1140 425 l 1,1,-1
 1138 415 l 1,2,-1
 1042 275 l 1,3,-1
 208 275 l 1,4,-1
 211 285 l 1,5,-1
 306 425 l 1,0,-1
805 1317 m 1,6,-1
 959 1383 l 1,7,-1
 969 1383 l 1,8,-1
 889 1008 l 1,9,-1
 1264 1008 l 1,10,-1
 1262 998 l 1,11,-1
 1166 858 l 1,12,-1
 857 858 l 1,13,-1
 792 549 l 1,14,-1
 638 483 l 1,15,-1
 628 483 l 1,16,-1
 707 858 l 1,17,-1
 332 858 l 1,18,-1
 334 868 l 1,19,-1
 430 1008 l 1,20,-1
 739 1008 l 1,21,-1
 805 1317 l 1,6,-1
EndSplineSet
Validated: 1
EndChar

StartChar: uni00B2
Encoding: 178 178 114
Width: 651
VWidth: 1406
GlyphClass: 2
Flags: W
HStem: 764 131<486 716> 1444 126<524.239 720.293>
VStem: 331 142<1223.48 1391.82> 738 151<1222.3 1399.19>
DStem2: 282 887 486 895 0.799338 0.600882<167.872 586.176>
LayerCount: 2
Fore
SplineSet
651 1570 m 128,-1,1
 777 1570 777 1570 842 1492 c 0,2,3
 889 1435 889 1435 889 1362 c 0,4,5
 889 1335 889 1335 883 1306 c 0,6,7
 848 1152 848 1152 683 1035 c 2,8,-1
 486 895 l 1,9,-1
 791 895 l 1,10,-1
 789 885 l 1,11,-1
 716 764 l 1,12,-1
 212 764 l 1,13,-1
 214 774 l 1,14,-1
 282 887 l 1,15,-1
 572 1105 l 2,16,17
 714 1212 714 1212 734 1304 c 0,18,19
 738 1322 738 1322 738 1339 c 0,20,21
 738 1374 738 1374 721 1400 c 0,22,23
 694 1444 694 1444 637 1444 c 0,24,25
 574 1444 574 1444 528 1403 c 0,26,27
 487 1366 487 1366 477 1320 c 0,28,29
 473 1303 473 1303 473 1287 c 0,30,31
 473 1259 473 1259 484 1234 c 1,32,-1
 354 1181 l 1,33,-1
 344 1181 l 1,34,35
 331 1222 331 1222 331 1266 c 0,36,37
 331 1299 331 1299 338 1333 c 0,38,39
 358 1426 358 1426 436 1493 c 0,40,0
 525 1570 525 1570 651 1570 c 128,-1,1
EndSplineSet
Validated: 1
EndChar

StartChar: uni00B3
Encoding: 179 179 115
Width: 643
VWidth: 1396
GlyphClass: 2
Flags: W
HStem: 774 130<424.276 625.239> 1430 130<487 637>
VStem: 264 141<932.61 1016.44> 680 139<958.767 1133.63>
LayerCount: 2
Fore
SplineSet
487 1560 m 1,0,-1
 897 1560 l 1,1,-1
 677 1268 l 1,2,3
 749 1246 749 1246 784 1192 c 0,4,5
 819 1140 819 1140 819 1071 c 0,6,7
 819 1056 819 1056 817 1040 c 0,8,9
 805 931 805 931 710 850 c 0,10,11
 621 774 621 774 497 774 c 0,12,13
 385 774 385 774 321 844 c 0,14,15
 264 906 264 906 264 992 c 0,16,17
 264 1000 264 1000 265 1009 c 1,18,-1
 405 1058 l 1,19,-1
 415 1058 l 1,20,-1
 410 1039 l 2,21,22
 405 1021 405 1021 405 1005 c 0,23,24
 405 971 405 971 425 943 c 0,25,26
 452 904 452 904 515 904 c 128,-1,27
 578 904 578 904 621 944 c 0,28,29
 665 985 665 985 676 1037 c 0,30,31
 680 1054 680 1054 680 1069 c 0,32,33
 680 1099 680 1099 665 1121 c 0,34,35
 639 1159 639 1159 584 1159 c 0,36,37
 530 1159 530 1159 489 1143 c 1,38,-1
 461 1187 l 1,39,-1
 637 1430 l 1,40,-1
 413 1430 l 1,41,-1
 415 1440 l 1,42,-1
 487 1560 l 1,0,-1
EndSplineSet
Validated: 1
EndChar

StartChar: acute
Encoding: 180 180 116
Width: 372
GlyphClass: 2
Flags: W
HStem: 1160 367
VStem: 310 323
DStem2: 310 1224 433 1160 0.550881 0.834584<14.3449 363.055>
LayerCount: 2
Fore
SplineSet
520 1527 m 1,0,-1
 633 1463 l 1,1,-1
 433 1160 l 1,2,-1
 423 1160 l 1,3,-1
 310 1224 l 1,4,-1
 510 1527 l 1,5,-1
 520 1527 l 1,0,-1
EndSplineSet
Validated: 1
EndChar

StartChar: uni00B5
Encoding: 181 181 117
Width: 1190
GlyphClass: 2
Flags: W
HStem: -430 21G<89 145.173> -20 160<492.902 775.92> 1100 20G<541.827 598 1191.83 1248>
DStem2: 89 -430 268.783 -430 0.207912 0.978148<120.189 526.956 799.82 1501.77> 738.754 -430 918.537 -430 0.207912 0.978148<666.488 1501.82>
LayerCount: 2
Fore
SplineSet
89 -430 m 1,0,-1
 401 1039 l 1,1,-1
 588 1120 l 1,2,-1
 598 1120 l 1,3,-1
 438 366 l 2,4,5
 432 339 432 339 432 314 c 0,6,7
 432 250 432 250 472 204 c 0,8,9
 527 140 527 140 625 140 c 128,-1,10
 723 140 723 140 805 203.5 c 128,-1,11
 887 267 887 267 908 366 c 2,12,-1
 1051 1039 l 1,13,-1
 1238 1120 l 1,14,-1
 1248 1120 l 1,15,-1
 1092 388 l 2,16,17
 1051 196 1051 196 928 97 c 0,18,19
 782 -20 782 -20 610 -20 c 0,20,21
 459 -20 459 -20 370 49 c 1,22,-1
 286 -349 l 1,23,-1
 99 -430 l 1,24,-1
 89 -430 l 1,0,-1
EndSplineSet
Validated: 1
EndChar

StartChar: paragraph
Encoding: 182 182 118
Width: 1180
GlyphClass: 2
Flags: W
HStem: -20 21G<776 833.143> 548 982<670.03 884.948>
DStem2: 776 -20 846.048 -20 0.207912 0.978148<43.1894 637.808> 909.459 -20 975.87 -20 0.207912 0.978148<105.818 1185.5>
LayerCount: 2
Fore
SplineSet
786 -20 m 1,0,-1
 776 -20 l 1,1,-1
 908 604 l 1,2,3
 803 548 803 548 691 548 c 0,4,5
 518 548 518 548 422 665 c 0,6,7
 344 759 344 759 344 876 c 0,8,9
 344 915 344 915 353 956 c 2,10,-1
 388 1122 l 2,11,12
 430 1315 430 1315 552 1413 c 0,13,14
 698 1530 698 1530 870 1530 c 128,-1,15
 1042 1530 1042 1530 1148 1413 c 0,16,17
 1227 1326 1227 1326 1228 1208 c 0,18,19
 1228 1167 1228 1167 1218 1122 c 2,20,-1
 995 70 l 1,21,-1
 922 39 l 1,22,-1
 1156 1140 l 1,23,-1
 1086 1110 l 1,24,-1
 852 8 l 1,25,-1
 786 -20 l 1,0,-1
EndSplineSet
Validated: 1
EndChar

StartChar: periodcentered
Encoding: 183 183 119
Width: 340
GlyphClass: 2
Flags: W
HStem: 632 245<254.711 405.42>
VStem: 207 246<679.592 828.764>
LayerCount: 2
Fore
SplineSet
356 877 m 0,0,1
 408 877 408 877 434 841 c 0,2,3
 453 816 453 816 453 782 c 0,4,5
 453 768 453 768 450 754 c 0,6,7
 439 704 439 704 396.5 668 c 128,-1,8
 354 632 354 632 304 632 c 128,-1,9
 254 632 254 632 226 668 c 0,10,11
 207 693 207 693 207 727 c 0,12,13
 207 740 207 740 210 754 c 0,14,15
 221 804 221 804 263.5 840.5 c 128,-1,16
 306 877 306 877 356 877 c 0,0,1
EndSplineSet
Validated: 1
EndChar

StartChar: cedilla
Encoding: 184 184 120
Width: 420
GlyphClass: 2
Flags: W
HStem: -410 410 -20 20G<156 254.5>
VStem: 188 143<-239.266 -78.4795>
LayerCount: 2
Fore
SplineSet
-37 -410 m 1,0,-1
 -35 -400 l 1,1,-1
 47 -280 l 1,2,3
 165 -264 165 -264 185 -173 c 0,4,5
 188 -158 188 -158 188 -145 c 0,6,7
 188 -95 188 -95 140 -76 c 1,8,-1
 156 0 l 1,9,-1
 259 0 l 1,10,-1
 250 -40 l 1,11,12
 331 -77 331 -77 331 -165 c 0,13,14
 331 -176 331 -176 330 -187 c 0,15,16
 304 -410 304 -410 -37 -410 c 1,0,-1
EndSplineSet
Validated: 1
EndChar

StartChar: uni00B9
Encoding: 185 185 121
Width: 412
VWidth: 1401
GlyphClass: 2
Flags: W
VStem: 328 318
DStem2: 328 736 468.16 736 0.207912 0.978148<81.2802 658.411>
LayerCount: 2
Fore
SplineSet
636 1570 m 1,0,-1
 646 1570 l 1,1,-1
 479 787 l 1,2,-1
 338 736 l 1,3,-1
 328 736 l 1,4,-1
 465 1380 l 1,5,-1
 331 1322 l 1,6,-1
 360 1460 l 1,7,-1
 636 1570 l 1,0,-1
EndSplineSet
Validated: 1
EndChar

StartChar: ordmasculine
Encoding: 186 186 122
Width: 554
GlyphClass: 2
Flags: W
HStem: 790 120<295 620> 960 120<438.425 600.037> 1449 121<491.539 653.036>
VStem: 296 130<1096.81 1366.04> 665 130<1163.4 1431.82>
DStem2: 217.465 790 347.591 790 0.207912 0.978148<397.752 697.086> 541.591 790 671.465 790 0.207912 0.978148<299.821 600.503>
LayerCount: 2
Fore
SplineSet
218 790 m 1,0,-1
 220 800 l 1,1,-1
 295 910 l 1,2,-1
 697 910 l 1,3,-1
 695 900 l 1,4,-1
 620 790 l 1,5,-1
 218 790 l 1,0,-1
585 1449 m 0,6,7
 543 1449 543 1449 510 1423 c 0,8,9
 476 1396 476 1396 468 1356 c 2,10,-1
 429 1173 l 2,11,12
 426 1162 426 1162 426 1152 c 0,13,14
 426 1126 426 1126 443 1106 c 0,15,16
 464 1080 464 1080 506.5 1080 c 128,-1,17
 549 1080 549 1080 581 1106 c 0,18,19
 615 1133 615 1133 623 1173 c 2,20,-1
 662 1356 l 2,21,22
 665 1368 665 1368 665 1378 c 0,23,24
 665 1405 665 1405 648 1423 c 0,25,26
 623 1449 623 1449 585 1449 c 0,6,7
602 1570 m 0,27,28
 700 1570 700 1570 753 1505 c 0,29,30
 795 1453 795 1453 795 1390 c 0,31,32
 795 1368 795 1368 790 1346 c 2,33,-1
 755 1183 l 2,34,35
 732 1077 732 1077 665 1024 c 0,36,37
 585 960 585 960 491 960 c 128,-1,38
 397 960 397 960 339 1024 c 0,39,40
 296 1072 296 1072 296 1137 c 0,41,42
 296 1159 296 1159 301 1183 c 2,43,-1
 336 1346 l 2,44,45
 358 1450 358 1450 427 1506 c 0,46,47
 507 1570 507 1570 602 1570 c 0,27,28
EndSplineSet
Validated: 1
EndChar

StartChar: guillemotright
Encoding: 187 187 123
Width: 1100
GlyphClass: 2
Flags: W
DStem2: 270 379 405 313 0.625126 0.780524<32.8774 497.102> 592 1197 442 1136 0.353442 -0.935457<4.04659 399.647> 622 379 757 313 0.625126 0.780524<32.8774 498.508> 944 1197 794 1136 0.353442 -0.935457<4.04659 399.065>
LayerCount: 2
Fore
SplineSet
759 755 m 1,0,-1
 405 313 l 1,1,-1
 395 313 l 1,2,-1
 270 379 l 1,3,-1
 582 766 l 1,4,-1
 442 1136 l 1,5,-1
 582 1197 l 1,6,-1
 592 1197 l 1,7,-1
 759 755 l 1,0,-1
1111 755 m 1,8,-1
 757 313 l 1,9,-1
 747 313 l 1,10,-1
 622 379 l 1,11,-1
 935 767 l 1,12,-1
 794 1136 l 1,13,-1
 934 1197 l 1,14,-1
 944 1197 l 1,15,-1
 1111 755 l 1,8,-1
EndSplineSet
Validated: 1
EndChar

StartChar: onequarter
Encoding: 188 188 124
Width: 1572
VWidth: 1401
GlyphClass: 2
Flags: W
HStem: -20 21G<413.284 473.756 1202 1267.29> 180 131<1117 1244 1412 1413> 1510 20G<677 737 1332.26 1393.01>
DStem2: 267.81 -20 407.969 -20 0.207912 0.978148<813.276 1390.41> 327 47 460 -20 0.566694 0.823928<20.1671 1799.35> 860 190 1117 311 0.666606 0.74541<261.512 564.551> 1202 -20 1342.16 -20 0.207912 0.978148<81.2802 204.362 367.428 568.384>
LayerCount: 2
Fore
SplineSet
1117 311 m 1,0,-1
 1272 311 l 1,1,-1
 1320 536 l 1,2,-1
 1117 311 l 1,0,-1
1212 -20 m 1,3,-1
 1202 -20 l 1,4,-1
 1244 180 l 1,5,-1
 858 180 l 1,6,-1
 860 190 l 1,7,-1
 1376 767 l 1,8,-1
 1509 815 l 1,9,-1
 1519 815 l 1,10,-1
 1412 311 l 1,11,-1
 1488 311 l 1,12,-1
 1486 301 l 1,13,-1
 1413 180 l 1,14,-1
 1384 180 l 1,15,-1
 1353 31 l 1,16,-1
 1212 -20 l 1,3,-1
450 -20 m 1,17,-1
 327 47 l 1,18,-1
 1346 1530 l 1,19,-1
 1356 1530 l 1,20,-1
 1480 1463 l 1,21,-1
 460 -20 l 1,22,-1
 450 -20 l 1,17,-1
727 1530 m 1,23,-1
 737 1530 l 1,24,-1
 571 747 l 1,25,-1
 430 696 l 1,26,-1
 420 696 l 1,27,-1
 557 1340 l 1,28,-1
 422 1282 l 1,29,-1
 452 1420 l 1,30,-1
 727 1530 l 1,23,-1
EndSplineSet
Validated: 1
EndChar

StartChar: onehalf
Encoding: 189 189 125
Width: 1718
VWidth: 1401
GlyphClass: 2
Flags: W
HStem: -20 21G<413.284 473.756> 0 131<1291 1521> 680 126<1329.24 1525.29> 1510 20G<677 737 1332.26 1393.01>
VStem: 1136 142<459.477 627.824> 1543 151<458.302 635.185>
DStem2: 267.81 -20 407.969 -20 0.207912 0.978148<813.276 1390.41> 327 47 460 -20 0.566694 0.823928<20.1671 1799.35> 1087 123 1291 131 0.799338 0.600882<167.872 586.176>
LayerCount: 2
Fore
SplineSet
450 -20 m 1,0,-1
 327 47 l 1,1,-1
 1346 1530 l 1,2,-1
 1356 1530 l 1,3,-1
 1480 1463 l 1,4,-1
 460 -20 l 1,5,-1
 450 -20 l 1,0,-1
1456 806 m 128,-1,7
 1582 806 1582 806 1647 728 c 0,8,9
 1694 671 1694 671 1694 598 c 0,10,11
 1694 571 1694 571 1688 542 c 0,12,13
 1653 388 1653 388 1488 271 c 2,14,-1
 1291 131 l 1,15,-1
 1596 131 l 1,16,-1
 1594 121 l 1,17,-1
 1521 0 l 1,18,-1
 1017 0 l 1,19,-1
 1019 10 l 1,20,-1
 1087 123 l 1,21,-1
 1377 341 l 2,22,23
 1519 448 1519 448 1539 540 c 0,24,25
 1543 558 1543 558 1543 575 c 0,26,27
 1543 610 1543 610 1526 636 c 0,28,29
 1499 680 1499 680 1442 680 c 0,30,31
 1379 680 1379 680 1333 639 c 0,32,33
 1292 602 1292 602 1282 556 c 0,34,35
 1278 539 1278 539 1278 523 c 0,36,37
 1278 495 1278 495 1289 470 c 1,38,-1
 1159 417 l 1,39,-1
 1149 417 l 1,40,41
 1136 458 1136 458 1136 502 c 0,42,43
 1136 535 1136 535 1143 569 c 0,44,45
 1163 662 1163 662 1241 729 c 0,46,6
 1330 806 1330 806 1456 806 c 128,-1,7
727 1530 m 1,47,-1
 737 1530 l 1,48,-1
 571 747 l 1,49,-1
 430 696 l 1,50,-1
 420 696 l 1,51,-1
 557 1340 l 1,52,-1
 422 1282 l 1,53,-1
 452 1420 l 1,54,-1
 727 1530 l 1,47,-1
EndSplineSet
Validated: 1
EndChar

StartChar: threequarters
Encoding: 190 190 126
Width: 1796
VWidth: 1401
GlyphClass: 2
Flags: W
HStem: -20 21G<637.284 697.756 1426 1491.29> 180 131<1341 1468 1636 1637> 744 130<517.276 718.239> 1113 21G<569.273 602.5> 1400 130<580 730>
VStem: 357 141<902.61 986.444> 773 139<928.767 1103.63>
DStem2: 551 47 684 -20 0.566694 0.823928<20.1671 1799.35> 1084 190 1341 311 0.666606 0.74541<261.512 564.551> 1426 -20 1566.16 -20 0.207912 0.978148<81.2802 204.362 367.428 568.384>
LayerCount: 2
Fore
SplineSet
674 -20 m 1,0,-1
 551 47 l 1,1,-1
 1570 1530 l 1,2,-1
 1580 1530 l 1,3,-1
 1704 1463 l 1,4,-1
 684 -20 l 1,5,-1
 674 -20 l 1,0,-1
580 1530 m 1,6,-1
 990 1530 l 1,7,-1
 770 1238 l 1,8,9
 842 1216 842 1216 877 1162 c 0,10,11
 912 1110 912 1110 912 1041 c 0,12,13
 912 1026 912 1026 910 1010 c 0,14,15
 898 901 898 901 803 820 c 0,16,17
 714 744 714 744 590 744 c 0,18,19
 478 744 478 744 414 814 c 0,20,21
 357 876 357 876 357 962 c 0,22,23
 357 970 357 970 358 979 c 1,24,-1
 498 1028 l 1,25,-1
 508 1028 l 1,26,-1
 503 1009 l 2,27,28
 498 991 498 991 498 975 c 0,29,30
 498 941 498 941 518 913 c 0,31,32
 545 874 545 874 608 874 c 128,-1,33
 671 874 671 874 714 914 c 0,34,35
 758 955 758 955 769 1007 c 0,36,37
 773 1024 773 1024 773 1039 c 0,38,39
 773 1069 773 1069 758 1091 c 0,40,41
 732 1129 732 1129 677 1129 c 0,42,43
 623 1129 623 1129 582 1113 c 1,44,-1
 554 1157 l 1,45,-1
 730 1400 l 1,46,-1
 506 1400 l 1,47,-1
 508 1410 l 1,48,-1
 580 1530 l 1,6,-1
1341 311 m 1,49,-1
 1496 311 l 1,50,-1
 1544 536 l 1,51,-1
 1341 311 l 1,49,-1
1436 -20 m 1,52,-1
 1426 -20 l 1,53,-1
 1468 180 l 1,54,-1
 1082 180 l 1,55,-1
 1084 190 l 1,56,-1
 1600 767 l 1,57,-1
 1733 815 l 1,58,-1
 1743 815 l 1,59,-1
 1636 311 l 1,60,-1
 1712 311 l 1,61,-1
 1710 301 l 1,62,-1
 1637 180 l 1,63,-1
 1608 180 l 1,64,-1
 1577 31 l 1,65,-1
 1436 -20 l 1,52,-1
EndSplineSet
Validated: 1
EndChar

StartChar: questiondown
Encoding: 191 191 127
Width: 1300
GlyphClass: 2
Flags: W
HStem: -430 180<435.353 766.542> 875 245<811.58 962.42>
VStem: 148 202<-165.679 132.669> 764 246<923.236 1072.41> 966 201<-55.1945 198.445>
LayerCount: 2
Fore
SplineSet
148 -66 m 0,0,1
 148 11 148 11 163 73 c 0,2,3
 228 347 228 347 587 509 c 0,4,5
 687 554 687 554 706 646 c 1,6,-1
 919 739 l 1,7,-1
 929 739 l 1,8,9
 870 448 870 448 642 349 c 0,10,11
 414 249 414 249 360 43 c 0,12,13
 350 5 350 5 350 -34 c 0,14,15
 350 -98 350 -98 381 -147 c 0,16,17
 446 -250 446 -250 592 -250 c 0,18,19
 736 -250 736 -250 849 -149 c 0,20,21
 936 -71 936 -71 961 53 c 0,22,23
 966 78 966 78 966 102 c 0,24,25
 966 144 966 144 951 186 c 1,26,-1
 1136 267 l 1,27,-1
 1146 267 l 1,28,29
 1167 207 1167 207 1167 135 c 0,30,31
 1167 85 1167 85 1157 30 c 0,32,33
 1123 -156 1123 -156 975 -285 c 0,34,35
 807 -430 807 -430 574 -430 c 0,36,37
 357 -430 357 -430 230 -285 c 0,38,39
 148 -191 148 -191 148 -66 c 0,0,1
913 1120 m 0,40,41
 962 1120 962 1120 990 1084 c 0,42,43
 1010 1058 1010 1058 1010 1025 c 0,44,45
 1010 1012 1010 1012 1007 998 c 0,46,47
 996 948 996 948 953.5 911.5 c 128,-1,48
 911 875 911 875 861 875 c 0,49,50
 812 875 812 875 784 911 c 0,51,52
 764 937 764 937 764 970 c 0,53,54
 764 984 764 984 767 998 c 0,55,56
 778 1048 778 1048 820.5 1084 c 128,-1,57
 863 1120 863 1120 913 1120 c 0,40,41
EndSplineSet
Validated: 1
EndChar

StartChar: endash
Encoding: 8211 8211 128
Width: 1200
GlyphClass: 2
Flags: W
HStem: 680 150<392 1129>
LayerCount: 2
Fore
SplineSet
392 830 m 5,0,-1
 1226 830 l 5,1,-1
 1224 820 l 5,2,-1
 1129 680 l 5,3,-1
 295 680 l 5,4,-1
 297 690 l 5,5,-1
 392 830 l 5,0,-1
EndSplineSet
Validated: 1
EndChar

StartChar: emdash
Encoding: 8212 8212 129
Width: 1500
GlyphClass: 2
Flags: W
HStem: 680 150<392 1429>
LayerCount: 2
Fore
SplineSet
392 830 m 1,0,-1
 1526 830 l 1,1,-1
 1524 820 l 1,2,-1
 1429 680 l 1,3,-1
 295 680 l 1,4,-1
 297 690 l 1,5,-1
 392 830 l 1,0,-1
EndSplineSet
Validated: 1
EndChar

StartChar: afii00208
Encoding: 8213 8213 130
Width: 1500
GlyphClass: 2
Flags: W
HStem: 680 150<392 1429>
LayerCount: 2
Fore
SplineSet
392 830 m 1,0,-1
 1526 830 l 1,1,-1
 1524 820 l 1,2,-1
 1429 680 l 1,3,-1
 295 680 l 1,4,-1
 297 690 l 1,5,-1
 392 830 l 1,0,-1
EndSplineSet
Validated: 1
EndChar

StartChar: quoteleft
Encoding: 8216 8216 131
Width: 389
GlyphClass: 2
Flags: W
HStem: 1046 554
VStem: 317 166<1169.5 1389.61>
LayerCount: 2
Fore
SplineSet
615 1600 m 1,0,-1
 621 1593 l 1,1,2
 516 1463 516 1463 488 1334 c 0,3,4
 483 1309 483 1309 483 1287 c 0,5,6
 483 1190 483 1190 578 1126 c 1,7,-1
 391 1046 l 1,8,-1
 381 1046 l 1,9,10
 317 1126 317 1126 317 1223 c 0,11,12
 317 1256 317 1256 324 1290 c 0,13,14
 366 1487 366 1487 615 1600 c 1,0,-1
EndSplineSet
Validated: 1
EndChar

StartChar: quoteright
Encoding: 8217 8217 132
Width: 389
GlyphClass: 2
Flags: W
HStem: 1046 554
VStem: 468 166<1257.27 1476.22>
LayerCount: 2
Fore
SplineSet
560 1600 m 1,0,-1
 570 1600 l 1,1,2
 634 1520 634 1520 634 1423 c 0,3,4
 634 1390 634 1390 627 1356 c 0,5,6
 585 1159 585 1159 336 1046 c 1,7,-1
 331 1053 l 1,8,9
 436 1183 436 1183 463 1312 c 0,10,11
 468 1336 468 1336 468 1359 c 0,12,13
 468 1456 468 1456 373 1520 c 1,14,-1
 560 1600 l 1,0,-1
EndSplineSet
Validated: 1
EndChar

StartChar: quotesinglbase
Encoding: 8218 8218 133
Width: 389
GlyphClass: 2
Flags: W
HStem: -276 554
VStem: 187 166<-64.7295 154.218>
LayerCount: 2
Fore
SplineSet
279 278 m 1,0,-1
 289 278 l 1,1,2
 353 198 353 198 353 101 c 0,3,4
 353 68 353 68 346 34 c 0,5,6
 304 -163 304 -163 55 -276 c 1,7,-1
 50 -269 l 1,8,9
 155 -139 155 -139 182 -10 c 0,10,11
 187 14 187 14 187 37 c 0,12,13
 187 134 187 134 92 198 c 1,14,-1
 279 278 l 1,0,-1
EndSplineSet
Validated: 1
EndChar

StartChar: quotereversed
Encoding: 8219 8219 134
Width: 389
GlyphClass: 2
Flags: W
HStem: 1053 547
VStem: 331 143<1149.75 1394.36>
LayerCount: 2
Fore
SplineSet
509 1600 m 1,0,-1
 662 1520 l 1,1,2
 512 1441 512 1441 484 1312 c 0,3,4
 474 1266 474 1266 474 1220 c 0,5,6
 474 1137 474 1137 506 1053 c 1,7,-1
 497 1046 l 1,8,9
 331 1139 331 1139 331 1290 c 0,10,11
 331 1322 331 1322 338 1356 c 0,12,13
 367 1493 367 1493 499 1600 c 1,14,-1
 509 1600 l 1,0,-1
EndSplineSet
Validated: 1
EndChar

StartChar: quotedblleft
Encoding: 8220 8220 135
Width: 688
GlyphClass: 2
Flags: W
HStem: 1046 554
VStem: 317 166<1169.5 1389.61> 616 166<1169.5 1389.61>
LayerCount: 2
Fore
SplineSet
615 1600 m 1,0,-1
 621 1593 l 1,1,2
 516 1463 516 1463 488 1334 c 0,3,4
 483 1309 483 1309 483 1287 c 0,5,6
 483 1190 483 1190 578 1126 c 1,7,-1
 391 1046 l 1,8,-1
 381 1046 l 1,9,10
 317 1126 317 1126 317 1223 c 0,11,12
 317 1256 317 1256 324 1290 c 0,13,14
 366 1487 366 1487 615 1600 c 1,0,-1
914 1600 m 1,15,-1
 920 1593 l 1,16,17
 816 1463 816 1463 788 1334 c 0,18,19
 783 1309 783 1309 782 1287 c 0,20,21
 782 1190 782 1190 877 1126 c 1,22,-1
 690 1046 l 1,23,-1
 680 1046 l 1,24,25
 616 1126 616 1126 616 1223 c 0,26,27
 616 1256 616 1256 623 1290 c 0,28,29
 665 1487 665 1487 914 1600 c 1,15,-1
EndSplineSet
Validated: 1
EndChar

StartChar: quotedblright
Encoding: 8221 8221 136
Width: 688
GlyphClass: 2
Flags: W
HStem: 1046 554
VStem: 468 166<1257.27 1476.22> 767 166<1257.27 1476.22>
LayerCount: 2
Fore
SplineSet
859 1600 m 1,0,-1
 869 1600 l 1,1,2
 933 1520 933 1520 933 1423 c 0,3,4
 933 1390 933 1390 926 1356 c 0,5,6
 884 1159 884 1159 635 1046 c 1,7,-1
 630 1053 l 1,8,9
 735 1183 735 1183 762 1312 c 0,10,11
 767 1336 767 1336 767 1359 c 0,12,13
 767 1456 767 1456 672 1520 c 1,14,-1
 859 1600 l 1,0,-1
560 1600 m 1,15,-1
 570 1600 l 1,16,17
 634 1520 634 1520 634 1423 c 0,18,19
 634 1390 634 1390 627 1356 c 0,20,21
 585 1159 585 1159 336 1046 c 1,22,-1
 331 1053 l 1,23,24
 436 1183 436 1183 463 1312 c 0,25,26
 468 1336 468 1336 468 1359 c 0,27,28
 468 1456 468 1456 373 1520 c 1,29,-1
 560 1600 l 1,15,-1
EndSplineSet
Validated: 1
EndChar

StartChar: quotedblbase
Encoding: 8222 8222 137
Width: 688
GlyphClass: 2
Flags: W
HStem: -276 554
VStem: 187 166<-64.7295 154.218> 486 166<-64.7295 154.218>
LayerCount: 2
Fore
SplineSet
578 278 m 1,0,-1
 588 278 l 1,1,2
 652 198 652 198 652 101 c 0,3,4
 652 68 652 68 645 34 c 0,5,6
 603 -163 603 -163 354 -276 c 1,7,-1
 349 -269 l 1,8,9
 454 -139 454 -139 481 -10 c 0,10,11
 486 14 486 14 486 37 c 0,12,13
 486 134 486 134 391 198 c 1,14,-1
 578 278 l 1,0,-1
279 278 m 1,15,-1
 289 278 l 1,16,17
 353 198 353 198 353 101 c 0,18,19
 353 68 353 68 346 34 c 0,20,21
 304 -163 304 -163 55 -276 c 1,22,-1
 50 -269 l 1,23,24
 155 -139 155 -139 182 -10 c 0,25,26
 187 14 187 14 187 37 c 0,27,28
 187 134 187 134 92 198 c 1,29,-1
 279 278 l 1,15,-1
EndSplineSet
Validated: 1
EndChar

StartChar: dagger
Encoding: 8224 8224 138
Width: 1214
GlyphClass: 2
Flags: W
HStem: -20 21G<503 559.444> 998 180<480 719 957 1196> 1510 20G<975.556 1032>
DStem2: 503 -20 702.87 -20 0.207912 0.978148<133.566 1040.66 1266.21 1492.55>
LayerCount: 2
Fore
SplineSet
513 -20 m 1,0,-1
 503 -20 l 1,1,-1
 719 998 l 1,2,-1
 362 998 l 1,3,-1
 364 1008 l 1,4,-1
 480 1178 l 1,5,-1
 757 1178 l 1,6,-1
 813 1440 l 1,7,-1
 1022 1530 l 1,8,-1
 1032 1530 l 1,9,-1
 957 1178 l 1,10,-1
 1314 1178 l 1,11,-1
 1312 1168 l 1,12,-1
 1196 998 l 1,13,-1
 919 998 l 1,14,-1
 722 70 l 1,15,-1
 513 -20 l 1,0,-1
EndSplineSet
Validated: 1
EndChar

StartChar: daggerdbl
Encoding: 8225 8225 139
Width: 1214
GlyphClass: 2
Flags: W
HStem: -20 21G<503 559.444> 332 180<339 578 816 1055> 998 180<480 719 957 1196> 1510 20G<975.556 1032>
DStem2: 503 -20 702.87 -20 0.207912 0.978148<133.566 359.901 585.451 1040.66 1266.21 1492.55>
LayerCount: 2
Fore
SplineSet
513 -20 m 1,0,-1
 503 -20 l 1,1,-1
 578 332 l 1,2,-1
 221 332 l 1,3,-1
 223 342 l 1,4,-1
 339 512 l 1,5,-1
 616 512 l 1,6,-1
 719 998 l 1,7,-1
 362 998 l 1,8,-1
 364 1008 l 1,9,-1
 480 1178 l 1,10,-1
 757 1178 l 1,11,-1
 813 1440 l 1,12,-1
 1022 1530 l 1,13,-1
 1032 1530 l 1,14,-1
 957 1178 l 1,15,-1
 1314 1178 l 1,16,-1
 1312 1168 l 1,17,-1
 1196 998 l 1,18,-1
 919 998 l 1,19,-1
 816 512 l 1,20,-1
 1173 512 l 1,21,-1
 1171 502 l 1,22,-1
 1055 332 l 1,23,-1
 778 332 l 1,24,-1
 722 70 l 1,25,-1
 513 -20 l 1,0,-1
EndSplineSet
Validated: 1
EndChar

StartChar: bullet
Encoding: 8226 8226 140
Width: 910
GlyphClass: 2
Flags: W
HStem: 447 616<497.518 734.37>
VStem: 300 632<640.532 870.9>
LayerCount: 2
Fore
SplineSet
666 1063 m 0,0,1
 795 1063 795 1063 871 973 c 0,2,3
 932 901 932 901 932 805 c 0,4,5
 932 780 932 780 929 755 c 8,6,7
 909 628 909 628 800.5 537.5 c 128,-1,8
 692 447 692 447 565 447 c 128,-1,9
 438 447 438 447 361 537 c 0,10,11
 300 609 300 609 300 705 c 0,12,13
 300 731 300 731 303 755 c 8,14,15
 323 882 323 882 431 972.5 c 128,-1,16
 539 1063 539 1063 666 1063 c 0,0,1
EndSplineSet
Validated: 1
EndChar

StartChar: ellipsis
Encoding: 8230 8230 141
Width: 1012
GlyphClass: 2
Flags: W
HStem: -20 245<116.901 267.42 452.901 603.42 788.901 939.42>
VStem: 69 246<27.5918 176.764> 405 246<27.5918 176.764> 741 246<27.5918 176.764>
CounterMasks: 1 70
LayerCount: 2
Fore
SplineSet
838 -20 m 0,0,1
 786 -20 786 -20 760 16 c 0,2,3
 741 42 741 42 741 75 c 0,4,5
 741 88 741 88 744 102 c 0,6,7
 755 152 755 152 797.5 188.5 c 128,-1,8
 840 225 840 225 890 225 c 128,-1,9
 940 225 940 225 968 189 c 0,10,11
 987 165 987 165 987 130 c 0,12,13
 987 116 987 116 984 102 c 0,14,15
 973 52 973 52 930.5 16 c 128,-1,16
 888 -20 888 -20 838 -20 c 0,0,1
502 -20 m 0,17,18
 450 -20 450 -20 424 16 c 0,19,20
 405 42 405 42 405 75 c 0,21,22
 405 88 405 88 408 102 c 0,23,24
 419 152 419 152 461.5 188.5 c 128,-1,25
 504 225 504 225 554 225 c 128,-1,26
 604 225 604 225 632 189 c 0,27,28
 651 165 651 165 651 130 c 0,29,30
 651 116 651 116 648 102 c 0,31,32
 637 52 637 52 594.5 16 c 128,-1,33
 552 -20 552 -20 502 -20 c 0,17,18
166 -20 m 0,34,35
 114 -20 114 -20 88 16 c 0,36,37
 69 42 69 42 69 75 c 0,38,39
 69 88 69 88 72 102 c 0,40,41
 83 152 83 152 125.5 188.5 c 128,-1,42
 168 225 168 225 218 225 c 128,-1,43
 268 225 268 225 296 189 c 0,44,45
 315 165 315 165 315 130 c 0,46,47
 315 116 315 116 312 102 c 0,48,49
 301 52 301 52 258.5 16 c 128,-1,50
 216 -20 216 -20 166 -20 c 0,34,35
EndSplineSet
Validated: 1
EndChar

StartChar: perthousand
Encoding: 8240 8240 142
Width: 2220
GlyphClass: 2
Flags: W
HStem: -20 125<1008.69 1221.36 1681.69 1894.36> 471 125<1068.2 1281.33 1741.2 1954.33> 914 125<578.693 791.365> 1405 125<638.202 851.332>
VStem: 399 146<1094.19 1308.57> 829 146<160.19 374.567> 885 146<1135.43 1349.81> 1315 146<201.433 415.81> 1502 146<160.19 374.567> 1988 146<201.433 415.81>
DStem2: 358 47 491 -20 0.566694 0.823928<20.1671 1799.35>
LayerCount: 2
Fore
SplineSet
1779 105 m 128,-1,1
 1847 105 1847 105 1907 159 c 128,-1,2
 1967 213 1967 213 1983 288 c 16,3,4
 1988 311 1988 311 1988 331 c 0,5,6
 1988 379 1988 379 1962 417 c 0,7,8
 1925 471 1925 471 1857 471 c 128,-1,9
 1789 471 1789 471 1729 417 c 128,-1,10
 1669 363 1669 363 1653 288 c 16,11,12
 1648 265 1648 265 1648 245 c 0,13,14
 1648 197 1648 197 1674 159 c 0,15,0
 1711 105 1711 105 1779 105 c 128,-1,1
1767 -20 m 128,-1,17
 1640 -20 1640 -20 1563 70 c 0,18,19
 1502 142 1502 142 1502 238 c 0,20,21
 1502 264 1502 264 1505 288 c 8,22,23
 1525 415 1525 415 1633 505.5 c 128,-1,24
 1741 596 1741 596 1868 596 c 0,25,26
 1997 596 1997 596 2073 506 c 0,27,28
 2134 434 2134 434 2134 338 c 0,29,30
 2134 313 2134 313 2131 288 c 8,31,32
 2111 161 2111 161 2002.5 70.5 c 128,-1,16
 1894 -20 1894 -20 1767 -20 c 128,-1,17
1106 105 m 128,-1,34
 1174 105 1174 105 1234 159 c 128,-1,35
 1294 213 1294 213 1310 288 c 16,36,37
 1315 311 1315 311 1315 331 c 0,38,39
 1315 379 1315 379 1289 417 c 0,40,41
 1252 471 1252 471 1184 471 c 128,-1,42
 1116 471 1116 471 1056 417 c 128,-1,43
 996 363 996 363 980 288 c 16,44,45
 975 265 975 265 975 245 c 0,46,47
 975 197 975 197 1001 159 c 0,48,33
 1038 105 1038 105 1106 105 c 128,-1,34
1094 -20 m 128,-1,50
 967 -20 967 -20 890 70 c 0,51,52
 829 142 829 142 829 238 c 0,53,54
 829 264 829 264 832 288 c 8,55,56
 852 415 852 415 960 505.5 c 128,-1,57
 1068 596 1068 596 1195 596 c 0,58,59
 1324 596 1324 596 1400 506 c 0,60,61
 1461 434 1461 434 1461 338 c 0,62,63
 1461 313 1461 313 1458 288 c 8,64,65
 1438 161 1438 161 1329.5 70.5 c 128,-1,49
 1221 -20 1221 -20 1094 -20 c 128,-1,50
481 -20 m 1,66,-1
 358 47 l 1,67,-1
 1377 1530 l 1,68,-1
 1387 1530 l 1,69,-1
 1511 1463 l 1,70,-1
 491 -20 l 1,71,-1
 481 -20 l 1,66,-1
754 1405 m 128,-1,73
 686 1405 686 1405 626 1351 c 128,-1,74
 566 1297 566 1297 550 1222 c 16,75,76
 545 1199 545 1199 545 1179 c 0,77,78
 545 1131 545 1131 571 1093 c 0,79,80
 608 1039 608 1039 676 1039 c 128,-1,81
 744 1039 744 1039 804 1093 c 128,-1,82
 864 1147 864 1147 880 1222 c 16,83,84
 885 1245 885 1245 885 1265 c 0,85,86
 885 1313 885 1313 859 1351 c 0,87,72
 822 1405 822 1405 754 1405 c 128,-1,73
765 1530 m 0,88,89
 894 1530 894 1530 970 1440 c 0,90,91
 1031 1368 1031 1368 1031 1272 c 0,92,93
 1031 1247 1031 1247 1028 1222 c 8,94,95
 1008 1095 1008 1095 899.5 1004.5 c 128,-1,96
 791 914 791 914 664 914 c 128,-1,97
 537 914 537 914 460 1004 c 0,98,99
 399 1076 399 1076 399 1172 c 0,100,101
 399 1198 399 1198 402 1222 c 8,102,103
 422 1349 422 1349 530 1439.5 c 128,-1,104
 638 1530 638 1530 765 1530 c 0,88,89
EndSplineSet
Validated: 1
EndChar

StartChar: minute
Encoding: 8242 8242 143
Width: 414
GlyphClass: 2
Flags: W
HStem: 1201 399
VStem: 315 374
LayerCount: 2
Fore
SplineSet
541 1600 m 1,0,-1
 551 1600 l 1,1,-1
 689 1527 l 1,2,-1
 409 1201 l 1,3,-1
 399 1201 l 1,4,-1
 315 1245 l 1,5,-1
 541 1600 l 1,0,-1
EndSplineSet
Validated: 1
EndChar

StartChar: second
Encoding: 8243 8243 144
Width: 667
GlyphClass: 2
Flags: W
HStem: 1201 399
VStem: 315 627
LayerCount: 2
Fore
SplineSet
794 1600 m 1,0,-1
 804 1600 l 1,1,-1
 942 1527 l 1,2,-1
 662 1201 l 1,3,-1
 652 1201 l 1,4,-1
 568 1245 l 1,5,-1
 794 1600 l 1,0,-1
541 1600 m 1,6,-1
 551 1600 l 1,7,-1
 689 1527 l 1,8,-1
 409 1201 l 1,9,-1
 399 1201 l 1,10,-1
 315 1245 l 1,11,-1
 541 1600 l 1,6,-1
EndSplineSet
Validated: 1
EndChar

StartChar: guilsinglleft
Encoding: 8249 8249 145
Width: 748
GlyphClass: 2
Flags: W
VStem: 310 489
DStem2: 486 743 310 755 0.353442 -0.935457<0 395.019> 310 755 486 743 0.625126 0.780524<100.656 566.286>
LayerCount: 2
Fore
SplineSet
310 755 m 1,0,-1
 664 1197 l 1,1,-1
 674 1197 l 1,2,-1
 799 1131 l 1,3,-1
 486 743 l 1,4,-1
 627 374 l 1,5,-1
 487 313 l 1,6,-1
 477 313 l 1,7,-1
 310 755 l 1,0,-1
EndSplineSet
Validated: 1
EndChar

StartChar: guilsinglright
Encoding: 8250 8250 146
Width: 798
GlyphClass: 2
Flags: W
VStem: 270 489
DStem2: 270 379 405 313 0.625126 0.780524<32.8774 498.508> 592 1197 442 1136 0.353442 -0.935457<4.04659 399.065>
LayerCount: 2
Fore
SplineSet
759 755 m 1,0,-1
 405 313 l 1,1,-1
 395 313 l 1,2,-1
 270 379 l 1,3,-1
 583 767 l 1,4,-1
 442 1136 l 1,5,-1
 582 1197 l 1,6,-1
 592 1197 l 1,7,-1
 759 755 l 1,0,-1
EndSplineSet
Validated: 1
EndChar

StartChar: fraction
Encoding: 8260 8260 147
Width: 872
GlyphClass: 2
Flags: W
HStem: -20 21G<106.284 166.756> 1510 20G<1025.26 1086.01>
DStem2: 20 47 153 -20 0.566694 0.823928<20.1671 1799.35>
LayerCount: 2
Fore
SplineSet
143 -20 m 1,0,-1
 20 47 l 1,1,-1
 1039 1530 l 1,2,-1
 1049 1530 l 1,3,-1
 1173 1463 l 1,4,-1
 153 -20 l 1,5,-1
 143 -20 l 1,0,-1
EndSplineSet
Validated: 1
EndChar

StartChar: Euro
Encoding: 8364 8364 148
Width: 1400
GlyphClass: 2
Flags: W
HStem: -20 180<619.422 957.691> 595 120<284 366 592 1044> 795 120<326 409 634 1087> 1350 180<857.219 1189.65>
VStem: 331 197<249.221 503.458> 1283 190<1143 1260.78>
DStem2: 235.997 -20 435.524 -20 0.207912 0.978148<454.905 628.59 792.956 833.16 997.317 1312.94>
LayerCount: 2
Fore
SplineSet
762 -20 m 0,0,1
 546 -20 546 -20 428 121 c 0,2,3
 331 238 331 238 331 380 c 0,4,5
 331 426 331 426 341 474 c 2,6,-1
 366 595 l 1,7,-1
 206 595 l 1,8,-1
 209 605 l 1,9,-1
 284 715 l 1,10,-1
 392 715 l 1,11,-1
 409 795 l 1,12,-1
 249 795 l 1,13,-1
 251 805 l 1,14,-1
 326 915 l 1,15,-1
 434 915 l 1,16,-1
 460 1036 l 2,17,18
 510 1268 510 1268 662 1389 c 0,19,20
 840 1530 840 1530 1050 1530 c 0,21,22
 1268 1530 1268 1530 1383 1389 c 0,23,24
 1472 1279 1472 1279 1473 1143 c 1,25,-1
 1286 1062 l 1,26,-1
 1276 1062 l 1,27,28
 1283 1097 1283 1097 1283 1128 c 0,29,30
 1283 1212 1283 1212 1231 1270 c 0,31,32
 1159 1350 1159 1350 1032.5 1350 c 128,-1,33
 906 1350 906 1350 800 1270 c 128,-1,34
 694 1190 694 1190 666 1062 c 2,35,-1
 634 915 l 1,36,-1
 1164 915 l 1,37,-1
 1162 905 l 1,38,-1
 1087 795 l 1,39,-1
 609 795 l 1,40,-1
 592 715 l 1,41,-1
 1122 715 l 1,42,-1
 1120 705 l 1,43,-1
 1044 595 l 1,44,-1
 566 595 l 1,45,-1
 535 448 l 2,46,47
 528 414 528 414 528 382 c 0,48,49
 528 298 528 298 580 240 c 0,50,51
 652 160 652 160 779 160 c 128,-1,52
 906 160 906 160 1012 240 c 0,53,54
 1087 297 1087 297 1124 380 c 1,55,-1
 1341 474 l 1,56,-1
 1351 474 l 1,57,58
 1302 243 1302 243 1149 121 c 0,59,60
 972 -20 972 -20 762 -20 c 0,0,1
EndSplineSet
Validated: 1
EndChar

StartChar: afii61248
Encoding: 8453 8453 149
Width: 1625
GlyphClass: 2
Flags: W
HStem: -20 130<1135.63 1338.61> 662 131<1229.08 1432.8> 717 130<513.299 714.151> 1399 131<606.848 811.018>
VStem: 353 140<873.776 1162.46> 830 142<1308 1363.19> 975 141<135.199 425.461> 1453 140<347.539 636.224>
DStem2: 146.018 -20 285.356 -20 0.207912 0.978148<1015.47 1458.12> 397 47 530 -20 0.566694 0.823928<20.1671 1799.35> 924.673 -20 1065.01 -20 0.207912 0.978148<260.291 707.191> 1331.18 -20 1470.52 -20 0.207912 0.978148<155.296 600.05>
LayerCount: 2
Fore
SplineSet
520 -20 m 1,0,-1
 397 47 l 1,1,-1
 1416 1530 l 1,2,-1
 1426 1530 l 1,3,-1
 1550 1463 l 1,4,-1
 530 -20 l 1,5,-1
 520 -20 l 1,0,-1
739 1530 m 0,6,7
 860 1530 860 1530 920 1455 c 0,8,9
 972 1391 972 1391 972 1308 c 1,10,-1
 833 1256 l 1,11,-1
 823 1256 l 1,12,-1
 827 1276 l 2,13,14
 830 1290 830 1290 830 1303 c 0,15,16
 830 1338 830 1338 808 1364 c 0,17,18
 778 1399 778 1399 721 1399 c 0,19,20
 663 1399 663 1399 618 1365 c 128,-1,21
 573 1331 573 1331 561 1276 c 2,22,-1
 496 971 l 2,23,24
 493 957 493 957 493 944 c 0,25,26
 493 907 493 907 516 882 c 0,27,28
 548 847 548 847 603 847 c 0,29,30
 657 847 657 847 698 877 c 0,31,32
 731 901 731 901 758 951 c 1,33,-1
 899 1003 l 1,34,-1
 909 1003 l 1,35,-1
 905 983 l 2,36,37
 880 861 880 861 794 793 c 0,38,39
 698 717 698 717 585 717 c 128,-1,40
 472 717 472 717 404 793 c 0,41,42
 353 849 353 849 353 926 c 0,43,44
 353 953 353 953 359 982 c 2,45,-1
 419 1265 l 2,46,47
 445 1390 445 1390 529 1455 c 0,48,49
 627 1530 627 1530 739 1530 c 0,6,7
1225 110 m 128,-1,51
 1280 110 1280 110 1328 145 c 0,52,53
 1373 180 1373 180 1385 234 c 2,54,-1
 1450 539 l 2,55,56
 1453 554 1453 554 1453 568 c 0,57,58
 1453 603 1453 603 1430 628 c 0,59,60
 1398 662 1398 662 1342.5 662 c 128,-1,61
 1287 662 1287 662 1240 628 c 0,62,63
 1195 593 1195 593 1184 539 c 2,64,-1
 1119 234 l 2,65,66
 1116 219 1116 219 1116 205 c 0,67,68
 1116 168 1116 168 1138 144 c 0,69,50
 1170 110 1170 110 1225 110 c 128,-1,51
1207.5 -20 m 128,-1,71
 1095 -20 1095 -20 1026 56 c 0,72,73
 975 112 975 112 975 189 c 0,74,75
 975 216 975 216 981 245 c 2,76,-1
 1041 528 l 2,77,78
 1067 652 1067 652 1152 718 c 0,79,80
 1249 793 1249 793 1361.5 793 c 128,-1,81
 1474 793 1474 793 1542 717 c 0,82,83
 1593 661 1593 661 1593 584 c 0,84,85
 1593 557 1593 557 1587 528 c 2,86,-1
 1527 245 l 2,87,88
 1500 120 1500 120 1416 55 c 0,89,70
 1320 -20 1320 -20 1207.5 -20 c 128,-1,71
EndSplineSet
Validated: 1
EndChar

StartChar: afii61289
Encoding: 8467 8467 150
Width: 958
GlyphClass: 2
Flags: W
HStem: -20 136<493.285 609.793> 0 21G<50 267.222> 1510 20G<957 1028>
LayerCount: 2
Fore
SplineSet
486 466 m 1,0,1
 648 708 648 708 737 860 c 0,2,3
 896 1134 896 1134 944 1359 c 1,4,5
 826 1238 826 1238 730 1067 c 0,6,7
 544 740 544 740 486 466 c 1,0,1
50 0 m 1,8,9
 205 158 205 158 304 282 c 1,10,11
 310 366 310 366 326 443 c 0,12,13
 366 629 366 629 459 848 c 0,14,15
 633 1251 633 1251 822 1434 c 0,16,17
 920 1530 920 1530 994 1530 c 0,18,19
 1062 1530 1062 1530 1086 1479 c 0,20,21
 1099 1453 1099 1453 1099 1410 c 0,22,23
 1099 1371 1099 1371 1088 1318 c 0,24,25
 1068 1226 1068 1226 1006 1072 c 0,26,27
 862 722 862 722 480 271 c 1,28,29
 480 116 480 116 536 116 c 0,30,31
 560 116 560 116 593.5 145 c 128,-1,32
 627 174 627 174 664 228 c 1,33,-1
 840 228 l 1,34,35
 736 100 736 100 659 40 c 128,-1,36
 582 -20 582 -20 498 -20 c 0,37,38
 378 -20 378 -20 324 90 c 1,39,-1
 251 0 l 1,40,-1
 50 0 l 1,8,9
EndSplineSet
Validated: 1
EndChar

StartChar: trademark
Encoding: 8482 8482 151
Width: 1778
GlyphClass: 2
Flags: W
HStem: 1400 130<472 611 751 917 1126.44 1342.49 1531.31 1748.86>
VStem: 1765 140<1222.4 1377.25>
DStem2: 465 716 605.16 716 0.207912 0.978148<81.2802 699.408> 830 716 969.735 716 0.207912 0.978148<83.2365 718.553> 1235 716 1374.73 716 0.207912 0.978148<83.2365 612.48> 1640 716 1779.73 716 0.207912 0.978148<83.2365 613.427>
LayerCount: 2
Fore
SplineSet
840 716 m 1,0,-1
 830 716 l 1,1,-1
 949 1274 l 2,2,3
 976 1399 976 1399 1059 1465 c 0,4,5
 1156 1541 1156 1541 1270 1541 c 0,6,7
 1386 1541 1386 1541 1445 1466 c 0,8,9
 1449 1461 1449 1461 1452 1455 c 1,10,11
 1458 1460 1458 1460 1464 1465 c 0,12,13
 1559 1541 1559 1541 1671 1541 c 0,14,15
 1793 1541 1793 1541 1852 1468 c 0,16,17
 1905 1404 1905 1404 1905 1326 c 0,18,19
 1905 1301 1905 1301 1899 1274 c 2,20,-1
 1791 769 l 1,21,-1
 1650 716 l 1,22,-1
 1640 716 l 1,23,-1
 1762 1288 l 2,24,25
 1765 1303 1765 1303 1765 1317 c 0,26,27
 1765 1354 1765 1354 1742 1378 c 0,28,29
 1711 1411 1711 1411 1655 1411 c 0,30,31
 1598 1411 1598 1411 1554 1377 c 0,32,33
 1509 1342 1509 1342 1497 1288 c 2,34,-1
 1386 769 l 1,35,-1
 1245 716 l 1,36,-1
 1235 716 l 1,37,-1
 1357 1288 l 2,38,39
 1360 1303 1360 1303 1360 1316 c 0,40,41
 1360 1352 1360 1352 1337 1377 c 0,42,43
 1305 1412 1305 1412 1250 1412 c 128,-1,44
 1195 1412 1195 1412 1149 1377 c 0,45,46
 1104 1343 1104 1343 1092 1288 c 2,47,-1
 981 769 l 1,48,-1
 840 716 l 1,0,-1
472 1530 m 1,49,-1
 991 1530 l 1,50,-1
 989 1520 l 1,51,-1
 917 1400 l 1,52,-1
 751 1400 l 1,53,-1
 616 767 l 1,54,-1
 475 716 l 1,55,-1
 465 716 l 1,56,-1
 611 1400 l 1,57,-1
 398 1400 l 1,58,-1
 400 1410 l 1,59,-1
 472 1530 l 1,49,-1
EndSplineSet
Validated: 1
EndChar

StartChar: uni2126
Encoding: 8486 8486 152
Width: 1410
GlyphClass: 2
Flags: W
HStem: 0 180<318 484 1002 1130> 1350 180<812.879 1150.75>
VStem: 330 199<443.221 704.073> 1243 197<999.927 1258.41>
DStem2: 200.012 0 399.539 0 0.207912 0.978148<632.762 1291.96> 1009.54 0 1210.01 0 0.207912 0.978148<486.059 1149.96>
LayerCount: 2
Fore
SplineSet
608 0 m 1,0,-1
 200 0 l 1,1,-1
 202 10 l 1,2,-1
 318 180 l 1,3,-1
 484 180 l 1,4,-1
 499 248 l 1,5,6
 451 270 451 270 414 315 c 16,7,8
 330 418 330 418 330 557 c 0,9,10
 330 610 330 610 342 668 c 2,11,-1
 420 1036 l 2,12,13
 469 1267 469 1267 622 1389 c 0,14,15
 799 1530 799 1530 1010 1530 c 0,16,17
 1222 1530 1222 1530 1342 1389 c 0,18,19
 1440 1273 1440 1273 1440 1131 c 0,20,21
 1440 1085 1440 1085 1430 1036 c 2,22,-1
 1352 668 l 2,23,24
 1305 445 1305 445 1149 315 c 0,25,26
 1095 270 1095 270 1017 247 c 1,27,-1
 1002 180 l 1,28,-1
 1248 180 l 1,29,-1
 1246 170 l 1,30,-1
 1130 0 l 1,31,-1
 802 0 l 1,32,-1
 879 361 l 1,33,34
 956 392 956 392 1012 434 c 0,35,36
 1118 511 1118 511 1146 642 c 2,37,-1
 1236 1062 l 2,38,39
 1243 1096 1243 1096 1243 1127 c 0,40,41
 1243 1210 1243 1210 1190 1270 c 0,42,43
 1119 1350 1119 1350 992 1350 c 0,44,45
 862 1350 862 1350 759 1270 c 0,46,47
 653 1188 653 1188 626 1062 c 2,48,-1
 536 642 l 2,49,50
 529 607 529 607 529 576 c 0,51,52
 529 492 529 492 581 434 c 0,53,54
 621 390 621 390 685 361 c 1,55,-1
 608 0 l 1,0,-1
EndSplineSet
Validated: 1
EndChar

StartChar: estimated
Encoding: 8494 8494 153
Width: 1330
GlyphClass: 2
Flags: W
HStem: -20 92<474.816 877.904> 525 80<477 1112> 1036 84<679.003 1065.2>
LayerCount: 2
Fore
SplineSet
1147 204 m 1,0,1
 1056 113 1056 113 961 61 c 0,2,3
 813 -20 813 -20 661 -20 c 0,4,5
 405 -20 405 -20 286 139 c 0,6,7
 201 252 201 252 201 407 c 0,8,9
 201 474 201 474 217 550 c 0,10,11
 268 788 268 788 451 952 c 24,12,13
 640 1120 640 1120 904 1120 c 0,14,15
 1153 1120 1153 1120 1269 964 c 272,16,17
 1359 843 1359 843 1359 677 c 0,18,19
 1359 605 1359 605 1342 525 c 1,20,-1
 460 525 l 1,21,-1
 389 192 l 1,22,23
 474 72 474 72 681 72 c 256,24,25
 804 72 804 72 908 132 c 0,26,27
 1001 186 1001 186 1068 266 c 1,28,-1
 1147 204 l 1,0,1
477 605 m 1,29,-1
 1112 605 l 1,30,-1
 1175 903 l 1,31,32
 1072 1036 1072 1036 886 1036 c 0,33,34
 695 1036 695 1036 542 914 c 1,35,-1
 477 605 l 1,29,-1
EndSplineSet
Validated: 1
EndChar

StartChar: partialdiff
Encoding: 8706 8706 154
Width: 1285
GlyphClass: 2
Flags: W
HStem: -20 153<436.608 700.456> 870 170<722.652 999.863> 1378 152<776.721 1116.12>
VStem: 215 190<165.92 478.052> 1176 187<906.621 1315.43>
LayerCount: 2
Fore
SplineSet
528 -20 m 0,0,1
 215 -20 215 -20 215 245 c 0,2,3
 215 303 215 303 230 375 c 0,4,5
 284 631 284 631 459 815 c 0,6,7
 675 1040 675 1040 893 1040 c 0,8,9
 1064 1040 1064 1040 1142 898 c 1,10,11
 1176 1073 1176 1073 1176 1170 c 0,12,13
 1176 1212 1176 1212 1170 1239 c 0,14,15
 1139 1378 1139 1378 971 1378 c 0,16,17
 840 1378 840 1378 695 1294 c 1,18,-1
 732 1468 l 1,19,20
 879 1530 879 1530 1028 1530 c 0,21,22
 1363 1530 1363 1530 1363 1174 c 0,23,24
 1363 1069 1363 1069 1334 934 c 0,25,26
 1251 545 1251 545 1032.5 262.5 c 128,-1,27
 814 -20 814 -20 528 -20 c 0,0,1
553 133 m 0,28,29
 691 133 691 133 833 286 c 128,-1,30
 975 439 975 439 1065 680 c 1,31,32
 1061 765 1061 765 1008.5 817.5 c 128,-1,33
 956 870 956 870 880 870 c 0,34,35
 720 870 720 870 587.5 710 c 128,-1,36
 455 550 455 550 416 369 c 0,37,38
 405 319 405 319 405 280 c 0,39,40
 405 133 405 133 553 133 c 0,28,29
EndSplineSet
Validated: 1
EndChar

StartChar: uni2206
Encoding: 8710 8710 155
Width: 1331
GlyphClass: 2
Flags: W
HStem: 0 180<314 1095>
DStem2: 5 0 314 180 0.509835 0.860272<312.388 1517.37> 1075 1550 926 1218 0.159853 -0.987141<303.913 1355.58>
LayerCount: 2
Fore
SplineSet
5 0 m 1,0,-1
 875 1468 l 1,1,-1
 1065 1550 l 1,2,-1
 1075 1550 l 1,3,-1
 1326 0 l 1,4,-1
 5 0 l 1,0,-1
314 180 m 1,5,-1
 1095 180 l 1,6,-1
 926 1218 l 1,7,-1
 314 180 l 1,5,-1
EndSplineSet
Validated: 1
EndChar

StartChar: product
Encoding: 8719 8719 156
Width: 1400
GlyphClass: 2
Flags: W
HStem: -430 21G<109 165.444 909 965.444> 1330 180<683 1283>
DStem2: 109 -430 308.87 -430 0.207912 0.978148<133.566 1840.88> 909 -430 1108.87 -430 0.207912 0.978148<133.566 1799.3>
LayerCount: 2
Fore
SplineSet
119 -430 m 1,0,-1
 109 -430 l 1,1,-1
 510 1460 l 1,2,-1
 627 1510 l 1,3,-1
 1521 1510 l 1,4,-1
 1128 -340 l 1,5,-1
 919 -430 l 1,6,-1
 909 -430 l 1,7,-1
 1283 1330 l 1,8,-1
 683 1330 l 1,9,-1
 328 -340 l 1,10,-1
 119 -430 l 1,0,-1
EndSplineSet
Validated: 1
EndChar

StartChar: summation
Encoding: 8721 8721 157
Width: 1203
GlyphClass: 2
Flags: W
HStem: -410 180<366 886> 1330 180<669 1236>
DStem2: 13 -410 366 -230 0.567925 0.82308<348.632 1214.95> 669 1330 411 1460 0.318189 -0.948027<0 712.359>
LayerCount: 2
Fore
SplineSet
13 -410 m 1,0,-1
 703 590 l 1,1,-1
 411 1460 l 1,2,-1
 528 1510 l 1,3,-1
 1354 1510 l 1,4,-1
 1352 1500 l 1,5,-1
 1236 1330 l 1,6,-1
 669 1330 l 1,7,-1
 927 559 l 1,8,-1
 366 -230 l 1,9,-1
 1004 -230 l 1,10,-1
 1002 -240 l 1,11,-1
 886 -410 l 1,12,-1
 13 -410 l 1,0,-1
EndSplineSet
Validated: 1
EndChar

StartChar: minus
Encoding: 8722 8722 158
Width: 1200
GlyphClass: 2
Flags: W
HStem: 680 150<392 1129>
LayerCount: 2
Fore
SplineSet
392 830 m 5,0,-1
 1226 830 l 5,1,-1
 1224 820 l 5,2,-1
 1129 680 l 5,3,-1
 295 680 l 5,4,-1
 297 690 l 5,5,-1
 392 830 l 5,0,-1
EndSplineSet
Validated: 1
EndChar

StartChar: uni2215
Encoding: 8725 8725 159
Width: 872
GlyphClass: 2
Flags: W
HStem: -20 21G<106.284 166.756> 1510 20G<1025.26 1086.01>
DStem2: 20 47 153 -20 0.566694 0.823928<20.1671 1799.35>
LayerCount: 2
Fore
SplineSet
143 -20 m 1,0,-1
 20 47 l 1,1,-1
 1039 1530 l 1,2,-1
 1049 1530 l 1,3,-1
 1173 1463 l 1,4,-1
 153 -20 l 1,5,-1
 143 -20 l 1,0,-1
EndSplineSet
Validated: 1
EndChar

StartChar: uni2219
Encoding: 8729 8729 160
Width: 340
GlyphClass: 2
Flags: W
HStem: 632 245<254.711 405.42>
VStem: 207 246<679.592 828.764>
LayerCount: 2
Fore
SplineSet
356 877 m 0,0,1
 408 877 408 877 434 841 c 0,2,3
 453 816 453 816 453 782 c 0,4,5
 453 768 453 768 450 754 c 0,6,7
 439 704 439 704 396.5 668 c 128,-1,8
 354 632 354 632 304 632 c 128,-1,9
 254 632 254 632 226 668 c 0,10,11
 207 693 207 693 207 727 c 0,12,13
 207 740 207 740 210 754 c 0,14,15
 221 804 221 804 263.5 840.5 c 128,-1,16
 306 877 306 877 356 877 c 0,0,1
EndSplineSet
Validated: 1
EndChar

StartChar: radical
Encoding: 8730 8730 161
Width: 1065
GlyphClass: 2
Flags: W
HStem: -20 21G<315.075 374.4> 1510 20G<1160.44 1217.7>
DStem2: 371 806 207 739 0.144706 -0.989475<42.5631 540.922> 444 270 502 55 0.506939 0.861982<0 1455.15>
LayerCount: 2
Fore
SplineSet
318 -20 m 1,0,-1
 207 739 l 1,1,-1
 361 806 l 1,2,-1
 371 806 l 1,3,-1
 444 270 l 1,4,-1
 1172 1530 l 1,5,-1
 1182 1530 l 1,6,-1
 1323 1451 l 1,7,-1
 502 55 l 1,8,-1
 328 -20 l 1,9,-1
 318 -20 l 1,0,-1
EndSplineSet
Validated: 1
EndChar

StartChar: infinity
Encoding: 8734 8734 162
Width: 1403
GlyphClass: 2
Flags: W
HStem: 447 125<486.693 699.681 964.693 1177.36> 938 125<546.202 759.332 1024.2 1237.33>
VStem: 307 146<627.19 841.567> 793 138<666.5 843.5> 1271 146<668.433 882.81>
CounterMasks: 1 38
LayerCount: 2
Fore
SplineSet
1062 572 m 128,-1,1
 1130 572 1130 572 1190 626 c 128,-1,2
 1250 680 1250 680 1266 755 c 16,3,4
 1271 778 1271 778 1271 798 c 0,5,6
 1271 846 1271 846 1245 884 c 0,7,8
 1208 938 1208 938 1140 938 c 128,-1,9
 1072 938 1072 938 1012 884 c 128,-1,10
 952 830 952 830 936 755 c 16,11,12
 931 732 931 732 931 712 c 0,13,14
 931 664 931 664 957 626 c 0,15,0
 994 572 994 572 1062 572 c 128,-1,1
584 572 m 128,-1,17
 652 572 652 572 712 626 c 128,-1,18
 772 680 772 680 788 755 c 16,19,20
 793 778 793 778 793 798 c 0,21,22
 793 846 793 846 767 884 c 0,23,24
 730 938 730 938 662 938 c 128,-1,25
 594 938 594 938 534 884 c 128,-1,26
 474 830 474 830 458 755 c 16,27,28
 453 732 453 732 453 712 c 0,29,30
 453 664 453 664 479 626 c 0,31,16
 516 572 516 572 584 572 c 128,-1,17
673 1063 m 0,32,33
 802 1063 802 1063 878 973 c 0,34,35
 887 963 887 963 894 953 c 1,36,37
 905 962 905 962 916 972 c 0,38,39
 1024 1062 1024 1062 1151 1063 c 0,40,41
 1280 1063 1280 1063 1356 973 c 0,42,43
 1417 902 1417 902 1417 805 c 0,44,45
 1417 780 1417 780 1414 755 c 0,46,47
 1394 628 1394 628 1285.5 537.5 c 128,-1,48
 1177 447 1177 447 1050 447 c 128,-1,49
 923 447 923 447 846 537 c 0,50,51
 837 547 837 547 830 558 c 1,52,53
 820 548 820 548 808 538 c 0,54,55
 700 448 700 448 572 447 c 0,56,57
 445 447 445 447 368 537 c 0,58,59
 307 609 307 609 307 705 c 0,60,61
 307 731 307 731 310 755 c 0,62,63
 330 882 330 882 438 972.5 c 128,-1,64
 546 1063 546 1063 673 1063 c 0,32,33
EndSplineSet
Validated: 1
EndChar

StartChar: approxequal
Encoding: 8776 8776 163
Width: 1138
GlyphClass: 2
Flags: W
HStem: 376 147<779.122 916.233> 590 147<459.267 595.917> 776 147<864.122 1001.23> 990 147<544.267 680.917>
LayerCount: 2
Fore
SplineSet
1145 737 m 1,0,1
 1068 376 1068 376 822 376 c 0,2,3
 695 376 695 376 624 503 c 0,4,5
 575 590 575 590 531 590 c 0,6,7
 455 590 455 590 425 456 c 1,8,-1
 240 376 l 1,9,-1
 230 376 l 1,10,11
 307 737 307 737 553 737 c 0,12,13
 680 737 680 737 751 610 c 0,14,15
 800 523 800 523 845 523 c 0,16,17
 921 523 921 523 951 657 c 1,18,-1
 1135 737 l 1,19,-1
 1145 737 l 1,0,1
1230 1137 m 1,20,21
 1153 776 1153 776 907 776 c 0,22,23
 780 776 780 776 709 903 c 0,24,25
 660 990 660 990 616 990 c 0,26,27
 540 990 540 990 510 856 c 1,28,-1
 325 776 l 1,29,-1
 315 776 l 1,30,31
 392 1137 392 1137 638 1137 c 0,32,33
 765 1137 765 1137 836 1010 c 0,34,35
 885 923 885 923 930 923 c 0,36,37
 1006 923 1006 923 1036 1057 c 1,38,-1
 1220 1137 l 1,39,-1
 1230 1137 l 1,20,21
EndSplineSet
Validated: 1
EndChar

StartChar: notequal
Encoding: 8800 8800 164
Width: 1200
GlyphClass: 2
Flags: W
HStem: 480 150<350 519 730 1086> 880 150<435 790 1002 1171>
DStem2: 308 170 415 166 0.561828 0.827254<56.8066 374.994 617.628 858.151 1101.35 1420.36>
LayerCount: 2
Fore
SplineSet
435 1030 m 1,0,-1
 892 1030 l 1,1,-1
 1106 1345 l 1,2,-1
 1205 1345 l 1,3,-1
 1213 1341 l 1,4,-1
 1002 1030 l 1,5,-1
 1269 1030 l 1,6,-1
 1267 1020 l 1,7,-1
 1171 880 l 1,8,-1
 900 880 l 1,9,-1
 730 630 l 1,10,-1
 1184 630 l 1,11,-1
 1182 620 l 1,12,-1
 1086 480 l 1,13,-1
 628 480 l 1,14,-1
 415 166 l 1,15,-1
 316 166 l 1,16,-1
 308 170 l 1,17,-1
 519 480 l 1,18,-1
 252 480 l 1,19,-1
 254 490 l 1,20,-1
 350 630 l 1,21,-1
 621 630 l 1,22,-1
 790 880 l 1,23,-1
 337 880 l 1,24,-1
 339 890 l 1,25,-1
 435 1030 l 1,0,-1
EndSplineSet
Validated: 1
EndChar

StartChar: lessequal
Encoding: 8804 8804 165
Width: 1315
GlyphClass: 2
Flags: W
HStem: 275 150<306 1107>
DStem2: 618 874 324 818 0.933865 -0.357626<0 637.463> 421 968 618 874 0.945717 0.324992<155.757 940.972>
LayerCount: 2
Fore
SplineSet
324 818 m 1,0,-1
 326 828 l 1,1,-1
 421 968 l 1,2,-1
 1326 1279 l 1,3,-1
 1364 1138 l 1,4,-1
 1361 1128 l 1,5,-1
 618 874 l 1,6,-1
 1251 643 l 1,7,-1
 1249 633 l 1,8,-1
 1157 499 l 1,9,-1
 324 818 l 1,0,-1
306 425 m 1,10,-1
 1205 425 l 1,11,-1
 1203 415 l 1,12,-1
 1107 275 l 1,13,-1
 208 275 l 1,14,-1
 211 285 l 1,15,-1
 306 425 l 1,10,-1
EndSplineSet
Validated: 1
EndChar

StartChar: greaterequal
Encoding: 8805 8805 166
Width: 1315
GlyphClass: 2
Flags: W
HStem: 275 150<356 1157>
DStem2: 332 650 367 499 0.945717 0.324992<0 785.216> 536 1279 442 1135 0.933865 -0.357626<0 637.463>
LayerCount: 2
Fore
SplineSet
1369 960 m 1,0,-1
 1367 950 l 1,1,-1
 1272 810 l 1,2,-1
 367 499 l 1,3,-1
 329 640 l 1,4,-1
 332 650 l 1,5,-1
 1075 904 l 1,6,-1
 442 1135 l 1,7,-1
 444 1145 l 1,8,-1
 536 1279 l 1,9,-1
 1369 960 l 1,0,-1
356 425 m 1,10,-1
 1255 425 l 1,11,-1
 1253 415 l 1,12,-1
 1157 275 l 1,13,-1
 258 275 l 1,14,-1
 261 285 l 1,15,-1
 356 425 l 1,10,-1
EndSplineSet
Validated: 1
EndChar

StartChar: lozenge
Encoding: 9674 9674 167
Width: 1134
GlyphClass: 2
Flags: W
HStem: -20 21G<554.926 579.531> 1510 20G<875.965 899.605>
DStem2: 257 738 453 745 0.625536 0.780196<128.066 705.753> 453 745 257 738 0.374342 -0.927291<0 491.528> 634 288 563 -20 0.637091 0.770789<0 569.538> 892 1530 814 1196 0.355404 -0.934713<284.473 782.376>
LayerCount: 2
Fore
SplineSet
634 288 m 1,0,-1
 992 731 l 1,1,-1
 814 1196 l 1,2,-1
 453 745 l 1,3,-1
 634 288 l 1,0,-1
563 -20 m 1,4,-1
 257 738 l 1,5,-1
 892 1530 l 1,6,-1
 1192 741 l 1,7,-1
 563 -20 l 1,4,-1
EndSplineSet
Validated: 1
EndChar

StartChar: Oslash
Encoding: 216 216 168
Width: 1330
Flags: W
HStem: -20 180<541.482 872.95> 1350 180<778.805 1110.13>
VStem: 249 199<303.994 511.785> 1203 199<998.215 1206.42>
DStem2: 151.746 -40 351.272 -40 0.207912 0.978148<475.352 1336.48> 233 -36 340 -40 0.562139 0.827043<56.8407 179.987 407.443 1567.07 1794.79 1917.11> 961.272 -40 1161.75 -40 0.207912 0.978148<328.4 1191.79>
LayerCount: 2
Fore
SplineSet
682 -20 m 0,0,1
 522 -20 522 -20 409 62 c 1,2,-1
 340 -40 l 1,3,-1
 241 -40 l 1,4,-1
 233 -36 l 1,5,-1
 342 124 l 1,6,7
 250 227 250 227 249 368 c 0,8,9
 249 418 249 418 261 474 c 2,10,-1
 380 1036 l 2,11,12
 428 1267 428 1267 582 1389 c 0,13,14
 760 1530 760 1530 970 1530 c 0,15,16
 1129 1530 1129 1530 1241 1449 c 1,17,-1
 1310 1550 l 1,18,-1
 1409 1550 l 1,19,-1
 1418 1546 l 1,20,-1
 1310 1387 l 1,21,22
 1402 1284 1402 1284 1402 1142 c 0,23,24
 1402 1091 1402 1091 1390 1036 c 2,25,-1
 1271 474 l 2,26,27
 1222 243 1222 243 1069 121 c 0,28,29
 892 -20 892 -20 682 -20 c 0,0,1
700 160 m 0,30,31
 826 160 826 160 932 240.5 c 128,-1,32
 1038 321 1038 321 1065 448 c 2,33,-1
 1196 1062 l 2,34,35
 1203 1097 1203 1097 1203 1128 c 0,36,37
 1203 1172 1203 1172 1189 1209 c 1,38,-1
 518 222 l 1,39,40
 587 160 587 160 700 160 c 0,30,31
462 301 m 1,41,-1
 1132 1289 l 1,42,43
 1062 1350 1062 1350 952 1350 c 0,44,45
 826 1350 826 1350 719.5 1269.5 c 128,-1,46
 613 1189 613 1189 586 1062 c 2,47,-1
 455 448 l 2,48,49
 448 414 448 414 448 382 c 0,50,51
 448 338 448 338 462 301 c 1,41,-1
EndSplineSet
Validated: 1
EndChar

StartChar: oslash
Encoding: 248 248 169
Width: 1150
Flags: W
HStem: -20 160<490.97 756.42> 960 160<627.08 892.156>
VStem: 232 180<243.875 428.805> 972 179<671.195 855.75>
DStem2: 151.026 -40 331.702 -40 0.207912 0.978148<401.289 976.307> 239 -36 346 -40 0.561501 0.827476<56.7707 146.939 335.601 1143.19 1331.36 1421.19> 801.702 -40 981.026 -40 0.207912 0.978148<267.366 842.592>
LayerCount: 2
Fore
SplineSet
591 -20 m 0,0,1
 478 -20 478 -20 394 30 c 1,2,-1
 346 -40 l 1,3,-1
 247 -40 l 1,4,-1
 239 -36 l 1,5,-1
 322 86 l 1,6,7
 232 183 232 183 232 302 c 0,8,9
 232 341 232 341 242 388 c 2,10,-1
 311 712 l 2,11,12
 352 905 352 905 474 1003 c 0,13,14
 620 1120 620 1120 792 1120 c 0,15,16
 905 1120 905 1120 990 1070 c 1,17,-1
 1037 1140 l 1,18,-1
 1136 1140 l 1,19,-1
 1144 1136 l 1,20,-1
 1061 1014 l 1,21,22
 1151 916 1151 916 1151 798 c 0,23,24
 1151 759 1151 759 1141 712 c 2,25,-1
 1072 388 l 2,26,27
 1031 195 1031 195 909 97 c 0,28,29
 763 -20 763 -20 591 -20 c 0,0,1
605 140 m 0,30,31
 703 140 703 140 785 203.5 c 128,-1,32
 867 267 867 267 888 366 c 2,33,-1
 966 734 l 2,34,35
 972 761 972 761 972 786 c 0,36,37
 972 826 972 826 956 859 c 1,38,-1
 489 171 l 1,39,40
 537 140 537 140 605 140 c 0,30,31
427 242 m 1,41,-1
 894 929 l 1,42,43
 847 960 847 960 779 960 c 0,44,45
 681 960 681 960 599 896.5 c 128,-1,46
 517 833 517 833 496 734 c 2,47,-1
 418 366 l 2,48,49
 412 339 412 339 412 314 c 0,50,51
 412 275 412 275 427 242 c 1,41,-1
EndSplineSet
Validated: 1
EndChar

StartChar: multiply
Encoding: 215 215 170
Width: 1142
Flags: W
HStem: 430 650
DStem2: 304 490 444 430 0.771307 0.636463<69.7952 413.577 583.216 926.998> 583 1080 417 1020 0.61735 -0.786688<0 277.852 416.849 694.7>
LayerCount: 2
Fore
SplineSet
1019 1080 m 1,0,-1
 1153 1027 l 1,1,-1
 1159 1020 l 1,2,-1
 837 755 l 1,3,-1
 1046 490 l 1,4,-1
 1038 483 l 1,5,-1
 880 430 l 1,6,-1
 709 649 l 1,7,-1
 444 430 l 1,8,-1
 310 483 l 1,9,-1
 304 490 l 1,10,-1
 625 755 l 1,11,-1
 417 1020 l 1,12,-1
 425 1027 l 1,13,-1
 583 1080 l 1,14,-1
 754 861 l 1,15,-1
 1019 1080 l 1,0,-1
EndSplineSet
Validated: 1
EndChar

StartChar: divide
Encoding: 247 247 171
Width: 1200
Flags: W
HStem: 306 245<615.58 766.42> 680 150<392 1129> 959 245<754.58 905.42>
VStem: 568 246<353.592 502.764> 707 246<1006.59 1155.76>
CounterMasks: 1 e0
LayerCount: 2
Fore
SplineSet
856 1204 m 0,0,1
 905 1204 905 1204 933 1168 c 0,2,3
 953 1142 953 1142 953 1109 c 0,4,5
 953 1095 953 1095 950 1081 c 0,6,7
 939 1031 939 1031 896.5 995 c 128,-1,8
 854 959 854 959 804 959 c 0,9,10
 755 959 755 959 727 995 c 0,11,12
 707 1021 707 1021 707 1054 c 0,13,14
 707 1067 707 1067 710 1081 c 0,15,16
 721 1131 721 1131 763.5 1167.5 c 128,-1,17
 806 1204 806 1204 856 1204 c 0,0,1
392 830 m 1,18,-1
 1226 830 l 1,19,-1
 1224 820 l 1,20,-1
 1129 680 l 1,21,-1
 295 680 l 1,22,-1
 297 690 l 1,23,-1
 392 830 l 1,18,-1
665 306 m 0,24,25
 616 306 616 306 588 342 c 0,26,27
 568 368 568 368 568 401 c 0,28,29
 568 414 568 414 571 428 c 0,30,31
 582 478 582 478 624.5 514.5 c 128,-1,32
 667 551 667 551 717 551 c 0,33,34
 766 551 766 551 794 515 c 0,35,36
 814 489 814 489 814 456 c 0,37,38
 814 442 814 442 811 428 c 0,39,40
 800 378 800 378 757.5 342 c 128,-1,41
 715 306 715 306 665 306 c 0,24,25
EndSplineSet
Validated: 1
EndChar

StartChar: uni1E02
Encoding: 7682 7682 172
Width: 1250
Flags: W
HStem: 0 180<438 887.306> 746 180<597 994.02> 1330 180<683 1079.58> 1630 245<903.027 1054.61>
VStem: 856 245<1676.4 1827.97> 1076 201<362.238 665.549> 1125 202<1035.5 1280.85>
DStem2: 200 0 399.74 0 0.207912 0.978148<225.55 804.338 988.306 1401.36>
LayerCount: 2
Fore
SplineSet
1004 1875 m 0,0,1
 1053 1875 1053 1875 1081 1839 c 0,2,3
 1101 1813 1101 1813 1101 1779 c 0,4,5
 1101 1763 1101 1763 1099 1752 c 0,6,7
 1089 1702 1089 1702 1045.5 1666 c 128,-1,8
 1002 1630 1002 1630 952 1630 c 128,-1,9
 902 1630 902 1630 875 1666 c 0,10,11
 856 1692 856 1692 856 1725 c 0,12,13
 856 1739 856 1739 859 1752 c 0,14,15
 869 1802 869 1802 911.5 1838.5 c 128,-1,16
 954 1875 954 1875 1004 1875 c 0,0,1
597 926 m 1,17,-1
 862 926 l 2,18,19
 954 926 954 926 1023 977 c 0,20,21
 1100 1034 1100 1034 1120 1127 c 0,22,23
 1125 1153 1125 1153 1125 1176 c 0,24,25
 1125 1237 1125 1237 1087 1279 c 0,26,27
 1040 1330 1040 1330 948 1330 c 2,28,-1
 683 1330 l 1,29,-1
 597 926 l 1,17,-1
438 180 m 1,30,-1
 703 180 l 2,31,32
 859 180 859 180 963 275 c 0,33,34
 1044 348 1044 348 1068 463 c 0,35,36
 1076 500 1076 500 1076 533 c 0,37,38
 1076 600 1076 600 1043 651 c 0,39,40
 982 746 982 746 824 746 c 2,41,-1
 559 746 l 1,42,-1
 438 180 l 1,30,-1
200 0 m 1,43,-1
 506 1440 l 1,44,-1
 669 1510 l 1,45,-1
 966 1510 l 2,46,47
 1130 1510 1130 1510 1227 1418 c 0,48,49
 1327 1324 1327 1324 1327 1197 c 0,50,51
 1327 1170 1327 1170 1322 1141 c 0,52,53
 1288 938 1288 938 1103 838 c 1,54,55
 1156 814 1156 814 1189 777 c 0,56,57
 1277 679 1277 679 1277 543 c 0,58,59
 1277 490 1277 490 1264 430 c 0,60,61
 1222 244 1222 244 1091 137 c 0,62,63
 925 0 925 0 685 0 c 2,64,-1
 200 0 l 1,43,-1
EndSplineSet
Validated: 1
EndChar

StartChar: uni1E03
Encoding: 7683 7683 173
Width: 1170
Flags: W
HStem: -20 160<491.659 776.42> 960 160<646.885 930.791> 1220 245<806.027 957.615> 1510 20G<628.827 685>
VStem: 252 180<201.427 428.805> 759 245<1266.4 1417.97> 992 177<671.195 898.75>
DStem2: 175.277 -20 355.953 -20 0.207912 0.978148<380.842 958.267 1111.97 1501.92> 825.953 -20 1005.28 -20 0.207912 0.978148<246.919 822.145>
LayerCount: 2
Fore
SplineSet
907 1465 m 0,0,1
 956 1465 956 1465 984 1429 c 0,2,3
 1004 1403 1004 1403 1004 1369 c 0,4,5
 1004 1353 1004 1353 1002 1342 c 0,6,7
 992 1292 992 1292 948.5 1256 c 128,-1,8
 905 1220 905 1220 855 1220 c 128,-1,9
 805 1220 805 1220 778 1256 c 0,10,11
 759 1282 759 1282 759 1315 c 0,12,13
 759 1329 759 1329 762 1342 c 0,14,15
 772 1392 772 1392 814.5 1428.5 c 128,-1,16
 857 1465 857 1465 907 1465 c 0,0,1
611 -20 m 128,-1,18
 439 -20 439 -20 332 97 c 0,19,20
 252 184 252 184 252 302 c 0,21,22
 252 343 252 343 262 388 c 2,23,-1
 488 1449 l 1,24,-1
 675 1530 l 1,25,-1
 685 1530 l 1,26,-1
 579 1031 l 1,27,28
 682 1120 682 1120 813 1120 c 0,29,30
 990 1120 990 1120 1086 1003 c 0,31,32
 1169 903 1169 903 1169 786 c 0,33,34
 1169 750 1169 750 1161 712 c 2,35,-1
 1092 388 l 2,36,37
 1051 195 1051 195 929 97 c 0,38,17
 783 -20 783 -20 611 -20 c 128,-1,18
799 960 m 128,-1,40
 701 960 701 960 619 896.5 c 128,-1,41
 537 833 537 833 516 734 c 2,42,-1
 438 366 l 2,43,44
 432 339 432 339 432 314 c 0,45,46
 432 250 432 250 472 204 c 0,47,48
 527 140 527 140 625 140 c 128,-1,49
 723 140 723 140 805 203.5 c 128,-1,50
 887 267 887 267 908 366 c 2,51,-1
 986 734 l 2,52,53
 992 761 992 761 992 786 c 0,54,55
 992 850 992 850 952 896 c 0,56,39
 897 960 897 960 799 960 c 128,-1,40
EndSplineSet
Validated: 1
EndChar

StartChar: uni1E0A
Encoding: 7690 7690 174
Width: 1350
Flags: W
HStem: 0 180<438 895.122> 1330 180<683 1125.52> 1630 245<933.027 1084.61>
VStem: 886 245<1676.4 1827.97> 1218 198<870.391 1239.32>
DStem2: 200 0 399.74 0 0.207912 0.978148<225.55 1401.36> 989.524 0 1190 0 0.207912 0.978148<309.484 1130.34>
LayerCount: 2
Fore
SplineSet
1034 1875 m 0,0,1
 1083 1875 1083 1875 1111 1839 c 0,2,3
 1131 1813 1131 1813 1131 1779 c 0,4,5
 1131 1763 1131 1763 1129 1752 c 0,6,7
 1119 1702 1119 1702 1075.5 1666 c 128,-1,8
 1032 1630 1032 1630 982 1630 c 128,-1,9
 932 1630 932 1630 905 1666 c 0,10,11
 886 1692 886 1692 886 1725 c 0,12,13
 886 1739 886 1739 889 1752 c 0,14,15
 899 1802 899 1802 941.5 1838.5 c 128,-1,16
 984 1875 984 1875 1034 1875 c 0,0,1
438 180 m 1,17,-1
 723 180 l 2,18,19
 848 180 848 180 955 260 c 128,-1,20
 1062 340 1062 340 1089 468 c 18,21,-1
 1211 1042 l 2,22,23
 1218 1077 1218 1077 1218 1108 c 0,24,25
 1218 1192 1218 1192 1166 1250 c 0,26,27
 1094 1330 1094 1330 968 1330 c 2,28,-1
 683 1330 l 1,29,-1
 438 180 l 1,17,-1
200 0 m 1,30,-1
 506 1440 l 1,31,-1
 669 1510 l 1,32,-1
 986 1510 l 2,33,34
 1197 1510 1197 1510 1314 1369 c 0,35,36
 1416 1247 1416 1247 1416 1105 c 0,37,38
 1416 1061 1416 1061 1406 1016 c 2,39,-1
 1295 494 l 2,40,41
 1246 265 1246 265 1092 141 c 0,42,43
 916 0 916 0 705 0 c 2,44,-1
 200 0 l 1,30,-1
EndSplineSet
Validated: 1
EndChar

StartChar: uni1E0B
Encoding: 7691 7691 175
Width: 1170
Flags: W
HStem: -20 160<471.659 756.42> 960 160<627.205 912.404> 1220 245<784.027 935.615> 1510 20G<1258.83 1315>
VStem: 232 180<201.427 428.805> 737 245<1266.4 1417.97>
DStem2: 155.277 -20 335.953 -20 0.207912 0.978148<380.842 955.86> 805.953 -20 985.277 -20 0.207912 0.978148<246.919 822.145 1074.41 1501.78>
LayerCount: 2
Fore
SplineSet
885 1465 m 0,0,1
 934 1465 934 1465 962 1429 c 0,2,3
 982 1403 982 1403 982 1369 c 0,4,5
 982 1353 982 1353 980 1342 c 0,6,7
 970 1292 970 1292 926.5 1256 c 128,-1,8
 883 1220 883 1220 833 1220 c 128,-1,9
 783 1220 783 1220 756 1256 c 0,10,11
 737 1282 737 1282 737 1315 c 0,12,13
 737 1329 737 1329 740 1342 c 0,14,15
 750 1392 750 1392 792.5 1428.5 c 128,-1,16
 835 1465 835 1465 885 1465 c 0,0,1
591 -20 m 128,-1,18
 419 -20 419 -20 312 97 c 0,19,20
 232 184 232 184 232 302 c 0,21,22
 232 343 232 343 242 388 c 2,23,-1
 311 712 l 2,24,25
 352 905 352 905 474 1003 c 0,26,27
 620 1120 620 1120 793 1120 c 0,28,29
 945 1120 945 1120 1029 1031 c 1,30,-1
 1118 1449 l 1,31,-1
 1305 1530 l 1,32,-1
 1315 1530 l 1,33,-1
 1072 388 l 2,34,35
 1031 195 1031 195 909 97 c 0,36,17
 763 -20 763 -20 591 -20 c 128,-1,18
779 960 m 128,-1,38
 681 960 681 960 599 896.5 c 128,-1,39
 517 833 517 833 496 734 c 2,40,-1
 418 366 l 2,41,42
 412 339 412 339 412 314 c 0,43,44
 412 250 412 250 452 204 c 0,45,46
 507 140 507 140 605 140 c 128,-1,47
 703 140 703 140 785 203.5 c 128,-1,48
 867 267 867 267 888 366 c 2,49,-1
 966 734 l 2,50,51
 972 761 972 761 972 786 c 0,52,53
 972 850 972 850 932 896 c 0,54,37
 877 960 877 960 779 960 c 128,-1,38
EndSplineSet
Validated: 1
EndChar

StartChar: uni1E1E
Encoding: 7710 7710 176
Width: 1010
Flags: W
HStem: -20 21G<196 252.444> 665 180<580 1021> 1330 180<683 1163> 1630 245<892.027 1043.61>
VStem: 845 245<1676.4 1827.97>
DStem2: 196 -20 395.87 -20 0.207912 0.978148<133.566 741.761 925.936 1421.75>
LayerCount: 2
Fore
SplineSet
993 1875 m 0,0,1
 1042 1875 1042 1875 1070 1839 c 0,2,3
 1090 1813 1090 1813 1090 1779 c 0,4,5
 1090 1763 1090 1763 1088 1752 c 0,6,7
 1078 1702 1078 1702 1034.5 1666 c 128,-1,8
 991 1630 991 1630 941 1630 c 128,-1,9
 891 1630 891 1630 864 1666 c 0,10,11
 845 1692 845 1692 845 1725 c 0,12,13
 845 1739 845 1739 848 1752 c 0,14,15
 858 1802 858 1802 900.5 1838.5 c 128,-1,16
 943 1875 943 1875 993 1875 c 0,0,1
196 -20 m 1,17,-1
 506 1440 l 1,18,-1
 669 1510 l 1,19,-1
 1281 1510 l 1,20,-1
 1279 1500 l 1,21,-1
 1163 1330 l 1,22,-1
 683 1330 l 1,23,-1
 580 845 l 1,24,-1
 1140 845 l 1,25,-1
 1137 835 l 1,26,-1
 1021 665 l 1,27,-1
 541 665 l 1,28,-1
 415 70 l 1,29,-1
 206 -20 l 1,30,-1
 196 -20 l 1,17,-1
EndSplineSet
Validated: 1
EndChar

StartChar: uni1E1F
Encoding: 7711 7711 177
Width: 780
Flags: W
HStem: -20 21G<176 232.173> 740 160<551 817> 1350 160<730.66 986> 1630 245<738.027 889.615>
VStem: 691 245<1676.4 1827.97>
DStem2: 176 -20 355.783 -20 0.207912 0.978148<120.189 814.29 977.863 1354.52>
LayerCount: 2
Fore
SplineSet
839 1875 m 0,0,1
 888 1875 888 1875 916 1839 c 0,2,3
 936 1813 936 1813 936 1779 c 0,4,5
 936 1763 936 1763 934 1752 c 0,6,7
 924 1702 924 1702 880.5 1666 c 128,-1,8
 837 1630 837 1630 787 1630 c 128,-1,9
 737 1630 737 1630 710 1666 c 0,10,11
 691 1692 691 1692 691 1725 c 0,12,13
 691 1739 691 1739 694 1752 c 0,14,15
 704 1802 704 1802 746.5 1838.5 c 128,-1,16
 789 1875 789 1875 839 1875 c 0,0,1
176 -20 m 1,17,-1
 414 1102 l 2,18,19
 455 1295 455 1295 578 1393 c 0,20,21
 724 1510 724 1510 896 1510 c 2,22,-1
 1091 1510 l 1,23,-1
 1089 1500 l 1,24,-1
 986 1350 l 1,25,-1
 882 1350 l 2,26,27
 784 1350 784 1350 702 1286 c 0,28,29
 620 1223 620 1223 599 1124 c 2,30,-1
 551 900 l 1,31,-1
 922 900 l 1,32,-1
 920 890 l 1,33,-1
 817 740 l 1,34,-1
 517 740 l 1,35,-1
 373 61 l 1,36,-1
 186 -20 l 1,37,-1
 176 -20 l 1,17,-1
EndSplineSet
Validated: 1
EndChar

StartChar: uni1E40
Encoding: 7744 7744 178
Width: 2180
Flags: W
HStem: -20 21G<176 232.444 986 1042.44 1796 1852.44> 1350 180<798.893 1130.66 1608.08 1941.41> 1630 245<1385.03 1536.61>
VStem: 1338 245<1676.4 1827.97> 2033 199<996.55 1259.66>
DStem2: 176 -20 375.87 -20 0.207912 0.978148<133.566 1316.03> 986 -20 1185.87 -20 0.207912 0.978148<133.566 1171.24> 1796 -20 1995.87 -20 0.207912 0.978148<133.566 1171.24>
LayerCount: 2
Fore
SplineSet
1486 1875 m 0,0,1
 1535 1875 1535 1875 1563 1839 c 0,2,3
 1583 1813 1583 1813 1583 1779 c 0,4,5
 1583 1763 1583 1763 1581 1752 c 0,6,7
 1571 1702 1571 1702 1527.5 1666 c 128,-1,8
 1484 1630 1484 1630 1434 1630 c 128,-1,9
 1384 1630 1384 1630 1357 1666 c 0,10,11
 1338 1692 1338 1692 1338 1725 c 0,12,13
 1338 1739 1338 1739 1341 1752 c 0,14,15
 1351 1802 1351 1802 1393.5 1838.5 c 128,-1,16
 1436 1875 1436 1875 1486 1875 c 0,0,1
176 -20 m 1,17,-1
 400 1036 l 2,18,19
 448 1267 448 1267 602 1389 c 0,20,21
 780 1530 780 1530 990.5 1530 c 128,-1,22
 1201 1530 1201 1530 1318 1389 c 0,23,24
 1339 1364 1339 1364 1354 1337 c 1,25,26
 1378 1361 1378 1361 1413 1389 c 0,27,28
 1586 1530 1586 1530 1801 1530 c 0,29,30
 2011 1530 2011 1530 2138 1389 c 0,31,32
 2232 1285 2232 1285 2232 1142 c 0,33,34
 2232 1091 2232 1091 2220 1036 c 2,35,-1
 2015 70 l 1,36,-1
 1806 -20 l 1,37,-1
 1796 -20 l 1,38,-1
 2026 1062 l 2,39,40
 2033 1097 2033 1097 2033 1128 c 0,41,42
 2033 1212 2033 1212 1981 1270 c 0,43,44
 1909 1350 1909 1350 1782.5 1350 c 128,-1,45
 1656 1350 1656 1350 1549.5 1269.5 c 128,-1,46
 1443 1189 1443 1189 1416 1062 c 2,47,-1
 1205 70 l 1,48,-1
 996 -20 l 1,49,-1
 986 -20 l 1,50,-1
 1216 1062 l 2,51,52
 1223 1097 1223 1097 1223 1128 c 0,53,54
 1223 1212 1223 1212 1171 1270 c 0,55,56
 1099 1350 1099 1350 972.5 1350 c 128,-1,57
 846 1350 846 1350 739.5 1269.5 c 128,-1,58
 633 1189 633 1189 606 1062 c 2,59,-1
 395 70 l 1,60,-1
 186 -20 l 1,61,-1
 176 -20 l 1,17,-1
EndSplineSet
Validated: 1
EndChar

StartChar: uni1E41
Encoding: 7745 7745 179
Width: 1840
Flags: W
HStem: -20 21G<176 232.173 826 882.173 1476 1532.17> 960 160<647.205 932.373 1297.46 1580.46> 1220 245<1126.03 1277.61>
VStem: 1079 245<1266.4 1417.97> 1642 179<668.883 898.573>
DStem2: 176 -20 355.783 -20 0.207912 0.978148<120.189 955.71> 826 -20 1023 61 0.184724 0.98279<115.997 822.025> 1476 -20 1655.78 -20 0.207912 0.978148<120.189 822.135>
LayerCount: 2
Fore
SplineSet
1227 1465 m 0,0,1
 1276 1465 1276 1465 1304 1429 c 0,2,3
 1324 1403 1324 1403 1324 1369 c 0,4,5
 1324 1353 1324 1353 1322 1342 c 0,6,7
 1312 1292 1312 1292 1268.5 1256 c 128,-1,8
 1225 1220 1225 1220 1175 1220 c 128,-1,9
 1125 1220 1125 1220 1098 1256 c 0,10,11
 1079 1282 1079 1282 1079 1315 c 0,12,13
 1079 1329 1079 1329 1082 1342 c 0,14,15
 1092 1392 1092 1392 1134.5 1428.5 c 128,-1,16
 1177 1465 1177 1465 1227 1465 c 0,0,1
176 -20 m 1,17,-1
 331 712 l 2,18,19
 372 905 372 905 494 1003 c 0,20,21
 640 1120 640 1120 813 1120 c 0,22,23
 979 1120 979 1120 1081 1003 c 0,24,25
 1095 987 1095 987 1106 969 c 1,26,27
 1126 986 1126 986 1145 1003 c 0,28,29
 1290 1120 1290 1120 1464 1120 c 0,30,31
 1636 1120 1636 1120 1742 1003 c 0,32,33
 1821 916 1821 916 1821 798 c 0,34,35
 1821 757 1821 757 1811 712 c 2,36,-1
 1673 61 l 1,37,-1
 1486 -20 l 1,38,-1
 1476 -20 l 1,39,-1
 1636 734 l 2,40,41
 1642 761 1642 761 1642 786 c 0,42,43
 1642 850 1642 850 1602 896 c 0,44,45
 1547 960 1547 960 1449 960 c 128,-1,46
 1351 960 1351 960 1269 896.5 c 128,-1,47
 1187 833 1187 833 1166 734 c 2,48,-1
 1023 61 l 1,49,-1
 836 -20 l 1,50,-1
 826 -20 l 1,51,-1
 986 734 l 2,52,53
 992 761 992 761 992 786 c 0,54,55
 992 850 992 850 952 896 c 0,56,57
 897 960 897 960 799 960 c 128,-1,58
 701 960 701 960 619 896.5 c 128,-1,59
 537 833 537 833 516 734 c 2,60,-1
 373 61 l 1,61,-1
 186 -20 l 1,62,-1
 176 -20 l 1,17,-1
EndSplineSet
Validated: 1
EndChar

StartChar: uni1E56
Encoding: 7766 7766 180
Width: 1210
Flags: W
HStem: -20 21G<196 252.444> 500 180<545 984.614> 1330 180<683 1099.65> 1630 245<886.027 1037.61>
VStem: 839 245<1676.4 1827.97> 1182 196<891.28 1245.66>
DStem2: 196 -20 395.87 -20 0.207912 0.978148<133.566 573.089 757.265 1421.75>
LayerCount: 2
Fore
SplineSet
987 1875 m 0,0,1
 1036 1875 1036 1875 1064 1839 c 0,2,3
 1084 1813 1084 1813 1084 1779 c 0,4,5
 1084 1763 1084 1763 1082 1752 c 0,6,7
 1072 1702 1072 1702 1028.5 1666 c 128,-1,8
 985 1630 985 1630 935 1630 c 128,-1,9
 885 1630 885 1630 858 1666 c 0,10,11
 839 1692 839 1692 839 1725 c 0,12,13
 839 1739 839 1739 842 1752 c 0,14,15
 852 1802 852 1802 894.5 1838.5 c 128,-1,16
 937 1875 937 1875 987 1875 c 0,0,1
545 680 m 1,17,-1
 817 680 l 2,18,19
 957 680 957 680 1056 776 c 0,20,21
 1146 863 1146 863 1174 1004 c 0,22,23
 1182 1044 1182 1044 1182 1080 c 0,24,25
 1182 1173 1182 1173 1147 1232 c 0,26,27
 1090 1330 1090 1330 955 1330 c 2,28,-1
 683 1330 l 1,29,-1
 545 680 l 1,17,-1
196 -20 m 1,30,-1
 506 1440 l 1,31,-1
 669 1510 l 1,32,-1
 967 1510 l 2,33,34
 1188 1510 1188 1510 1294 1364 c 0,35,36
 1377 1250 1377 1250 1378 1079 c 0,37,38
 1378 1042 1378 1042 1374 1004 c 0,39,40
 1350 781 1350 781 1187 644 c 0,41,42
 1017 500 1017 500 792 500 c 2,43,-1
 506 500 l 1,44,-1
 415 70 l 1,45,-1
 206 -20 l 1,46,-1
 196 -20 l 1,30,-1
EndSplineSet
Validated: 1
EndChar

StartChar: uni1E57
Encoding: 7767 7767 181
Width: 1170
Flags: W
HStem: -430 21G<89 145.173> -20 160<491.596 776.42> 960 160<647.143 932.244> 1220 245<808.027 959.615>
VStem: 761 245<1266.4 1417.97> 992 179<671.195 898.573>
DStem2: 89 -430 268.783 -430 0.207912 0.978148<120.189 547.558 799.82 1374.84> 738.805 -430 918.129 -430 0.207912 0.978148<666.078 1241.3>
LayerCount: 2
Fore
SplineSet
909 1465 m 0,0,1
 958 1465 958 1465 986 1429 c 0,2,3
 1006 1403 1006 1403 1006 1369 c 0,4,5
 1006 1353 1006 1353 1004 1342 c 0,6,7
 994 1292 994 1292 950.5 1256 c 128,-1,8
 907 1220 907 1220 857 1220 c 128,-1,9
 807 1220 807 1220 780 1256 c 0,10,11
 761 1282 761 1282 761 1315 c 0,12,13
 761 1329 761 1329 764 1342 c 0,14,15
 774 1392 774 1392 816.5 1428.5 c 128,-1,16
 859 1465 859 1465 909 1465 c 0,0,1
89 -430 m 1,17,-1
 331 712 l 2,18,19
 372 905 372 905 494 1003 c 0,20,21
 640 1120 640 1120 812.5 1120 c 128,-1,22
 985 1120 985 1120 1092 1003 c 0,23,24
 1171 916 1171 916 1171 798 c 0,25,26
 1171 757 1171 757 1161 712 c 2,27,-1
 1092 388 l 2,28,29
 1051 195 1051 195 929 97 c 0,30,31
 783 -20 783 -20 611 -20 c 0,32,33
 459 -20 459 -20 375 69 c 1,34,-1
 286 -349 l 1,35,-1
 99 -430 l 1,36,-1
 89 -430 l 1,17,-1
625 140 m 128,-1,38
 723 140 723 140 805 203.5 c 128,-1,39
 887 267 887 267 908 366 c 2,40,-1
 986 734 l 2,41,42
 992 761 992 761 992 786 c 0,43,44
 992 850 992 850 952 896 c 0,45,46
 897 960 897 960 799 960 c 128,-1,47
 701 960 701 960 619 896.5 c 128,-1,48
 537 833 537 833 516 734 c 2,49,-1
 438 366 l 2,50,51
 432 339 432 339 432 314 c 0,52,53
 432 250 432 250 472 204 c 0,54,37
 527 140 527 140 625 140 c 128,-1,38
EndSplineSet
Validated: 1
EndChar

StartChar: uni1E6A
Encoding: 7786 7786 182
Width: 1070
Flags: W
HStem: -20 21G<431 487.444> 1330 180<411 718 918 1263> 1630 245<827.027 978.615>
VStem: 780 245<1676.4 1827.97>
DStem2: 431 -20 630.87 -20 0.207912 0.978148<133.566 1380.17>
LayerCount: 2
Fore
SplineSet
928 1875 m 0,0,1
 977 1875 977 1875 1005 1839 c 0,2,3
 1025 1813 1025 1813 1025 1779 c 0,4,5
 1025 1763 1025 1763 1023 1752 c 0,6,7
 1013 1702 1013 1702 969.5 1666 c 128,-1,8
 926 1630 926 1630 876 1630 c 128,-1,9
 826 1630 826 1630 799 1666 c 0,10,11
 780 1692 780 1692 780 1725 c 0,12,13
 780 1739 780 1739 783 1752 c 0,14,15
 793 1802 793 1802 835.5 1838.5 c 128,-1,16
 878 1875 878 1875 928 1875 c 0,0,1
431 -20 m 1,17,-1
 718 1330 l 1,18,-1
 293 1330 l 1,19,-1
 295 1340 l 1,20,-1
 411 1510 l 1,21,-1
 1381 1510 l 1,22,-1
 1379 1500 l 1,23,-1
 1263 1330 l 1,24,-1
 918 1330 l 1,25,-1
 650 70 l 1,26,-1
 441 -20 l 1,27,-1
 431 -20 l 1,17,-1
EndSplineSet
Validated: 1
EndChar

StartChar: uni1E6B
Encoding: 7787 7787 183
Width: 780
Flags: W
HStem: -20 21G<296 352.173> 940 160<315 500 714 899> 1510 20G<748.827 805> 1630 245<688.027 839.615>
VStem: 641 245<1676.4 1827.97>
DStem2: 296 -20 475.783 -20 0.207912 0.978148<120.189 981.436 1182.43 1501.77>
LayerCount: 2
Fore
SplineSet
789 1875 m 0,0,1
 838 1875 838 1875 866 1839 c 0,2,3
 886 1813 886 1813 886 1779 c 0,4,5
 886 1763 886 1763 884 1752 c 0,6,7
 874 1702 874 1702 830.5 1666 c 128,-1,8
 787 1630 787 1630 737 1630 c 128,-1,9
 687 1630 687 1630 660 1666 c 0,10,11
 641 1692 641 1692 641 1725 c 0,12,13
 641 1739 641 1739 644 1752 c 0,14,15
 654 1802 654 1802 696.5 1838.5 c 128,-1,16
 739 1875 739 1875 789 1875 c 0,0,1
296 -20 m 1,17,-1
 500 940 l 1,18,-1
 210 940 l 1,19,-1
 212 950 l 1,20,-1
 315 1100 l 1,21,-1
 534 1100 l 1,22,-1
 608 1449 l 1,23,-1
 795 1530 l 1,24,-1
 805 1530 l 1,25,-1
 714 1100 l 1,26,-1
 1004 1100 l 1,27,-1
 1002 1090 l 1,28,-1
 899 940 l 1,29,-1
 680 940 l 1,30,-1
 493 61 l 1,31,-1
 306 -20 l 1,32,-1
 296 -20 l 1,17,-1
EndSplineSet
Validated: 1
EndChar

StartChar: uni1E60
Encoding: 7776 7776 184
Width: 1140
Flags: W
HStem: -20 180<429.086 757.165> 1350 180<698.796 975.777> 1630 245<865.027 1016.61>
VStem: 147 190<250.08 367> 387 199<994.335 1238.27> 818 245<1676.4 1827.97> 962 205<363.5 666.285>
LayerCount: 2
Fore
SplineSet
966 1875 m 0,0,1
 1015 1875 1015 1875 1043 1839 c 0,2,3
 1063 1813 1063 1813 1063 1779 c 0,4,5
 1063 1763 1063 1763 1061 1752 c 0,6,7
 1051 1702 1051 1702 1007.5 1666 c 128,-1,8
 964 1630 964 1630 914 1630 c 128,-1,9
 864 1630 864 1630 837 1666 c 0,10,11
 818 1692 818 1692 818 1725 c 0,12,13
 818 1739 818 1739 821 1752 c 0,14,15
 831 1802 831 1802 873.5 1838.5 c 128,-1,16
 916 1875 916 1875 966 1875 c 0,0,1
570 -20 m 0,17,18
 359 -20 359 -20 242 121 c 0,19,20
 149 233 149 233 147 367 c 1,21,-1
 334 448 l 1,22,-1
 344 448 l 1,23,24
 337 412 337 412 337 381 c 0,25,26
 337 298 337 298 388 240 c 0,27,28
 461 160 461 160 585 160 c 0,29,30
 719 160 719 160 824 251 c 0,31,32
 931 342 931 342 954 465 c 0,33,34
 962 508 962 508 962 542 c 0,35,36
 962 612 962 612 927 656 c 0,37,38
 866 732 866 732 721 749 c 0,39,40
 548 770 548 770 453 871 c 0,41,42
 387 941 387 941 387 1061 c 0,43,44
 387 1089 387 1089 391 1120 c 0,45,46
 414 1314 414 1314 561 1424 c 0,47,48
 702 1530 702 1530 868.5 1530 c 128,-1,49
 1035 1530 1035 1530 1130 1417 c 0,50,51
 1208 1324 1208 1324 1210 1233 c 1,52,-1
 1026 1153 l 1,53,-1
 1018 1153 l 1,54,55
 1022 1176 1022 1176 1022 1197 c 0,56,57
 1022 1255 1022 1255 988 1295 c 0,58,59
 940 1350 940 1350 853 1350 c 0,60,61
 756 1350 756 1350 688 1298 c 0,62,63
 610 1238 610 1238 591 1145 c 0,64,65
 586 1121 586 1121 586 1099 c 0,66,67
 586 957 586 957 795 932 c 0,68,69
 1009 907 1009 907 1101 781 c 0,70,71
 1167 690 1167 690 1167 560 c 0,72,73
 1167 520 1167 520 1161 477 c 0,74,75
 1131 264 1131 264 958 122 c 0,76,77
 783 -20 783 -20 570 -20 c 0,17,18
EndSplineSet
Validated: 1
EndChar

StartChar: uni1E61
Encoding: 7777 7777 185
Width: 930
Flags: W
HStem: -20 155<351.082 631.54> 970 150<535.971 762.375> 1220 245<663.027 814.615>
VStem: 128 173<185.301 276> 298 176<723.71 905.479> 616 245<1266.4 1417.97> 748 181<250.847 474.237>
LayerCount: 2
Fore
SplineSet
764 1465 m 0,0,1
 813 1465 813 1465 841 1429 c 0,2,3
 861 1403 861 1403 861 1369 c 0,4,5
 861 1353 861 1353 859 1342 c 0,6,7
 849 1292 849 1292 805.5 1256 c 128,-1,8
 762 1220 762 1220 712 1220 c 128,-1,9
 662 1220 662 1220 635 1256 c 0,10,11
 616 1282 616 1282 616 1315 c 0,12,13
 616 1329 616 1329 619 1342 c 0,14,15
 629 1392 629 1392 671.5 1428.5 c 128,-1,16
 714 1465 714 1465 764 1465 c 0,0,1
465 -20 m 0,17,18
 292 -20 292 -20 201 85 c 0,19,20
 132 166 132 166 128 276 c 1,21,-1
 297 349 l 1,22,-1
 307 349 l 1,23,24
 301 323 301 323 301 299 c 0,25,26
 301 230 301 230 348 182 c 0,27,28
 394 135 394 135 484 135 c 0,29,30
 580 135 580 135 651 194 c 0,31,32
 724 254 724 254 743 342 c 0,33,34
 748 363 748 363 748 382 c 0,35,36
 748 501 748 501 567 523 c 0,37,38
 434 540 434 540 360 615 c 0,39,40
 298 678 298 678 298 771 c 0,41,42
 298 791 298 791 301 812 c 0,43,44
 321 960 321 960 429 1038 c 0,45,46
 542 1120 542 1120 678 1120 c 0,47,48
 820 1120 820 1120 893 1036 c 0,49,50
 952 967 952 967 955 887 c 1,51,-1
 789 815 l 1,52,-1
 779 815 l 1,53,54
 784 838 784 838 784 857 c 0,55,56
 784 899 784 899 762 928 c 0,57,58
 730 970 730 970 663 970 c 0,59,60
 591 970 591 970 544 932 c 0,61,62
 490 889 490 889 477 827 c 0,63,64
 474 813 474 813 474 800 c 0,65,66
 474 706 474 706 635 687 c 0,67,68
 803 667 803 667 873 576 c 0,69,70
 929 505 929 505 929 407 c 0,71,72
 929 379 929 379 924 349 c 0,73,74
 899 183 899 183 771 87 c 0,75,76
 628 -20 628 -20 465 -20 c 0,17,18
EndSplineSet
Validated: 1
EndChar

StartChar: Wgrave
Encoding: 7808 7808 186
Width: 2180
Flags: W
HStem: -20 180<559.594 892.922 1370.24 1704.72> 1510 20G<648.556 705 1458.56 1515 2268.56 2325>
VStem: 269 199<250.34 513.45>
DStem2: 175.997 -20 375.524 -20 0.207912 0.978148<454.875 1492.55> 985.524 -20 1185.52 -20 0.207912 0.978148<454.974 1492.65> 1442 1937 1300 1880 0.252042 -0.967716<19.3699 321.375> 1795.52 -20 1996 -20 0.207912 0.978148<310.185 1492.65>
LayerCount: 2
Fore
SplineSet
700 -20 m 0,0,1
 490 -20 490 -20 363 121 c 0,2,3
 269 225 269 225 269 368 c 0,4,5
 269 419 269 419 281 474 c 2,6,-1
 486 1440 l 1,7,-1
 695 1530 l 1,8,-1
 705 1530 l 1,9,-1
 475 448 l 2,10,11
 468 413 468 413 468 382 c 0,12,13
 468 298 468 298 520 240 c 0,14,15
 592 160 592 160 718.5 160 c 128,-1,16
 845 160 845 160 951.5 240.5 c 128,-1,17
 1058 321 1058 321 1085 448 c 2,18,-1
 1296 1440 l 1,19,-1
 1505 1530 l 1,20,-1
 1515 1530 l 1,21,-1
 1285 448 l 2,22,23
 1278 413 1278 413 1278 382 c 0,24,25
 1278 298 1278 298 1330 240 c 0,26,27
 1402 160 1402 160 1528.5 160 c 128,-1,28
 1655 160 1655 160 1761.5 240.5 c 128,-1,29
 1868 321 1868 321 1895 448 c 2,30,-1
 2106 1440 l 1,31,-1
 2315 1530 l 1,32,-1
 2325 1530 l 1,33,-1
 2101 474 l 2,34,35
 2052 243 2052 243 1898 121 c 0,36,37
 1720 -20 1720 -20 1510 -20 c 128,-1,38
 1300 -20 1300 -20 1183 121 c 0,39,40
 1162 146 1162 146 1147 173 c 1,41,42
 1119 146 1119 146 1088 121 c 0,43,44
 915 -20 915 -20 700 -20 c 0,0,1
1432 1937 m 1,45,-1
 1442 1937 l 1,46,-1
 1523 1626 l 1,47,-1
 1393 1570 l 1,48,-1
 1383 1570 l 1,49,-1
 1300 1880 l 1,50,-1
 1432 1937 l 1,45,-1
EndSplineSet
Validated: 1
EndChar

StartChar: wgrave
Encoding: 7809 7809 187
Width: 1840
Flags: W
HStem: -20 160<493.538 776.545 1141.63 1426.42> 1100 20G<541.827 598 1191.83 1248 1841.83 1898> 1507 20G<1130.33 1192.14>
VStem: 252 180<201.427 431.117>
DStem2: 175.277 -20 355.953 -20 0.207912 0.978148<380.842 1082.79> 825.903 -20 1005.95 -20 0.207912 0.978148<380.712 1082.66> 1187 1527 1044 1470 0.261536 -0.965194<17.6163 321.098> 1475.9 -20 1655.69 -20 0.207912 0.978148<246.929 1082.66>
LayerCount: 2
Fore
SplineSet
610 -20 m 0,0,1
 438 -20 438 -20 332 97 c 0,2,3
 252 184 252 184 252 302 c 0,4,5
 252 343 252 343 262 388 c 2,6,-1
 401 1039 l 1,7,-1
 588 1120 l 1,8,-1
 598 1120 l 1,9,-1
 438 366 l 2,10,11
 432 339 432 339 432 314 c 0,12,13
 432 250 432 250 472 204 c 0,14,15
 527 140 527 140 625 140 c 128,-1,16
 723 140 723 140 805 203.5 c 128,-1,17
 887 267 887 267 908 366 c 2,18,-1
 1051 1039 l 1,19,-1
 1238 1120 l 1,20,-1
 1248 1120 l 1,21,-1
 1088 366 l 2,22,23
 1082 339 1082 339 1082 314 c 0,24,25
 1082 250 1082 250 1122 204 c 0,26,27
 1177 140 1177 140 1275 140 c 128,-1,28
 1373 140 1373 140 1455 203.5 c 128,-1,29
 1537 267 1537 267 1558 366 c 2,30,-1
 1701 1039 l 1,31,-1
 1888 1120 l 1,32,-1
 1898 1120 l 1,33,-1
 1742 388 l 2,34,35
 1701 195 1701 195 1579 97 c 0,36,37
 1433 -20 1433 -20 1261 -20 c 0,38,39
 1095 -20 1095 -20 993 97 c 0,40,41
 979 113 979 113 968 131 c 1,42,43
 948 114 948 114 929 97 c 0,44,45
 784 -20 784 -20 610 -20 c 0,0,1
1177 1527 m 1,46,-1
 1187 1527 l 1,47,-1
 1267 1216 l 1,48,-1
 1138 1160 l 1,49,-1
 1128 1160 l 1,50,-1
 1044 1470 l 1,51,-1
 1177 1527 l 1,46,-1
EndSplineSet
Validated: 1
EndChar

StartChar: Wacute
Encoding: 7810 7810 188
Width: 2180
Flags: W
HStem: -20 180<559.594 892.922 1370.24 1704.72> 1510 20G<648.556 705 1458.56 1515 2268.56 2325>
VStem: 269 199<250.34 513.45>
DStem2: 175.997 -20 375.524 -20 0.207912 0.978148<454.875 1492.55> 985.524 -20 1185.52 -20 0.207912 0.978148<454.974 1492.65> 1319 1634 1442 1570 0.550881 0.834584<14.3449 363.055> 1795.52 -20 1996 -20 0.207912 0.978148<310.185 1492.65>
LayerCount: 2
Fore
SplineSet
1529 1937 m 1,0,-1
 1642 1873 l 1,1,-1
 1442 1570 l 1,2,-1
 1432 1570 l 1,3,-1
 1319 1634 l 1,4,-1
 1519 1937 l 1,5,-1
 1529 1937 l 1,0,-1
700 -20 m 0,6,7
 490 -20 490 -20 363 121 c 0,8,9
 269 225 269 225 269 368 c 0,10,11
 269 419 269 419 281 474 c 2,12,-1
 486 1440 l 1,13,-1
 695 1530 l 1,14,-1
 705 1530 l 1,15,-1
 475 448 l 2,16,17
 468 413 468 413 468 382 c 0,18,19
 468 298 468 298 520 240 c 0,20,21
 592 160 592 160 718.5 160 c 128,-1,22
 845 160 845 160 951.5 240.5 c 128,-1,23
 1058 321 1058 321 1085 448 c 2,24,-1
 1296 1440 l 1,25,-1
 1505 1530 l 1,26,-1
 1515 1530 l 1,27,-1
 1285 448 l 2,28,29
 1278 413 1278 413 1278 382 c 0,30,31
 1278 298 1278 298 1330 240 c 0,32,33
 1402 160 1402 160 1528.5 160 c 128,-1,34
 1655 160 1655 160 1761.5 240.5 c 128,-1,35
 1868 321 1868 321 1895 448 c 2,36,-1
 2106 1440 l 1,37,-1
 2315 1530 l 1,38,-1
 2325 1530 l 1,39,-1
 2101 474 l 2,40,41
 2052 243 2052 243 1898 121 c 0,42,43
 1720 -20 1720 -20 1510 -20 c 128,-1,44
 1300 -20 1300 -20 1183 121 c 0,45,46
 1162 146 1162 146 1147 173 c 1,47,48
 1119 146 1119 146 1088 121 c 0,49,50
 915 -20 915 -20 700 -20 c 0,6,7
EndSplineSet
Validated: 1
EndChar

StartChar: wacute
Encoding: 7811 7811 189
Width: 1840
Flags: W
HStem: -20 160<493.538 776.545 1141.63 1426.42> 1100 20G<541.827 598 1191.83 1248 1841.83 1898> 1507 20G<1240.8 1299.31>
VStem: 252 180<201.427 431.117>
DStem2: 175.277 -20 355.953 -20 0.207912 0.978148<380.842 1082.79> 825.903 -20 1005.95 -20 0.207912 0.978148<380.712 1082.66> 1054 1224 1177 1160 0.550881 0.834584<14.3449 363.055> 1475.9 -20 1655.69 -20 0.207912 0.978148<246.929 1082.66>
LayerCount: 2
Fore
SplineSet
1264 1527 m 1,0,-1
 1377 1463 l 1,1,-1
 1177 1160 l 1,2,-1
 1167 1160 l 1,3,-1
 1054 1224 l 1,4,-1
 1254 1527 l 1,5,-1
 1264 1527 l 1,0,-1
610 -20 m 0,6,7
 438 -20 438 -20 332 97 c 0,8,9
 252 184 252 184 252 302 c 0,10,11
 252 343 252 343 262 388 c 2,12,-1
 401 1039 l 1,13,-1
 588 1120 l 1,14,-1
 598 1120 l 1,15,-1
 438 366 l 2,16,17
 432 339 432 339 432 314 c 0,18,19
 432 250 432 250 472 204 c 0,20,21
 527 140 527 140 625 140 c 128,-1,22
 723 140 723 140 805 203.5 c 128,-1,23
 887 267 887 267 908 366 c 2,24,-1
 1051 1039 l 1,25,-1
 1238 1120 l 1,26,-1
 1248 1120 l 1,27,-1
 1088 366 l 2,28,29
 1082 339 1082 339 1082 314 c 0,30,31
 1082 250 1082 250 1122 204 c 0,32,33
 1177 140 1177 140 1275 140 c 128,-1,34
 1373 140 1373 140 1455 203.5 c 128,-1,35
 1537 267 1537 267 1558 366 c 2,36,-1
 1701 1039 l 1,37,-1
 1888 1120 l 1,38,-1
 1898 1120 l 1,39,-1
 1742 388 l 2,40,41
 1701 195 1701 195 1579 97 c 0,42,43
 1433 -20 1433 -20 1261 -20 c 0,44,45
 1095 -20 1095 -20 993 97 c 0,46,47
 979 113 979 113 968 131 c 1,48,49
 948 114 948 114 929 97 c 0,50,51
 784 -20 784 -20 610 -20 c 0,6,7
EndSplineSet
Validated: 1
EndChar

StartChar: Wdieresis
Encoding: 7812 7812 190
Width: 2180
Flags: W
HStem: -20 180<559.594 892.922 1370.24 1704.72> 1510 20G<648.556 705 1458.56 1515 2268.56 2325> 1640 227<1243.23 1389.64 1519.14 1665.57>
VStem: 269 199<250.34 513.45> 1202 229<1681.58 1825.8> 1479 229<1682.58 1826.8>
DStem2: 175.997 -20 375.524 -20 0.207912 0.978148<454.875 1492.55> 985.524 -20 1185.52 -20 0.207912 0.978148<454.974 1492.65> 1795.52 -20 1996 -20 0.207912 0.978148<310.185 1492.65>
LayerCount: 2
Fore
SplineSet
1618 1868 m 128,-1,1
 1664 1868 1664 1868 1690 1835 c 0,2,3
 1708 1812 1708 1812 1708 1779 c 0,4,5
 1708 1767 1708 1767 1706 1755 c 0,6,7
 1696 1709 1696 1709 1655.5 1675 c 128,-1,8
 1615 1641 1615 1641 1569 1641 c 0,9,10
 1524 1641 1524 1641 1498 1675 c 0,11,12
 1479 1699 1479 1699 1479 1730 c 0,13,14
 1480 1743 1480 1743 1482 1755 c 0,15,16
 1492 1801 1492 1801 1532 1834.5 c 128,-1,0
 1572 1868 1572 1868 1618 1868 c 128,-1,1
1341 1867 m 128,-1,18
 1387 1867 1387 1867 1413 1834 c 0,19,20
 1431 1811 1431 1811 1431 1778 c 0,21,22
 1431 1766 1431 1766 1429 1754 c 0,23,24
 1419 1708 1419 1708 1378.5 1674 c 128,-1,25
 1338 1640 1338 1640 1292 1640 c 0,26,27
 1247 1640 1247 1640 1221 1674 c 0,28,29
 1202 1698 1202 1698 1202 1729 c 0,30,31
 1203 1742 1203 1742 1205 1754 c 0,32,33
 1215 1800 1215 1800 1255 1833.5 c 128,-1,17
 1295 1867 1295 1867 1341 1867 c 128,-1,18
700 -20 m 0,34,35
 490 -20 490 -20 363 121 c 0,36,37
 269 225 269 225 269 368 c 0,38,39
 269 419 269 419 281 474 c 2,40,-1
 486 1440 l 1,41,-1
 695 1530 l 1,42,-1
 705 1530 l 1,43,-1
 475 448 l 2,44,45
 468 413 468 413 468 382 c 0,46,47
 468 298 468 298 520 240 c 0,48,49
 592 160 592 160 718.5 160 c 128,-1,50
 845 160 845 160 951.5 240.5 c 128,-1,51
 1058 321 1058 321 1085 448 c 2,52,-1
 1296 1440 l 1,53,-1
 1505 1530 l 1,54,-1
 1515 1530 l 1,55,-1
 1285 448 l 2,56,57
 1278 413 1278 413 1278 382 c 0,58,59
 1278 298 1278 298 1330 240 c 0,60,61
 1402 160 1402 160 1528.5 160 c 128,-1,62
 1655 160 1655 160 1761.5 240.5 c 128,-1,63
 1868 321 1868 321 1895 448 c 2,64,-1
 2106 1440 l 1,65,-1
 2315 1530 l 1,66,-1
 2325 1530 l 1,67,-1
 2101 474 l 2,68,69
 2052 243 2052 243 1898 121 c 0,70,71
 1720 -20 1720 -20 1510 -20 c 128,-1,72
 1300 -20 1300 -20 1183 121 c 0,73,74
 1162 146 1162 146 1147 173 c 1,75,76
 1119 146 1119 146 1088 121 c 0,77,78
 915 -20 915 -20 700 -20 c 0,34,35
EndSplineSet
Validated: 1
EndChar

StartChar: wdieresis
Encoding: 7813 7813 191
Width: 1840
Flags: W
HStem: -20 160<493.538 776.545 1141.63 1426.42> 1100 20G<541.827 598 1191.83 1248 1841.83 1898> 1230 227<993.232 1139.64 1269.14 1415.57>
VStem: 252 180<201.427 431.117> 952 229<1271.58 1415.8> 1229 229<1272.58 1416.8>
DStem2: 175.277 -20 355.953 -20 0.207912 0.978148<380.842 1082.79> 825.903 -20 1005.95 -20 0.207912 0.978148<380.712 1082.66> 1475.9 -20 1655.69 -20 0.207912 0.978148<246.929 1082.66>
LayerCount: 2
Fore
SplineSet
1368 1458 m 128,-1,1
 1414 1458 1414 1458 1440 1425 c 0,2,3
 1458 1402 1458 1402 1458 1369 c 0,4,5
 1458 1357 1458 1357 1456 1345 c 0,6,7
 1446 1299 1446 1299 1405.5 1265 c 128,-1,8
 1365 1231 1365 1231 1319 1231 c 0,9,10
 1274 1231 1274 1231 1248 1265 c 0,11,12
 1229 1289 1229 1289 1229 1320 c 0,13,14
 1230 1333 1230 1333 1232 1345 c 0,15,16
 1242 1391 1242 1391 1282 1424.5 c 128,-1,0
 1322 1458 1322 1458 1368 1458 c 128,-1,1
1091 1457 m 128,-1,18
 1137 1457 1137 1457 1163 1424 c 0,19,20
 1181 1401 1181 1401 1181 1368 c 0,21,22
 1181 1356 1181 1356 1179 1344 c 0,23,24
 1169 1298 1169 1298 1128.5 1264 c 128,-1,25
 1088 1230 1088 1230 1042 1230 c 0,26,27
 997 1230 997 1230 971 1264 c 0,28,29
 952 1288 952 1288 952 1319 c 0,30,31
 953 1332 953 1332 955 1344 c 0,32,33
 965 1390 965 1390 1005 1423.5 c 128,-1,17
 1045 1457 1045 1457 1091 1457 c 128,-1,18
610 -20 m 0,34,35
 438 -20 438 -20 332 97 c 0,36,37
 252 184 252 184 252 302 c 0,38,39
 252 343 252 343 262 388 c 2,40,-1
 401 1039 l 1,41,-1
 588 1120 l 1,42,-1
 598 1120 l 1,43,-1
 438 366 l 2,44,45
 432 339 432 339 432 314 c 0,46,47
 432 250 432 250 472 204 c 0,48,49
 527 140 527 140 625 140 c 128,-1,50
 723 140 723 140 805 203.5 c 128,-1,51
 887 267 887 267 908 366 c 2,52,-1
 1051 1039 l 1,53,-1
 1238 1120 l 1,54,-1
 1248 1120 l 1,55,-1
 1088 366 l 2,56,57
 1082 339 1082 339 1082 314 c 0,58,59
 1082 250 1082 250 1122 204 c 0,60,61
 1177 140 1177 140 1275 140 c 128,-1,62
 1373 140 1373 140 1455 203.5 c 128,-1,63
 1537 267 1537 267 1558 366 c 2,64,-1
 1701 1039 l 1,65,-1
 1888 1120 l 1,66,-1
 1898 1120 l 1,67,-1
 1742 388 l 2,68,69
 1701 195 1701 195 1579 97 c 0,70,71
 1433 -20 1433 -20 1261 -20 c 0,72,73
 1095 -20 1095 -20 993 97 c 0,74,75
 979 113 979 113 968 131 c 1,76,77
 948 114 948 114 929 97 c 0,78,79
 784 -20 784 -20 610 -20 c 0,34,35
EndSplineSet
Validated: 1
EndChar

StartChar: Ygrave
Encoding: 7922 7922 192
Width: 1230
Flags: W
HStem: -20 21G<511 567.444> 1510 20G<588.556 645 1378.56 1435>
VStem: 306 198<699.365 962.258>
DStem2: 115.347 -20 315.873 -20 0.207912 0.978148<915.136 1492.68> 511 -20 710.87 -20 0.207912 0.978148<133.566 475.083> 1014 1937 872 1880 0.252042 -0.967716<19.3699 321.375> 905.873 -20 1105.35 -20 0.207912 0.978148<770.238 1492.57>
LayerCount: 2
Fore
SplineSet
521 -20 m 1,0,-1
 511 -20 l 1,1,-1
 608 439 l 1,2,3
 486 477 486 477 408 571 c 0,4,5
 306 695 306 695 306 836 c 0,6,7
 306 879 306 879 316 924 c 2,8,-1
 426 1440 l 1,9,-1
 635 1530 l 1,10,-1
 645 1530 l 1,11,-1
 511 898 l 2,12,13
 504 863 504 863 504 832 c 0,14,15
 504 749 504 749 556 690 c 0,16,17
 628 610 628 610 744.5 610 c 128,-1,18
 861 610 861 610 967.5 690.5 c 128,-1,19
 1074 771 1074 771 1101 898 c 2,20,-1
 1216 1440 l 1,21,-1
 1425 1530 l 1,22,-1
 1435 1530 l 1,23,-1
 1306 924 l 2,24,25
 1257 695 1257 695 1103 571 c 0,26,27
 970 463 970 463 808 438 c 1,28,-1
 730 70 l 1,29,-1
 521 -20 l 1,0,-1
1004 1937 m 1,30,-1
 1014 1937 l 1,31,-1
 1095 1626 l 1,32,-1
 965 1570 l 1,33,-1
 955 1570 l 1,34,-1
 872 1880 l 1,35,-1
 1004 1937 l 1,30,-1
EndSplineSet
Validated: 1
EndChar

StartChar: ygrave
Encoding: 7923 7923 193
Width: 1210
Flags: W
HStem: -410 160<338 693.34> -20 160<491.659 776.248> 1100 20G<541.827 598 1191.83 1248> 1507 20G<813.333 875.145>
VStem: 252 180<201.427 431.117>
DStem2: 92.3799 -410 273.056 -410 0.207912 0.978148<779.555 1481.5> 870 1527 727 1470 0.261536 -0.965194<17.6163 321.098> 743.185 -410 923.277 -410 0.207912 0.978148<246.905 489.701 643.406 1481.33>
LayerCount: 2
Fore
SplineSet
233 -410 m 1,0,-1
 235 -400 l 1,1,-1
 338 -250 l 1,2,-1
 542 -250 l 2,3,4
 640 -250 640 -250 722 -186 c 0,5,6
 804 -123 804 -123 825 -24 c 2,7,-1
 845 69 l 1,8,9
 746 -20 746 -20 611 -20 c 0,10,11
 439 -20 439 -20 332 97 c 0,12,13
 252 184 252 184 252 302 c 0,14,15
 252 343 252 343 262 388 c 2,16,-1
 401 1039 l 1,17,-1
 588 1120 l 1,18,-1
 598 1120 l 1,19,-1
 438 366 l 2,20,21
 432 339 432 339 432 314 c 0,22,23
 432 250 432 250 472 204 c 0,24,25
 527 140 527 140 625 140 c 128,-1,26
 723 140 723 140 805 203.5 c 128,-1,27
 887 267 887 267 908 366 c 2,28,-1
 1051 1039 l 1,29,-1
 1238 1120 l 1,30,-1
 1248 1120 l 1,31,-1
 1010 -2 l 2,32,33
 968 -195 968 -195 846 -293 c 0,34,35
 700 -410 700 -410 528 -410 c 2,36,-1
 233 -410 l 1,0,-1
860 1527 m 1,37,-1
 870 1527 l 1,38,-1
 950 1216 l 1,39,-1
 821 1160 l 1,40,-1
 811 1160 l 1,41,-1
 727 1470 l 1,42,-1
 860 1527 l 1,37,-1
EndSplineSet
Validated: 1
EndChar

StartChar: AE
Encoding: 198 198 194
Width: 1688
Flags: W
HStem: -20 21G<176 232.444> 0 180<1066 1558> 665 180<560 969 1208 1649> 1330 180<1311 1791> 1350 180<799.67 1106.47>
DStem2: 176 -20 375.87 -20 0.207912 0.978148<133.566 741.761 925.936 1316.08> 823.749 -20 1023.49 -20 0.207912 0.978148<245.996 700.231 925.988 1377.44>
LayerCount: 2
Fore
SplineSet
1558 0 m 1,0,-1
 828 0 l 1,1,-1
 969 665 l 1,2,-1
 521 665 l 1,3,-1
 395 70 l 1,4,-1
 186 -20 l 1,5,-1
 176 -20 l 1,6,-1
 400 1036 l 2,7,8
 449 1267 449 1267 603 1389 c 0,9,10
 781 1530 781 1530 991 1530 c 0,11,12
 1090 1530 1090 1530 1156 1510 c 1,13,-1
 1909 1510 l 1,14,-1
 1907 1500 l 1,15,-1
 1791 1330 l 1,16,-1
 1311 1330 l 1,17,-1
 1208 845 l 1,18,-1
 1768 845 l 1,19,-1
 1765 835 l 1,20,-1
 1649 665 l 1,21,-1
 1169 665 l 1,22,-1
 1066 180 l 1,23,-1
 1676 180 l 1,24,-1
 1674 170 l 1,25,-1
 1558 0 l 1,0,-1
1108 1319 m 1,26,27
 1051 1350 1051 1350 973 1350 c 0,28,29
 847 1350 847 1350 740 1269.5 c 128,-1,30
 633 1189 633 1189 606 1062 c 2,31,-1
 560 845 l 1,32,-1
 1008 845 l 1,33,-1
 1108 1319 l 1,26,27
EndSplineSet
Validated: 1
EndChar

StartChar: Eth
Encoding: 208 208 195
Width: 1350
Flags: W
HStem: 0 180<438 895.122> 695 120<265 348 573 826> 1330 180<683 1125.52>
VStem: 1218 198<978.21 1237.87>
DStem2: 200 0 399.74 0 0.207912 0.978148<225.55 710.584 874.741 1401.36> 989.524 0 1190 0 0.207912 0.978148<309.484 1130.34>
CounterMasks: 1 e0
LayerCount: 2
Fore
SplineSet
200 0 m 1,0,-1
 348 695 l 1,1,-1
 188 695 l 1,2,-1
 190 705 l 1,3,-1
 265 815 l 1,4,-1
 373 815 l 1,5,-1
 506 1440 l 1,6,-1
 669 1510 l 1,7,-1
 986 1510 l 2,8,9
 1197 1510 1197 1510 1314 1369 c 0,10,11
 1416 1247 1416 1247 1416 1105 c 0,12,13
 1416 1061 1416 1061 1406 1016 c 2,14,-1
 1295 494 l 2,15,16
 1246 265 1246 265 1092 141 c 0,17,18
 916 0 916 0 705 0 c 2,19,-1
 200 0 l 1,0,-1
438 180 m 1,20,-1
 723 180 l 2,21,22
 848 180 848 180 955 260 c 128,-1,23
 1062 340 1062 340 1089 468 c 2,24,-1
 1211 1042 l 2,25,26
 1218 1077 1218 1077 1218 1108 c 0,27,28
 1218 1192 1218 1192 1166 1250 c 0,29,30
 1094 1330 1094 1330 968 1330 c 2,31,-1
 683 1330 l 1,32,-1
 573 815 l 1,33,-1
 903 815 l 1,34,-1
 901 805 l 1,35,-1
 826 695 l 1,36,-1
 548 695 l 1,37,-1
 438 180 l 1,20,-1
EndSplineSet
Validated: 1
EndChar

StartChar: Dcroat
Encoding: 272 272 196
Width: 1350
Flags: W
HStem: 0 180<438 895.122> 695 120<265 348 573 826> 1330 180<683 1125.52>
VStem: 1218 198<978.21 1237.87>
DStem2: 200 0 399.74 0 0.207912 0.978148<225.55 710.584 874.741 1401.36> 989.524 0 1190 0 0.207912 0.978148<309.484 1130.34>
CounterMasks: 1 e0
LayerCount: 2
Fore
SplineSet
200 0 m 1,0,-1
 348 695 l 1,1,-1
 188 695 l 1,2,-1
 190 705 l 1,3,-1
 265 815 l 1,4,-1
 373 815 l 1,5,-1
 506 1440 l 1,6,-1
 669 1510 l 1,7,-1
 986 1510 l 2,8,9
 1197 1510 1197 1510 1314 1369 c 0,10,11
 1416 1247 1416 1247 1416 1105 c 0,12,13
 1416 1061 1416 1061 1406 1016 c 2,14,-1
 1295 494 l 2,15,16
 1246 265 1246 265 1092 141 c 0,17,18
 916 0 916 0 705 0 c 2,19,-1
 200 0 l 1,0,-1
438 180 m 1,20,-1
 723 180 l 2,21,22
 848 180 848 180 955 260 c 128,-1,23
 1062 340 1062 340 1089 468 c 2,24,-1
 1211 1042 l 2,25,26
 1218 1077 1218 1077 1218 1108 c 0,27,28
 1218 1192 1218 1192 1166 1250 c 0,29,30
 1094 1330 1094 1330 968 1330 c 2,31,-1
 683 1330 l 1,32,-1
 573 815 l 1,33,-1
 903 815 l 1,34,-1
 901 805 l 1,35,-1
 826 695 l 1,36,-1
 548 695 l 1,37,-1
 438 180 l 1,20,-1
EndSplineSet
Validated: 1
EndChar

StartChar: Hbar
Encoding: 294 294 197
Width: 1400
Flags: W
HStem: -20 21G<196 252.444 996 1052.44> 665 180<580 1141> 1250 120<383 466 691 1266 1491 1574> 1510 20G<668.556 725 1468.56 1525>
DStem2: 196 -20 395.87 -20 0.207912 0.978148<133.566 741.761 925.936 1298.38 1462.54 1492.55> 996 -20 1195.87 -20 0.207912 0.978148<133.566 700.178 884.353 1298.38 1462.54 1492.55>
LayerCount: 2
Fore
SplineSet
206 -20 m 1,0,-1
 196 -20 l 1,1,-1
 466 1250 l 1,2,-1
 306 1250 l 1,3,-1
 308 1260 l 1,4,-1
 383 1370 l 1,5,-1
 491 1370 l 1,6,-1
 506 1440 l 1,7,-1
 715 1530 l 1,8,-1
 725 1530 l 1,9,-1
 691 1370 l 1,10,-1
 1291 1370 l 1,11,-1
 1306 1440 l 1,12,-1
 1515 1530 l 1,13,-1
 1525 1530 l 1,14,-1
 1491 1370 l 1,15,-1
 1651 1370 l 1,16,-1
 1649 1360 l 1,17,-1
 1574 1250 l 1,18,-1
 1466 1250 l 1,19,-1
 1215 70 l 1,20,-1
 1006 -20 l 1,21,-1
 996 -20 l 1,22,-1
 1141 665 l 1,23,-1
 541 665 l 1,24,-1
 415 70 l 1,25,-1
 206 -20 l 1,0,-1
666 1250 m 1,26,-1
 580 845 l 1,27,-1
 1180 845 l 1,28,-1
 1266 1250 l 1,29,-1
 666 1250 l 1,26,-1
EndSplineSet
Validated: 1
EndChar

StartChar: IJ
Encoding: 306 306 198
Width: 1660
Flags: W
HStem: -20 180<888.16 1210.23> 1330 180<1036 1583> 1510 20G<668.556 725>
VStem: 607 190<251.071 367>
DStem2: 196 -20 395.87 -20 0.207912 0.978148<133.566 1492.55> 1295.52 -20 1496 -20 0.207912 0.978148<307.735 1380.27>
LayerCount: 2
Fore
SplineSet
1024.5 -20 m 128,-1,1
 819 -20 819 -20 702 121 c 0,2,3
 608 235 608 235 607 367 c 1,4,-1
 794 448 l 1,5,-1
 804 448 l 1,6,7
 797 413 797 413 797 382 c 0,8,9
 797 298 797 298 849 240 c 0,10,11
 921 160 921 160 1042.5 160 c 128,-1,12
 1164 160 1164 160 1266 240.5 c 128,-1,13
 1368 321 1368 321 1395 448 c 18,14,-1
 1583 1330 l 1,15,-1
 918 1330 l 1,16,-1
 920 1340 l 1,17,-1
 1036 1510 l 1,18,-1
 1821 1510 l 1,19,-1
 1601 474 l 2,20,21
 1552 242 1552 242 1403 121 c 0,22,0
 1230 -20 1230 -20 1024.5 -20 c 128,-1,1
196 -20 m 1,23,-1
 506 1440 l 1,24,-1
 715 1530 l 1,25,-1
 725 1530 l 1,26,-1
 415 70 l 1,27,-1
 206 -20 l 1,28,-1
 196 -20 l 1,23,-1
EndSplineSet
Validated: 1
EndChar

StartChar: lslash
Encoding: 322 322 199
Width: 684
Flags: W
HStem: -20 21G<248 304.173> 1510 20G<700.827 757>
VStem: 173 659
DStem2: 196 685 173 555 0.920487 0.390773<0 163.725 455.242 618.576> 248 -20 427.783 -20 0.207912 0.978148<120.189 681.948 940.008 1501.77>
LayerCount: 2
Fore
SplineSet
258 -20 m 1,0,-1
 248 -20 l 1,1,-1
 390 647 l 1,2,-1
 173 555 l 1,3,-1
 170 564 l 1,4,-1
 196 685 l 1,5,-1
 418 779 l 1,6,-1
 560 1449 l 1,7,-1
 747 1530 l 1,8,-1
 757 1530 l 1,9,-1
 615 863 l 1,10,-1
 832 955 l 1,11,-1
 835 946 l 1,12,-1
 809 824 l 1,13,-1
 587 730 l 1,14,-1
 445 61 l 1,15,-1
 258 -20 l 1,0,-1
EndSplineSet
Validated: 1
EndChar

StartChar: Lslash
Encoding: 321 321 200
Width: 1020
Flags: W
HStem: 0 180<438 930> 1510 20G<668.556 725>
DStem2: 200 0 399.74 0 0.207912 0.978148<225.55 603.096 739.219 739.804 875.72 1472.15> 266 686 325 590 0.921007 0.389546<0 16.9431 333.39 618.335>
LayerCount: 2
Fore
SplineSet
200 0 m 1,0,-1
 325 590 l 1,1,-1
 243 555 l 1,2,-1
 240 564 l 1,3,-1
 266 686 l 1,4,-1
 354 723 l 1,5,-1
 506 1440 l 1,6,-1
 715 1530 l 1,7,-1
 725 1530 l 1,8,-1
 573 816 l 1,9,-1
 902 955 l 1,10,-1
 905 946 l 1,11,-1
 879 824 l 1,12,-1
 545 683 l 1,13,-1
 438 180 l 1,14,-1
 1048 180 l 1,15,-1
 1046 170 l 1,16,-1
 930 0 l 1,17,-1
 200 0 l 1,0,-1
EndSplineSet
Validated: 1
EndChar

StartChar: Eng
Encoding: 330 330 201
Width: 1370
Flags: W
HStem: -410 21G<601 714> -20 21G<176 232.444> 1350 180<798.893 1131.3>
VStem: 1223 199<996.872 1259.66>
DStem2: 93.1029 -410 292.973 -410 0.207912 0.978148<532.279 1714.74> 902.524 -410 1103 -410 0.207912 0.978148<307.953 1570.07>
LayerCount: 2
Fore
SplineSet
186 -20 m 1,0,-1
 176 -20 l 9,1,-1
 400 1036 l 2,2,3
 448 1267 448 1267 602 1389 c 0,4,5
 780 1530 780 1530 990.5 1530 c 128,-1,6
 1201 1530 1201 1530 1328 1389 c 0,7,8
 1422 1285 1422 1285 1422 1142 c 0,9,10
 1422 1091 1422 1091 1410 1036 c 2,11,-1
 1208 84 l 18,12,13
 1159 -147 1159 -147 1006 -269 c 0,14,15
 829 -410 829 -410 599 -410 c 1,16,-1
 601 -400 l 1,17,-1
 723 -220 l 1,18,19
 804 -200 804 -200 869 -150 c 0,20,21
 975 -68 975 -68 1002 58 c 26,22,-1
 1216 1062 l 2,23,24
 1223 1097 1223 1097 1223 1128 c 0,25,26
 1223 1212 1223 1212 1171 1270 c 0,27,28
 1099 1350 1099 1350 972.5 1350 c 128,-1,29
 846 1350 846 1350 739.5 1269.5 c 128,-1,30
 633 1189 633 1189 606 1062 c 2,31,-1
 395 70 l 17,32,-1
 186 -20 l 1,0,-1
EndSplineSet
Validated: 1
EndChar

StartChar: OE
Encoding: 338 338 202
Width: 1674
Flags: W
HStem: -20 180<541.233 1027.5> 0 180<1052 1544> 665 180<1194 1635> 1330 180<1297 1777> 1350 180<779.67 1093.03>
VStem: 249 199<250.656 511.785>
DStem2: 155.997 -20 355.524 -20 0.207912 0.978148<455.853 1312.42> 809.513 -20 1009.49 -20 0.207912 0.978148<246.045 741.862 926.037 1375.63>
LayerCount: 2
Fore
SplineSet
1544 0 m 1,0,-1
 815 0 l 1,1,2
 741 -20 741 -20 682 -20 c 0,3,4
 472 -20 472 -20 344 121 c 0,5,6
 249 225 249 225 249 369 c 0,7,8
 249 419 249 419 261 474 c 2,9,-1
 380 1036 l 2,10,11
 429 1267 429 1267 583 1389 c 0,12,13
 761 1530 761 1530 971 1530 c 0,14,15
 1070 1530 1070 1530 1136 1510 c 1,16,-1
 1895 1510 l 1,17,-1
 1893 1500 l 1,18,-1
 1777 1330 l 1,19,-1
 1297 1330 l 1,20,-1
 1194 845 l 1,21,-1
 1754 845 l 1,22,-1
 1751 835 l 1,23,-1
 1635 665 l 1,24,-1
 1155 665 l 1,25,-1
 1052 180 l 1,26,-1
 1662 180 l 1,27,-1
 1660 170 l 1,28,-1
 1544 0 l 1,0,-1
855 194 m 1,29,-1
 1094 1316 l 1,30,31
 1035 1350 1035 1350 953 1350 c 0,32,33
 827 1350 827 1350 720 1269.5 c 128,-1,34
 613 1189 613 1189 586 1062 c 2,35,-1
 455 448 l 2,36,37
 448 414 448 414 448 383 c 0,38,39
 448 299 448 299 501 240 c 0,40,41
 574 160 574 160 700 160 c 0,42,43
 782 160 782 160 855 194 c 1,29,-1
EndSplineSet
Validated: 1
EndChar

